<svg width="114" height="53" viewBox="0 0 114 53" fill="none" xmlns="http://www.w3.org/2000/svg">
<path d="M110.264 26.3299C110.168 26.3879 110.044 26.3639 109.974 26.276C109.795 26.0441 109.611 25.8163 109.445 25.5745C101.491 13.9333 90.587 6.78262 76.6894 4.43239C57.2021 1.13887 41.5838 8.0097 29.1212 22.9185C28.3757 23.8118 27.5324 24.6412 26.649 25.4026C26.2274 25.7663 24.9783 26.7956 23.7292 25.7903C22.2104 24.5672 23.6473 22.207 24.6046 21.2238C27.3745 18.3799 30.0705 15.4221 33.1042 12.88C39.8931 7.19631 47.6473 3.37518 56.4107 1.73841C61.7247 0.745159 67.0567 0.735167 72.4087 1.37668C79.5653 2.23604 86.2942 4.38642 92.5076 8.05367C99.6662 12.2785 105.486 17.8983 109.849 24.9949C110.052 25.3247 110.194 25.6904 110.354 26.0481C110.4 26.1521 110.362 26.272 110.266 26.3299H110.264Z" fill="white"/>
<path d="M4.11491 52.3681C4.11491 52.3681 1.14314 52.3521 0 52.3521C0.287784 51.5107 10.2883 23.3479 10.2883 23.3479H14.7389C14.7389 23.3479 24.8393 51.8445 25.0072 52.3481C23.6882 52.3481 20.8783 52.3121 20.8783 52.3121L17.8626 43.9024L6.98275 43.9004L4.11491 52.3681ZM12.4926 27.3129C11.0297 31.6357 9.55882 36.1922 8.06794 40.6009H16.8693C15.3884 36.1803 13.9395 31.6397 12.4926 27.3129Z" fill="white"/>
<path d="M64.2089 43.7682C64.2209 43.9021 64.2569 44.034 64.2849 44.1619C65.1742 48.1869 69.2611 50.3733 73.8717 49.0423C75.1307 48.6226 76.4257 47.8212 77.4989 47.0658C77.7168 47.4515 78.0945 48.1529 78.3763 48.6546L79.1417 49.8577L77.8007 50.8489C72.8564 54.0085 66.3573 53.2911 62.7121 49.2581C58.1894 44.2519 59.3166 33.5259 67.6623 31.4295C74.0655 29.8227 79.2716 33.7058 79.3855 40.2829C79.3975 40.9643 79.3875 41.6458 79.3875 42.4492H78.0146C73.7617 42.4492 69.5069 42.4812 65.2521 42.4272H64.137C64.139 42.4272 64.135 42.9968 64.2089 43.7682ZM75.3785 39.5474C75.4185 36.2879 73.3301 34.1135 70.3043 34.1295C67.0928 34.1475 64.2929 36.6796 64.3688 39.5474H75.3785Z" fill="white"/>
<path d="M101.429 49.0233H113.9V52.3528H96.001V49.9166C99.7661 45.3241 104.387 39.6484 108.178 34.8939H96.001V31.4465H113.692V33.8967C113.69 33.8967 103.05 47.0148 101.429 49.0233Z" fill="white"/>
<path d="M56.273 36.2128C54.3944 34.8498 52.4119 34.1923 50.1676 34.5301C48.7846 34.7379 47.8413 35.5173 47.6635 36.6525C47.4596 37.9375 48.269 38.6669 49.2583 39.1766C50.3275 39.7282 51.4746 40.1318 52.5658 40.6495C53.7169 41.195 54.924 41.6807 55.9612 42.4001C59.2688 44.6944 59.1968 49.257 55.8114 51.4553C52.9775 53.294 49.8878 53.1701 46.8441 52.1069C45.5071 51.6392 44.308 50.7858 42.915 50.0364C43.6545 48.9312 44.242 48.0579 44.8456 47.1546C45.5351 47.5982 46.1486 48.0399 46.8061 48.4056C48.325 49.247 49.9557 49.6567 51.6904 49.3689C52.252 49.275 52.8396 49.0631 53.3092 48.7494C54.7082 47.8141 54.7961 46.0674 53.4231 45.1061C52.4459 44.4226 51.2907 43.9949 50.2156 43.4513C48.7726 42.7219 47.2118 42.1523 45.9108 41.225C42.6712 38.9148 42.961 34.3282 46.3704 32.2897C49.662 30.3192 55.1219 30.8268 57.7779 33.3949C57.2922 34.3022 56.7966 35.2315 56.273 36.2128Z" fill="white"/>
<path d="M39.5093 36.2118C37.6307 34.8488 35.6462 34.1913 33.4039 34.5291C32.021 34.7369 31.0777 35.5163 30.8998 36.6515C30.696 37.9365 31.5053 38.666 32.4946 39.1756C33.5638 39.7272 34.7109 40.1309 35.8021 40.6485C36.9533 41.1941 38.1603 41.6797 39.1976 42.3992C42.5051 44.6934 42.4331 49.256 39.0477 51.4544C36.2138 53.293 33.1241 53.1691 30.0804 52.1059C28.7434 51.6382 27.5443 50.7849 26.1514 50.0354C26.8908 48.9303 27.4784 48.0569 28.0819 47.1536C28.7714 47.5973 29.3849 48.0389 30.0424 48.4047C31.5613 49.246 33.1921 49.6557 34.9268 49.3679C35.4884 49.274 36.0759 49.0622 36.5456 48.7484C37.9445 47.8131 38.0324 46.0664 36.6595 45.1051C35.6822 44.4216 34.5271 43.994 33.4519 43.4504C32.009 42.7209 30.4481 42.1514 29.1471 41.2241C25.9075 38.9138 26.1973 34.3272 29.6068 32.2888C32.8983 30.3182 38.3582 30.8259 41.0142 33.3939C40.5286 34.3013 40.0329 35.2306 39.5093 36.2118Z" fill="white"/>
<path d="M93.3497 34.9595V31.9018C92.0347 31.9018 88.3595 31.9218 88.3595 31.9218V25.8704H84.6083L84.6283 31.9578H81.8164V34.9575H84.4404C84.4404 34.9575 84.4045 42.328 84.4744 45.4417C84.6063 51.3312 89.2908 52.8881 93.6735 52.3545V48.915C90.1421 48.915 88.5493 48.0057 88.5493 44.7722V34.9575C88.5513 34.9555 91.9148 34.9595 93.3497 34.9595Z" fill="white"/>
</svg>
