<svg width="41" height="34" viewBox="0 0 41 34" fill="none" xmlns="http://www.w3.org/2000/svg">
<g id="Group 482019">
<path id="Vector" d="M27.6922 12.1656C27.7579 11.8184 27.495 11.4712 27.1006 11.4018C26.9692 11.4018 26.772 11.4018 26.5748 11.4712C26.5748 9.94363 26.5748 8.76321 26.5748 8.41602C26.7062 7.23559 26.772 5.29135 26.3118 2.93049C25.6545 -0.402483 15.3346 -0.541357 14.6115 2.93049C14.1514 5.29135 14.2171 7.30503 14.3486 8.41602C14.4143 8.76321 14.4143 9.94363 14.3486 11.4712C14.2171 11.4018 14.0199 11.4018 13.8885 11.4018C13.5598 11.4018 13.2969 11.749 13.2969 12.1656C13.2969 12.2351 13.2969 12.3739 13.3626 12.4434L14.4143 12.2351C14.4143 12.3045 14.2171 26.6085 14.2829 27.3029C14.4801 28.6222 14.743 28.6916 14.8744 29.9415C15.2688 32.4412 16.3206 32.719 16.3863 32.8579C17.438 33.4134 20.3959 33.6217 20.4617 33.6217C20.4617 33.6217 21.6449 33.6217 23.8797 33.0662C26.1146 32.5801 26.0489 29.5249 26.1804 29.1777C26.3118 28.8305 26.5748 27.9278 26.7062 27.3029C26.8377 26.678 26.6405 20.9147 26.7062 20.012C26.7062 19.3176 26.6405 16.1235 26.5748 12.2351L27.6265 12.4434C27.6922 12.3045 27.6922 12.2351 27.6922 12.1656ZM25.4573 1.95838C26.3776 2.86106 25.786 3.48599 25.786 3.48599C25.786 3.48599 24.7343 1.61119 22.3022 0.777947C22.3022 0.777947 24.5371 1.05569 25.4573 1.95838ZM24.8 9.04095H24.8657C26.1804 9.52701 24.9972 13.1377 24.8657 14.2487C24.8 14.2487 24.7343 14.2487 24.6685 14.2487C21.4477 13.6932 19.147 13.7627 16.1234 14.2487C15.729 12.2351 15.5975 10.4297 15.5975 10.2214C15.5975 10.1519 15.6632 9.8742 15.6632 9.59645C15.729 9.3187 15.8604 9.11039 16.1234 8.97152C18.8841 7.79109 22.105 7.9994 24.8 9.04095ZM15.5975 1.95838C16.452 1.12513 18.4897 0.847384 18.7526 0.777947C16.3863 1.61119 15.2688 3.48599 15.2688 3.48599C15.2688 3.48599 14.743 2.86106 15.5975 1.95838ZM15.0716 11.6101C15.1374 10.7074 15.2031 10.4297 15.2031 10.4297C15.2031 10.4297 15.7947 14.1793 15.7947 14.8042C15.7947 15.9152 15.9919 24.8032 15.5318 25.7058C15.0059 26.678 14.6115 16.3318 15.0716 11.6101ZM16.3206 30.2192L16.3863 25.4975C18.8841 26.1919 21.9078 26.2613 24.4713 25.4975C24.5371 25.4975 24.5371 25.4975 24.6028 25.4975L24.8 30.2192C21.9735 31.1219 19.5414 31.4691 16.3206 30.2192ZM25.5231 25.7753C25.1944 25.2198 25.1944 21.7479 25.1944 18.8316C25.1944 18.7621 25.1944 16.679 25.2601 14.8042C25.2601 14.1793 25.8517 10.4297 25.8517 10.4297C26.509 16.4707 25.9174 26.6085 25.5231 25.7753Z" fill="white"/>
<path id="Rectangle 82" d="M0.65 2.37842C0.65 2.09 0.979265 1.92537 1.21 2.09842L6.96676 6.41599C7.05489 6.48208 7.10676 6.58582 7.10676 6.69599V27.3041C7.10676 27.4143 7.05489 27.518 6.96676 27.5841L1.21 31.9017C0.979267 32.0747 0.65 31.9101 0.65 31.6217V2.37842Z" stroke="white" stroke-width="1.3"/>
<path id="Rectangle 83" d="M40.35 2.37842C40.35 2.09 40.0207 1.92537 39.79 2.09842L34.0332 6.41599C33.9451 6.48208 33.8932 6.58582 33.8932 6.69599V27.3041C33.8932 27.4143 33.9451 27.518 34.0332 27.5841L39.79 31.9017C40.0207 32.0747 40.35 31.9101 40.35 31.6217V2.37842Z" stroke="white" stroke-width="1.3"/>
</g>
</svg>
