<svg width="18" height="19" viewBox="0 0 18 19" fill="none" xmlns="http://www.w3.org/2000/svg">
<path d="M16.5 10.6074C16.3011 10.6074 16.1103 10.6864 15.9697 10.8271C15.829 10.9677 15.75 11.1585 15.75 11.3574V14.3574C15.75 14.5563 15.671 14.7471 15.5303 14.8878C15.3897 15.0284 15.1989 15.1074 15 15.1074H4.5C4.30109 15.1074 4.11032 15.0284 3.96967 14.8878C3.82902 14.7471 3.75 14.5563 3.75 14.3574V11.3574C3.75 11.1585 3.67098 10.9677 3.53033 10.8271C3.38968 10.6864 3.19891 10.6074 3 10.6074C2.80109 10.6074 2.61032 10.6864 2.46967 10.8271C2.32902 10.9677 2.25 11.1585 2.25 11.3574V14.3574C2.25 14.9542 2.48705 15.5265 2.90901 15.9484C3.33097 16.3704 3.90326 16.6074 4.5 16.6074H15C15.5967 16.6074 16.169 16.3704 16.591 15.9484C17.0129 15.5265 17.25 14.9542 17.25 14.3574V11.3574C17.25 11.1585 17.171 10.9677 17.0303 10.8271C16.8897 10.6864 16.6989 10.6074 16.5 10.6074ZM9.2175 11.8899C9.28883 11.9582 9.37294 12.0117 9.465 12.0474C9.55477 12.0871 9.65185 12.1076 9.75 12.1076C9.84815 12.1076 9.94522 12.0871 10.035 12.0474C10.1271 12.0117 10.2112 11.9582 10.2825 11.8899L13.2825 8.88992C13.4237 8.74869 13.5031 8.55715 13.5031 8.35742C13.5031 8.1577 13.4237 7.96615 13.2825 7.82492C13.1413 7.68369 12.9497 7.60435 12.75 7.60435C12.5503 7.60435 12.3587 7.68369 12.2175 7.82492L10.5 9.54992V2.35742C10.5 2.15851 10.421 1.96774 10.2803 1.82709C10.1397 1.68644 9.94891 1.60742 9.75 1.60742C9.55109 1.60742 9.36032 1.68644 9.21967 1.82709C9.07902 1.96774 9 2.15851 9 2.35742V9.54992L7.2825 7.82492C7.21257 7.75499 7.12955 7.69952 7.03819 7.66168C6.94682 7.62383 6.84889 7.60435 6.75 7.60435C6.65111 7.60435 6.55318 7.62383 6.46181 7.66168C6.37045 7.69952 6.28743 7.75499 6.2175 7.82492C6.14757 7.89485 6.0921 7.97787 6.05426 8.06923C6.01641 8.1606 5.99693 8.25853 5.99693 8.35742C5.99693 8.45632 6.01641 8.55424 6.05426 8.64561C6.0921 8.73698 6.14757 8.81999 6.2175 8.88992L9.2175 11.8899Z" fill="white" fill-opacity="0.4"/>
</svg>
