<svg width="42" height="42" viewBox="0 0 42 42" fill="none" xmlns="http://www.w3.org/2000/svg">
<g id="Group 482018">
<g id="Vector">
<mask id="path-1-outside-1_13_35362" maskUnits="userSpaceOnUse" x="-0.00390625" y="-0.00341797" width="36" height="42" fill="black">
<rect fill="white" x="-0.00390625" y="-0.00341797" width="36" height="42"/>
<path d="M29.1191 3.74501C29.2848 3.745 29.4438 3.67914 29.561 3.56192C29.6783 3.4447 29.7441 3.28571 29.7441 3.11994V1.62303C29.7443 1.54083 29.7283 1.4594 29.6969 1.38341C29.6656 1.30741 29.6196 1.23834 29.5615 1.18015C29.5035 1.12196 29.4345 1.07579 29.3586 1.0443C29.2827 1.0128 29.2013 0.996582 29.1191 0.996582C29.0369 0.996582 28.9555 1.0128 28.8795 1.0443C28.8036 1.07579 28.7347 1.12196 28.6766 1.18015C28.6185 1.23834 28.5725 1.30741 28.5412 1.38341C28.5099 1.4594 28.4938 1.54083 28.494 1.62303V3.11994C28.494 3.28571 28.5599 3.44469 28.6771 3.56192C28.7943 3.67914 28.9533 3.745 29.1191 3.74501ZM24.8847 5.33111C24.9921 5.45669 25.1444 5.53522 25.309 5.54989C25.4735 5.56455 25.6373 5.51418 25.7652 5.40956C25.8924 5.30318 25.972 5.15066 25.9868 4.98553C26.0015 4.82041 25.95 4.6562 25.8437 4.52902L24.8646 3.35823C24.7582 3.23107 24.6057 3.15136 24.4405 3.13666C24.2754 3.12195 24.1112 3.17344 23.984 3.2798C23.8569 3.38617 23.7772 3.53869 23.7625 3.70382C23.7478 3.86895 23.7992 4.03316 23.9056 4.16032L24.8847 5.33111ZM33.303 5.33111C33.1956 5.45669 33.0433 5.53522 32.8787 5.54989C32.7142 5.56455 32.5504 5.51418 32.4225 5.40956C32.2954 5.30318 32.2157 5.15066 32.2009 4.98553C32.1862 4.82041 32.2377 4.6562 32.3441 4.52902L33.3232 3.35823C33.4295 3.23107 33.582 3.15136 33.7472 3.13666C33.9123 3.12195 34.0765 3.17344 34.2037 3.2798C34.3308 3.38617 34.4105 3.53869 34.4252 3.70382C34.44 3.86895 34.3885 4.03316 34.2821 4.16032L33.303 5.33111ZM26.5132 3.84062C26.5854 3.98923 26.713 4.10366 26.8685 4.15942C27.024 4.21518 27.1952 4.20784 27.3454 4.13896C27.4953 4.06815 27.6109 3.94071 27.6669 3.78466C27.7228 3.6286 27.7145 3.45672 27.6437 3.3068L27.2555 2.48457C27.2205 2.41034 27.1711 2.34374 27.1103 2.28858C27.0496 2.23341 26.9785 2.19076 26.9012 2.16306C26.824 2.13536 26.742 2.12315 26.66 2.12712C26.578 2.1311 26.4976 2.15119 26.4234 2.18624C26.3491 2.22129 26.2825 2.27061 26.2274 2.3314C26.1722 2.39219 26.1296 2.46325 26.1019 2.54052C26.0742 2.61779 26.062 2.69976 26.0659 2.78175C26.0699 2.86374 26.09 2.94415 26.125 3.01838L26.5132 3.84062ZM22.9026 6.79932L23.6526 7.17916C23.7259 7.21664 23.8058 7.23929 23.8879 7.2458C23.9699 7.25231 24.0524 7.24255 24.1307 7.21709C24.209 7.19163 24.2814 7.15096 24.3439 7.09742C24.4064 7.04387 24.4578 6.97852 24.4949 6.90509C24.5321 6.83167 24.5544 6.75163 24.5606 6.66956C24.5668 6.58749 24.5567 6.50501 24.5309 6.42685C24.5051 6.34869 24.4641 6.2764 24.4103 6.21412C24.3565 6.15184 24.2909 6.10079 24.2174 6.06392L23.4675 5.68409C23.3196 5.60917 23.148 5.59607 22.9905 5.64768C22.8329 5.69928 22.7023 5.81135 22.6274 5.95924C22.5525 6.10713 22.5394 6.27872 22.591 6.43627C22.6426 6.59381 22.7547 6.72441 22.9026 6.79932ZM30.9007 4.13896C31.0508 4.20818 31.2221 4.2157 31.3777 4.15991C31.5334 4.10411 31.6609 3.98946 31.7328 3.84062L32.121 3.01838C32.1918 2.86847 32.2002 2.69658 32.1442 2.54052C32.0883 2.38447 31.9726 2.25703 31.8227 2.18624C31.6728 2.11545 31.5009 2.10712 31.3449 2.16306C31.1888 2.21901 31.0614 2.33466 30.9906 2.48457L30.6024 3.3068C30.5316 3.45672 30.5233 3.6286 30.5792 3.78466C30.6352 3.94071 30.7508 4.06815 30.9007 4.13896ZM33.7534 6.90386C33.83 7.05012 33.9606 7.16072 34.1175 7.21213C34.2744 7.26355 34.4452 7.25172 34.5935 7.17916L35.3435 6.79932C35.4914 6.72441 35.6035 6.59381 35.6551 6.43627C35.7067 6.27872 35.6936 6.10713 35.6187 5.95924C35.5438 5.81135 35.4132 5.69928 35.2556 5.64768C35.0981 5.59607 34.9265 5.60917 34.7786 5.68409L34.0287 6.06392C33.9555 6.10098 33.8902 6.15211 33.8368 6.21438C33.7833 6.27666 33.7426 6.34886 33.717 6.42686C33.6915 6.50486 33.6815 6.58713 33.6878 6.66897C33.694 6.75082 33.7163 6.83063 33.7534 6.90386ZM29.1084 4.72298C28.2352 4.72047 27.3876 5.01742 26.7069 5.56428C26.0262 6.11116 25.5535 6.87488 25.3678 7.72808C25.3487 7.80792 25.3454 7.89075 25.3583 7.97185C25.3711 8.05294 25.3998 8.13071 25.4427 8.20071C25.4856 8.27071 25.5419 8.33156 25.6084 8.3798C25.6748 8.42804 25.7501 8.46271 25.83 8.48184C25.9098 8.50096 25.9927 8.50417 26.0737 8.49127C26.1548 8.47837 26.2326 8.44962 26.3026 8.40666C26.3725 8.3637 26.4334 8.30738 26.4816 8.2409C26.5297 8.17443 26.5644 8.09911 26.5835 8.01925C26.7058 7.44053 27.0233 6.92144 27.4828 6.54894C27.9423 6.17643 28.5158 5.97314 29.1073 5.97313C29.6988 5.97311 30.2724 6.17636 30.7319 6.54884C31.1914 6.92132 31.5089 7.44039 31.6313 8.0191C31.6504 8.09893 31.6851 8.17423 31.7333 8.24068C31.7815 8.30714 31.8423 8.36344 31.9122 8.40639C31.9822 8.44934 32.0599 8.47809 32.141 8.491C32.2221 8.50391 32.3049 8.50072 32.3847 8.48163C32.4646 8.46253 32.5399 8.42789 32.6063 8.37969C32.6728 8.3315 32.7291 8.27068 32.772 8.20072C32.815 8.13076 32.8437 8.05303 32.8566 7.97196C32.8695 7.89089 32.8664 7.80807 32.8473 7.72823C32.6619 6.87518 32.1896 6.11149 31.5091 5.56458C30.8287 5.01768 29.9814 4.72062 29.1084 4.72298ZM14.2063 26.7272C12.9464 25.9208 11.6414 25.187 10.2979 24.5292C8.07585 23.3893 5.97713 22.3125 4.29807 20.5974C3.61208 19.9126 3.07602 19.0926 2.72394 18.1895C2.37186 17.2864 2.21145 16.32 2.25291 15.3516C2.29675 14.4045 2.53713 13.4769 2.95879 12.6277C3.38044 11.7785 3.97414 11.0263 4.70215 10.4189C7.1923 8.30153 10.9339 7.0259 15.8231 6.62745C15.9883 6.61397 16.1414 6.53542 16.2487 6.40906C16.356 6.28271 16.4087 6.11891 16.3952 5.9537C16.3817 5.78849 16.3032 5.63539 16.1768 5.5281C16.0505 5.42081 15.8867 5.3681 15.7215 5.38158C10.566 5.8017 6.58616 7.17606 3.89245 9.46636C3.03317 10.1844 2.33265 11.0733 1.83539 12.0766C1.33813 13.0799 1.05501 14.1757 1.00402 15.2943C0.953945 16.4342 1.14151 17.572 1.55481 18.6355C1.9681 19.699 2.59809 20.6649 3.40474 21.4718C5.22588 23.3322 7.51429 24.5062 9.7273 25.6416C11.0281 26.278 12.2918 26.9877 13.5123 27.7671C16.6255 29.8452 17.5342 33.7477 15.6732 37.0462C15.0359 38.1226 14.2356 39.0938 13.3009 39.9253C13.1794 40.0381 13.1077 40.1945 13.1016 40.3602C13.0954 40.5259 13.1553 40.6872 13.2681 40.8087C13.3829 40.9267 13.5387 40.9959 13.7032 41.002C13.8677 41.0081 14.0283 40.9506 14.1515 40.8415C15.181 39.9227 16.0617 38.8496 16.7619 37.6606C17.8089 35.8556 18.1274 33.719 17.6525 31.6871C17.1775 29.6551 15.9449 27.8811 14.2063 26.7272Z"/>
</mask>
<path d="M29.1191 3.74501C29.2848 3.745 29.4438 3.67914 29.561 3.56192C29.6783 3.4447 29.7441 3.28571 29.7441 3.11994V1.62303C29.7443 1.54083 29.7283 1.4594 29.6969 1.38341C29.6656 1.30741 29.6196 1.23834 29.5615 1.18015C29.5035 1.12196 29.4345 1.07579 29.3586 1.0443C29.2827 1.0128 29.2013 0.996582 29.1191 0.996582C29.0369 0.996582 28.9555 1.0128 28.8795 1.0443C28.8036 1.07579 28.7347 1.12196 28.6766 1.18015C28.6185 1.23834 28.5725 1.30741 28.5412 1.38341C28.5099 1.4594 28.4938 1.54083 28.494 1.62303V3.11994C28.494 3.28571 28.5599 3.44469 28.6771 3.56192C28.7943 3.67914 28.9533 3.745 29.1191 3.74501ZM24.8847 5.33111C24.9921 5.45669 25.1444 5.53522 25.309 5.54989C25.4735 5.56455 25.6373 5.51418 25.7652 5.40956C25.8924 5.30318 25.972 5.15066 25.9868 4.98553C26.0015 4.82041 25.95 4.6562 25.8437 4.52902L24.8646 3.35823C24.7582 3.23107 24.6057 3.15136 24.4405 3.13666C24.2754 3.12195 24.1112 3.17344 23.984 3.2798C23.8569 3.38617 23.7772 3.53869 23.7625 3.70382C23.7478 3.86895 23.7992 4.03316 23.9056 4.16032L24.8847 5.33111ZM33.303 5.33111C33.1956 5.45669 33.0433 5.53522 32.8787 5.54989C32.7142 5.56455 32.5504 5.51418 32.4225 5.40956C32.2954 5.30318 32.2157 5.15066 32.2009 4.98553C32.1862 4.82041 32.2377 4.6562 32.3441 4.52902L33.3232 3.35823C33.4295 3.23107 33.582 3.15136 33.7472 3.13666C33.9123 3.12195 34.0765 3.17344 34.2037 3.2798C34.3308 3.38617 34.4105 3.53869 34.4252 3.70382C34.44 3.86895 34.3885 4.03316 34.2821 4.16032L33.303 5.33111ZM26.5132 3.84062C26.5854 3.98923 26.713 4.10366 26.8685 4.15942C27.024 4.21518 27.1952 4.20784 27.3454 4.13896C27.4953 4.06815 27.6109 3.94071 27.6669 3.78466C27.7228 3.6286 27.7145 3.45672 27.6437 3.3068L27.2555 2.48457C27.2205 2.41034 27.1711 2.34374 27.1103 2.28858C27.0496 2.23341 26.9785 2.19076 26.9012 2.16306C26.824 2.13536 26.742 2.12315 26.66 2.12712C26.578 2.1311 26.4976 2.15119 26.4234 2.18624C26.3491 2.22129 26.2825 2.27061 26.2274 2.3314C26.1722 2.39219 26.1296 2.46325 26.1019 2.54052C26.0742 2.61779 26.062 2.69976 26.0659 2.78175C26.0699 2.86374 26.09 2.94415 26.125 3.01838L26.5132 3.84062ZM22.9026 6.79932L23.6526 7.17916C23.7259 7.21664 23.8058 7.23929 23.8879 7.2458C23.9699 7.25231 24.0524 7.24255 24.1307 7.21709C24.209 7.19163 24.2814 7.15096 24.3439 7.09742C24.4064 7.04387 24.4578 6.97852 24.4949 6.90509C24.5321 6.83167 24.5544 6.75163 24.5606 6.66956C24.5668 6.58749 24.5567 6.50501 24.5309 6.42685C24.5051 6.34869 24.4641 6.2764 24.4103 6.21412C24.3565 6.15184 24.2909 6.10079 24.2174 6.06392L23.4675 5.68409C23.3196 5.60917 23.148 5.59607 22.9905 5.64768C22.8329 5.69928 22.7023 5.81135 22.6274 5.95924C22.5525 6.10713 22.5394 6.27872 22.591 6.43627C22.6426 6.59381 22.7547 6.72441 22.9026 6.79932ZM30.9007 4.13896C31.0508 4.20818 31.2221 4.2157 31.3777 4.15991C31.5334 4.10411 31.6609 3.98946 31.7328 3.84062L32.121 3.01838C32.1918 2.86847 32.2002 2.69658 32.1442 2.54052C32.0883 2.38447 31.9726 2.25703 31.8227 2.18624C31.6728 2.11545 31.5009 2.10712 31.3449 2.16306C31.1888 2.21901 31.0614 2.33466 30.9906 2.48457L30.6024 3.3068C30.5316 3.45672 30.5233 3.6286 30.5792 3.78466C30.6352 3.94071 30.7508 4.06815 30.9007 4.13896ZM33.7534 6.90386C33.83 7.05012 33.9606 7.16072 34.1175 7.21213C34.2744 7.26355 34.4452 7.25172 34.5935 7.17916L35.3435 6.79932C35.4914 6.72441 35.6035 6.59381 35.6551 6.43627C35.7067 6.27872 35.6936 6.10713 35.6187 5.95924C35.5438 5.81135 35.4132 5.69928 35.2556 5.64768C35.0981 5.59607 34.9265 5.60917 34.7786 5.68409L34.0287 6.06392C33.9555 6.10098 33.8902 6.15211 33.8368 6.21438C33.7833 6.27666 33.7426 6.34886 33.717 6.42686C33.6915 6.50486 33.6815 6.58713 33.6878 6.66897C33.694 6.75082 33.7163 6.83063 33.7534 6.90386ZM29.1084 4.72298C28.2352 4.72047 27.3876 5.01742 26.7069 5.56428C26.0262 6.11116 25.5535 6.87488 25.3678 7.72808C25.3487 7.80792 25.3454 7.89075 25.3583 7.97185C25.3711 8.05294 25.3998 8.13071 25.4427 8.20071C25.4856 8.27071 25.5419 8.33156 25.6084 8.3798C25.6748 8.42804 25.7501 8.46271 25.83 8.48184C25.9098 8.50096 25.9927 8.50417 26.0737 8.49127C26.1548 8.47837 26.2326 8.44962 26.3026 8.40666C26.3725 8.3637 26.4334 8.30738 26.4816 8.2409C26.5297 8.17443 26.5644 8.09911 26.5835 8.01925C26.7058 7.44053 27.0233 6.92144 27.4828 6.54894C27.9423 6.17643 28.5158 5.97314 29.1073 5.97313C29.6988 5.97311 30.2724 6.17636 30.7319 6.54884C31.1914 6.92132 31.5089 7.44039 31.6313 8.0191C31.6504 8.09893 31.6851 8.17423 31.7333 8.24068C31.7815 8.30714 31.8423 8.36344 31.9122 8.40639C31.9822 8.44934 32.0599 8.47809 32.141 8.491C32.2221 8.50391 32.3049 8.50072 32.3847 8.48163C32.4646 8.46253 32.5399 8.42789 32.6063 8.37969C32.6728 8.3315 32.7291 8.27068 32.772 8.20072C32.815 8.13076 32.8437 8.05303 32.8566 7.97196C32.8695 7.89089 32.8664 7.80807 32.8473 7.72823C32.6619 6.87518 32.1896 6.11149 31.5091 5.56458C30.8287 5.01768 29.9814 4.72062 29.1084 4.72298ZM14.2063 26.7272C12.9464 25.9208 11.6414 25.187 10.2979 24.5292C8.07585 23.3893 5.97713 22.3125 4.29807 20.5974C3.61208 19.9126 3.07602 19.0926 2.72394 18.1895C2.37186 17.2864 2.21145 16.32 2.25291 15.3516C2.29675 14.4045 2.53713 13.4769 2.95879 12.6277C3.38044 11.7785 3.97414 11.0263 4.70215 10.4189C7.1923 8.30153 10.9339 7.0259 15.8231 6.62745C15.9883 6.61397 16.1414 6.53542 16.2487 6.40906C16.356 6.28271 16.4087 6.11891 16.3952 5.9537C16.3817 5.78849 16.3032 5.63539 16.1768 5.5281C16.0505 5.42081 15.8867 5.3681 15.7215 5.38158C10.566 5.8017 6.58616 7.17606 3.89245 9.46636C3.03317 10.1844 2.33265 11.0733 1.83539 12.0766C1.33813 13.0799 1.05501 14.1757 1.00402 15.2943C0.953945 16.4342 1.14151 17.572 1.55481 18.6355C1.9681 19.699 2.59809 20.6649 3.40474 21.4718C5.22588 23.3322 7.51429 24.5062 9.7273 25.6416C11.0281 26.278 12.2918 26.9877 13.5123 27.7671C16.6255 29.8452 17.5342 33.7477 15.6732 37.0462C15.0359 38.1226 14.2356 39.0938 13.3009 39.9253C13.1794 40.0381 13.1077 40.1945 13.1016 40.3602C13.0954 40.5259 13.1553 40.6872 13.2681 40.8087C13.3829 40.9267 13.5387 40.9959 13.7032 41.002C13.8677 41.0081 14.0283 40.9506 14.1515 40.8415C15.181 39.9227 16.0617 38.8496 16.7619 37.6606C17.8089 35.8556 18.1274 33.719 17.6525 31.6871C17.1775 29.6551 15.9449 27.8811 14.2063 26.7272Z" fill="white"/>
<path d="M29.1191 3.74501C29.2848 3.745 29.4438 3.67914 29.561 3.56192C29.6783 3.4447 29.7441 3.28571 29.7441 3.11994V1.62303C29.7443 1.54083 29.7283 1.4594 29.6969 1.38341C29.6656 1.30741 29.6196 1.23834 29.5615 1.18015C29.5035 1.12196 29.4345 1.07579 29.3586 1.0443C29.2827 1.0128 29.2013 0.996582 29.1191 0.996582C29.0369 0.996582 28.9555 1.0128 28.8795 1.0443C28.8036 1.07579 28.7347 1.12196 28.6766 1.18015C28.6185 1.23834 28.5725 1.30741 28.5412 1.38341C28.5099 1.4594 28.4938 1.54083 28.494 1.62303V3.11994C28.494 3.28571 28.5599 3.44469 28.6771 3.56192C28.7943 3.67914 28.9533 3.745 29.1191 3.74501ZM24.8847 5.33111C24.9921 5.45669 25.1444 5.53522 25.309 5.54989C25.4735 5.56455 25.6373 5.51418 25.7652 5.40956C25.8924 5.30318 25.972 5.15066 25.9868 4.98553C26.0015 4.82041 25.95 4.6562 25.8437 4.52902L24.8646 3.35823C24.7582 3.23107 24.6057 3.15136 24.4405 3.13666C24.2754 3.12195 24.1112 3.17344 23.984 3.2798C23.8569 3.38617 23.7772 3.53869 23.7625 3.70382C23.7478 3.86895 23.7992 4.03316 23.9056 4.16032L24.8847 5.33111ZM33.303 5.33111C33.1956 5.45669 33.0433 5.53522 32.8787 5.54989C32.7142 5.56455 32.5504 5.51418 32.4225 5.40956C32.2954 5.30318 32.2157 5.15066 32.2009 4.98553C32.1862 4.82041 32.2377 4.6562 32.3441 4.52902L33.3232 3.35823C33.4295 3.23107 33.582 3.15136 33.7472 3.13666C33.9123 3.12195 34.0765 3.17344 34.2037 3.2798C34.3308 3.38617 34.4105 3.53869 34.4252 3.70382C34.44 3.86895 34.3885 4.03316 34.2821 4.16032L33.303 5.33111ZM26.5132 3.84062C26.5854 3.98923 26.713 4.10366 26.8685 4.15942C27.024 4.21518 27.1952 4.20784 27.3454 4.13896C27.4953 4.06815 27.6109 3.94071 27.6669 3.78466C27.7228 3.6286 27.7145 3.45672 27.6437 3.3068L27.2555 2.48457C27.2205 2.41034 27.1711 2.34374 27.1103 2.28858C27.0496 2.23341 26.9785 2.19076 26.9012 2.16306C26.824 2.13536 26.742 2.12315 26.66 2.12712C26.578 2.1311 26.4976 2.15119 26.4234 2.18624C26.3491 2.22129 26.2825 2.27061 26.2274 2.3314C26.1722 2.39219 26.1296 2.46325 26.1019 2.54052C26.0742 2.61779 26.062 2.69976 26.0659 2.78175C26.0699 2.86374 26.09 2.94415 26.125 3.01838L26.5132 3.84062ZM22.9026 6.79932L23.6526 7.17916C23.7259 7.21664 23.8058 7.23929 23.8879 7.2458C23.9699 7.25231 24.0524 7.24255 24.1307 7.21709C24.209 7.19163 24.2814 7.15096 24.3439 7.09742C24.4064 7.04387 24.4578 6.97852 24.4949 6.90509C24.5321 6.83167 24.5544 6.75163 24.5606 6.66956C24.5668 6.58749 24.5567 6.50501 24.5309 6.42685C24.5051 6.34869 24.4641 6.2764 24.4103 6.21412C24.3565 6.15184 24.2909 6.10079 24.2174 6.06392L23.4675 5.68409C23.3196 5.60917 23.148 5.59607 22.9905 5.64768C22.8329 5.69928 22.7023 5.81135 22.6274 5.95924C22.5525 6.10713 22.5394 6.27872 22.591 6.43627C22.6426 6.59381 22.7547 6.72441 22.9026 6.79932ZM30.9007 4.13896C31.0508 4.20818 31.2221 4.2157 31.3777 4.15991C31.5334 4.10411 31.6609 3.98946 31.7328 3.84062L32.121 3.01838C32.1918 2.86847 32.2002 2.69658 32.1442 2.54052C32.0883 2.38447 31.9726 2.25703 31.8227 2.18624C31.6728 2.11545 31.5009 2.10712 31.3449 2.16306C31.1888 2.21901 31.0614 2.33466 30.9906 2.48457L30.6024 3.3068C30.5316 3.45672 30.5233 3.6286 30.5792 3.78466C30.6352 3.94071 30.7508 4.06815 30.9007 4.13896ZM33.7534 6.90386C33.83 7.05012 33.9606 7.16072 34.1175 7.21213C34.2744 7.26355 34.4452 7.25172 34.5935 7.17916L35.3435 6.79932C35.4914 6.72441 35.6035 6.59381 35.6551 6.43627C35.7067 6.27872 35.6936 6.10713 35.6187 5.95924C35.5438 5.81135 35.4132 5.69928 35.2556 5.64768C35.0981 5.59607 34.9265 5.60917 34.7786 5.68409L34.0287 6.06392C33.9555 6.10098 33.8902 6.15211 33.8368 6.21438C33.7833 6.27666 33.7426 6.34886 33.717 6.42686C33.6915 6.50486 33.6815 6.58713 33.6878 6.66897C33.694 6.75082 33.7163 6.83063 33.7534 6.90386ZM29.1084 4.72298C28.2352 4.72047 27.3876 5.01742 26.7069 5.56428C26.0262 6.11116 25.5535 6.87488 25.3678 7.72808C25.3487 7.80792 25.3454 7.89075 25.3583 7.97185C25.3711 8.05294 25.3998 8.13071 25.4427 8.20071C25.4856 8.27071 25.5419 8.33156 25.6084 8.3798C25.6748 8.42804 25.7501 8.46271 25.83 8.48184C25.9098 8.50096 25.9927 8.50417 26.0737 8.49127C26.1548 8.47837 26.2326 8.44962 26.3026 8.40666C26.3725 8.3637 26.4334 8.30738 26.4816 8.2409C26.5297 8.17443 26.5644 8.09911 26.5835 8.01925C26.7058 7.44053 27.0233 6.92144 27.4828 6.54894C27.9423 6.17643 28.5158 5.97314 29.1073 5.97313C29.6988 5.97311 30.2724 6.17636 30.7319 6.54884C31.1914 6.92132 31.5089 7.44039 31.6313 8.0191C31.6504 8.09893 31.6851 8.17423 31.7333 8.24068C31.7815 8.30714 31.8423 8.36344 31.9122 8.40639C31.9822 8.44934 32.0599 8.47809 32.141 8.491C32.2221 8.50391 32.3049 8.50072 32.3847 8.48163C32.4646 8.46253 32.5399 8.42789 32.6063 8.37969C32.6728 8.3315 32.7291 8.27068 32.772 8.20072C32.815 8.13076 32.8437 8.05303 32.8566 7.97196C32.8695 7.89089 32.8664 7.80807 32.8473 7.72823C32.6619 6.87518 32.1896 6.11149 31.5091 5.56458C30.8287 5.01768 29.9814 4.72062 29.1084 4.72298ZM14.2063 26.7272C12.9464 25.9208 11.6414 25.187 10.2979 24.5292C8.07585 23.3893 5.97713 22.3125 4.29807 20.5974C3.61208 19.9126 3.07602 19.0926 2.72394 18.1895C2.37186 17.2864 2.21145 16.32 2.25291 15.3516C2.29675 14.4045 2.53713 13.4769 2.95879 12.6277C3.38044 11.7785 3.97414 11.0263 4.70215 10.4189C7.1923 8.30153 10.9339 7.0259 15.8231 6.62745C15.9883 6.61397 16.1414 6.53542 16.2487 6.40906C16.356 6.28271 16.4087 6.11891 16.3952 5.9537C16.3817 5.78849 16.3032 5.63539 16.1768 5.5281C16.0505 5.42081 15.8867 5.3681 15.7215 5.38158C10.566 5.8017 6.58616 7.17606 3.89245 9.46636C3.03317 10.1844 2.33265 11.0733 1.83539 12.0766C1.33813 13.0799 1.05501 14.1757 1.00402 15.2943C0.953945 16.4342 1.14151 17.572 1.55481 18.6355C1.9681 19.699 2.59809 20.6649 3.40474 21.4718C5.22588 23.3322 7.51429 24.5062 9.7273 25.6416C11.0281 26.278 12.2918 26.9877 13.5123 27.7671C16.6255 29.8452 17.5342 33.7477 15.6732 37.0462C15.0359 38.1226 14.2356 39.0938 13.3009 39.9253C13.1794 40.0381 13.1077 40.1945 13.1016 40.3602C13.0954 40.5259 13.1553 40.6872 13.2681 40.8087C13.3829 40.9267 13.5387 40.9959 13.7032 41.002C13.8677 41.0081 14.0283 40.9506 14.1515 40.8415C15.181 39.9227 16.0617 38.8496 16.7619 37.6606C17.8089 35.8556 18.1274 33.719 17.6525 31.6871C17.1775 29.6551 15.9449 27.8811 14.2063 26.7272Z" stroke="white" stroke-width="0.4" mask="url(#path-1-outside-1_13_35362)"/>
</g>
<g id="Vector_2">
<mask id="path-2-outside-2_13_35362" maskUnits="userSpaceOnUse" x="5.01758" y="6.68054" width="37" height="35" fill="black">
<rect fill="white" x="5.01758" y="6.68054" width="37" height="35"/>
<path d="M35.9985 26.1868V24.2867C36.9112 23.9509 37.5612 22.8943 37.5612 21.6068C37.5612 20.0404 36.6003 18.8135 35.3735 18.8135C34.1467 18.8135 33.1858 20.0404 33.1858 21.6068C33.1858 22.8943 33.8358 23.9509 34.7484 24.2867V25.371C33.0585 24.3976 31.2705 23.6055 29.4141 23.0077V21.5836C30.1067 21.4752 30.739 21.1264 31.2 20.5984C31.6611 20.0703 31.9216 19.3968 31.9357 18.696C31.9344 18.3223 31.8594 17.9525 31.7151 17.6078C31.5708 17.2631 31.3599 16.9502 31.0946 16.6871C31.0997 16.6219 31.1023 16.5566 31.1023 16.491C31.1121 16.1839 31.06 15.8779 30.9493 15.5914C30.8385 15.3048 30.6712 15.0433 30.4574 14.8227C30.2436 14.602 29.9877 14.4265 29.7048 14.3066C29.4218 14.1868 29.1177 14.1251 28.8104 14.1251C28.5032 14.1251 28.199 14.1868 27.9161 14.3066C27.6332 14.4265 27.3772 14.602 27.1634 14.8227C26.9496 15.0433 26.7824 15.3048 26.6716 15.5914C26.5608 15.8779 26.5088 16.1839 26.5185 16.491C26.5185 16.5565 26.5211 16.6218 26.5263 16.6871C26.261 16.9502 26.0501 17.2631 25.9058 17.6078C25.7615 17.9525 25.6865 18.3223 25.6852 18.696C25.7006 19.3888 25.9562 20.0547 26.4084 20.5799C26.8606 21.105 27.4812 21.4568 28.164 21.5749V22.6086C26.2823 22.0365 24.3698 21.5753 22.5599 21.157V19.9301C23.4726 19.592 24.1225 18.528 24.1225 17.2313C24.1225 15.654 23.1616 14.4185 21.9348 14.4185C20.7081 14.4185 19.7472 15.654 19.7472 17.2313C19.7472 18.528 20.3971 19.592 21.3098 19.9301V20.8696C19.9472 20.5573 18.6566 20.2594 17.4853 19.944C13.7553 18.9394 11.8421 17.4289 11.6366 15.3259C11.3543 12.4369 15.1462 10.8797 16.7897 10.3444C16.9474 10.293 17.0782 10.1811 17.1533 10.0333C17.2285 9.88554 17.2419 9.71395 17.1905 9.55631C17.1391 9.39866 17.0273 9.26788 16.8795 9.19272C16.7317 9.11757 16.5601 9.1042 16.4024 9.15556C12.3222 10.4849 10.1315 12.7783 10.3923 15.4473C10.6544 18.1295 12.8684 19.9953 17.1603 21.1511C18.416 21.4893 19.7897 21.8039 21.244 22.1372C30.1529 24.1783 41.2401 26.7184 39.579 37.9145C39.4625 38.6827 39.2723 39.438 39.0112 40.1698C38.9838 40.2472 38.9719 40.3292 38.9762 40.4112C38.9805 40.4931 39.0009 40.5735 39.0362 40.6476C39.0716 40.7216 39.1212 40.788 39.1822 40.843C39.2432 40.8979 39.3144 40.9402 39.3918 40.9676C39.5481 41.0212 39.7192 41.0114 39.8684 40.9402C40.0176 40.8691 40.1329 40.7423 40.1896 40.587C40.4776 39.7793 40.6872 38.9458 40.8157 38.0979C41.6674 32.3566 39.4793 28.6818 35.9985 26.1868ZM35.3735 20.0636C35.8169 20.0636 36.3111 20.6974 36.3111 21.6068C36.3111 22.5162 35.817 23.1498 35.3735 23.1498C34.93 23.1498 34.4359 22.5162 34.4359 21.6068C34.4359 20.6974 34.93 20.0636 35.3735 20.0636ZM26.9353 18.696C26.9386 18.4478 26.9986 18.2037 27.1106 17.9822C27.2227 17.7608 27.3839 17.5679 27.582 17.4182C27.6983 17.3232 27.7764 17.1894 27.8019 17.0415C27.8076 16.8573 27.7965 16.6731 27.7686 16.491C27.7589 16.3482 27.7786 16.2049 27.8265 16.0701C27.8745 15.9352 27.9496 15.8117 28.0473 15.7071C28.145 15.6025 28.2632 15.5191 28.3944 15.4621C28.5257 15.405 28.6673 15.3756 28.8104 15.3756C28.9536 15.3756 29.0951 15.405 29.2264 15.4621C29.3577 15.5191 29.4759 15.6025 29.5736 15.7071C29.6713 15.8117 29.7464 15.9352 29.7943 16.0701C29.8423 16.2049 29.862 16.3482 29.8522 16.491C29.8522 16.836 29.7062 17.1574 30.0389 17.4182C30.2369 17.5678 30.3982 17.7607 30.5103 17.9822C30.6223 18.2036 30.6823 18.4478 30.6856 18.696C30.6742 19.0641 30.5443 19.4188 30.3153 19.7072C30.0862 19.9957 29.7701 20.2025 29.4141 20.2969V18.3958C29.4143 18.3136 29.3983 18.2322 29.3669 18.1562C29.3356 18.0802 29.2896 18.0111 29.2315 17.9529C29.1735 17.8947 29.1045 17.8486 29.0286 17.8171C28.9527 17.7856 28.8713 17.7694 28.7891 17.7694C28.7069 17.7694 28.6255 17.7856 28.5495 17.8171C28.4736 17.8486 28.4046 17.8947 28.3466 17.9529C28.2885 18.0111 28.2425 18.0802 28.2112 18.1562C28.1799 18.2322 28.1638 18.3136 28.164 18.3958V20.2808C27.8184 20.1797 27.5136 19.972 27.2929 19.6874C27.0723 19.4029 26.9471 19.0559 26.9353 18.696ZM21.9348 15.6686C22.3783 15.6686 22.8724 16.3103 22.8724 17.2313C22.8724 18.1523 22.3783 18.794 21.9348 18.794C21.4914 18.794 20.9973 18.1523 20.9973 17.2313C20.9973 16.3103 21.4914 15.6686 21.9348 15.6686ZM7.06052 18.7213C7.14349 18.8641 7.27911 18.9688 7.43833 19.0129C7.59754 19.057 7.76769 19.037 7.91234 18.9572C7.98377 18.9168 8.04653 18.8626 8.09705 18.798C8.14756 18.7333 8.18484 18.6592 8.20674 18.5801C8.22865 18.501 8.23476 18.4184 8.22473 18.3369C8.21469 18.2555 8.18871 18.1768 8.14826 18.1054C8.14826 18.1054 8.0361 17.9007 8.0097 17.8497C7.97184 17.7768 7.91997 17.7121 7.85706 17.6592C7.79414 17.6063 7.72143 17.5664 7.64306 17.5416C7.5647 17.5169 7.48223 17.5078 7.40036 17.515C7.3185 17.5222 7.23885 17.5454 7.16598 17.5834C7.0931 17.6213 7.02843 17.6733 6.97565 17.7363C6.92288 17.7993 6.88305 17.8721 6.85843 17.9505C6.83381 18.0289 6.82489 18.1114 6.83217 18.1932C6.83946 18.2751 6.86282 18.3547 6.9009 18.4275C6.93127 18.4855 7.0605 18.7212 7.06052 18.7213ZM6.01979 15.5173C6.0294 15.6315 6.04217 15.746 6.05809 15.861C6.06929 15.9423 6.0964 16.0206 6.13787 16.0915C6.17934 16.1623 6.23436 16.2243 6.29979 16.2739C6.36521 16.3235 6.43976 16.3597 6.51918 16.3804C6.5986 16.4012 6.68133 16.4061 6.76265 16.3949C6.84397 16.3837 6.92229 16.3566 6.99314 16.3152C7.06398 16.2737 7.12596 16.2187 7.17554 16.1532C7.22513 16.0878 7.26134 16.0133 7.28211 15.9339C7.30288 15.8544 7.3078 15.7717 7.2966 15.6904C7.28378 15.5973 7.27346 15.5046 7.26562 15.4123C7.25873 15.3305 7.23579 15.2509 7.19811 15.178C7.16044 15.105 7.10877 15.0402 7.04605 14.9872C6.98333 14.9343 6.9108 14.8942 6.83258 14.8692C6.75437 14.8443 6.67201 14.835 6.59021 14.8419C6.5084 14.8488 6.42876 14.8717 6.35582 14.9094C6.28289 14.9471 6.21808 14.9988 6.16511 15.0615C6.11215 15.1242 6.07205 15.1967 6.04711 15.275C6.02218 15.3532 6.01289 15.4355 6.01979 15.5173ZM6.97229 13.6313C7.09905 13.6298 7.22248 13.5906 7.3268 13.5186C7.43111 13.4465 7.51156 13.345 7.55785 13.227C7.5902 13.1405 7.625 13.055 7.66224 12.9705C7.69594 12.8953 7.71443 12.8141 7.71665 12.7317C7.71886 12.6493 7.70475 12.5673 7.67514 12.4904C7.64552 12.4134 7.60098 12.3431 7.54408 12.2835C7.48719 12.2238 7.41905 12.176 7.3436 12.1428C7.26816 12.1096 7.18689 12.0917 7.10447 12.09C7.02206 12.0883 6.94012 12.103 6.86339 12.1331C6.78666 12.1632 6.71665 12.2082 6.65738 12.2655C6.59811 12.3228 6.55075 12.3912 6.51805 12.4669C6.47135 12.5731 6.42771 12.6805 6.38712 12.789C6.3542 12.8835 6.34411 12.9844 6.35766 13.0835C6.37122 13.1826 6.40804 13.2771 6.46512 13.3593C6.52219 13.4414 6.5979 13.5089 6.68605 13.5562C6.7742 13.6034 6.87229 13.6292 6.97229 13.6313ZM13.7469 7.69616L13.4394 7.76682C13.29 7.80155 13.1585 7.89001 13.0701 8.01537C12.9817 8.14073 12.9424 8.29422 12.9598 8.44664C12.9772 8.59906 13.05 8.73977 13.1644 8.84197C13.2788 8.94418 13.4268 9.00076 13.5802 9.00093C13.7311 8.98872 13.8801 8.95996 14.0246 8.91517C14.1047 8.89693 14.1803 8.86311 14.2473 8.81563C14.3143 8.76815 14.3712 8.70795 14.4149 8.63846C14.4586 8.56896 14.4882 8.49154 14.502 8.41062C14.5158 8.32969 14.5135 8.24684 14.4953 8.1668C14.477 8.08676 14.4432 8.01109 14.3957 7.94412C14.3482 7.87715 14.288 7.82019 14.2185 7.77649C14.149 7.73278 14.0716 7.7032 13.9907 7.68941C13.9098 7.67563 13.8269 7.67793 13.7469 7.69616ZM10.9462 8.48238C10.8423 8.52359 10.7398 8.56627 10.6389 8.61042C10.5072 8.66782 10.3993 8.76884 10.3333 8.89646C10.2673 9.02409 10.2473 9.17054 10.2767 9.31118C10.306 9.45181 10.3829 9.57806 10.4944 9.66866C10.6059 9.75927 10.7452 9.80872 10.8888 9.80868C11.0707 9.78689 11.2468 9.73103 11.408 9.64402C11.4842 9.6137 11.5538 9.56865 11.6127 9.51145C11.6715 9.45425 11.7186 9.38601 11.751 9.31064C11.7835 9.23527 11.8009 9.15423 11.802 9.07216C11.8032 8.99009 11.7882 8.90859 11.7579 8.83232C11.7276 8.75604 11.6825 8.68649 11.6253 8.62762C11.5681 8.56876 11.4999 8.52174 11.4245 8.48924C11.3492 8.45675 11.2681 8.43942 11.186 8.43824C11.104 8.43707 11.0225 8.45206 10.9462 8.48238ZM8.96575 11.1579C9.03488 11.093 9.10573 11.0294 9.17832 10.9669C9.30356 10.8586 9.3807 10.7051 9.39283 10.5399C9.40496 10.3748 9.35107 10.2116 9.243 10.0862C9.13493 9.96076 8.9815 9.88333 8.8164 9.87089C8.6513 9.85846 8.488 9.91204 8.36237 10.0199C8.27615 10.0941 8.19201 10.1697 8.10996 10.2468C8.05013 10.303 8.00195 10.3704 7.96818 10.4452C7.93441 10.52 7.91571 10.6008 7.91314 10.6828C7.91058 10.7648 7.9242 10.8466 7.95323 10.9233C7.98226 11.0001 8.02614 11.0704 8.08234 11.1302C8.19676 11.2494 8.35329 11.319 8.51841 11.3242C8.68353 11.3293 8.8441 11.2696 8.96575 11.1579Z"/>
</mask>
<path d="M35.9985 26.1868V24.2867C36.9112 23.9509 37.5612 22.8943 37.5612 21.6068C37.5612 20.0404 36.6003 18.8135 35.3735 18.8135C34.1467 18.8135 33.1858 20.0404 33.1858 21.6068C33.1858 22.8943 33.8358 23.9509 34.7484 24.2867V25.371C33.0585 24.3976 31.2705 23.6055 29.4141 23.0077V21.5836C30.1067 21.4752 30.739 21.1264 31.2 20.5984C31.6611 20.0703 31.9216 19.3968 31.9357 18.696C31.9344 18.3223 31.8594 17.9525 31.7151 17.6078C31.5708 17.2631 31.3599 16.9502 31.0946 16.6871C31.0997 16.6219 31.1023 16.5566 31.1023 16.491C31.1121 16.1839 31.06 15.8779 30.9493 15.5914C30.8385 15.3048 30.6712 15.0433 30.4574 14.8227C30.2436 14.602 29.9877 14.4265 29.7048 14.3066C29.4218 14.1868 29.1177 14.1251 28.8104 14.1251C28.5032 14.1251 28.199 14.1868 27.9161 14.3066C27.6332 14.4265 27.3772 14.602 27.1634 14.8227C26.9496 15.0433 26.7824 15.3048 26.6716 15.5914C26.5608 15.8779 26.5088 16.1839 26.5185 16.491C26.5185 16.5565 26.5211 16.6218 26.5263 16.6871C26.261 16.9502 26.0501 17.2631 25.9058 17.6078C25.7615 17.9525 25.6865 18.3223 25.6852 18.696C25.7006 19.3888 25.9562 20.0547 26.4084 20.5799C26.8606 21.105 27.4812 21.4568 28.164 21.5749V22.6086C26.2823 22.0365 24.3698 21.5753 22.5599 21.157V19.9301C23.4726 19.592 24.1225 18.528 24.1225 17.2313C24.1225 15.654 23.1616 14.4185 21.9348 14.4185C20.7081 14.4185 19.7472 15.654 19.7472 17.2313C19.7472 18.528 20.3971 19.592 21.3098 19.9301V20.8696C19.9472 20.5573 18.6566 20.2594 17.4853 19.944C13.7553 18.9394 11.8421 17.4289 11.6366 15.3259C11.3543 12.4369 15.1462 10.8797 16.7897 10.3444C16.9474 10.293 17.0782 10.1811 17.1533 10.0333C17.2285 9.88554 17.2419 9.71395 17.1905 9.55631C17.1391 9.39866 17.0273 9.26788 16.8795 9.19272C16.7317 9.11757 16.5601 9.1042 16.4024 9.15556C12.3222 10.4849 10.1315 12.7783 10.3923 15.4473C10.6544 18.1295 12.8684 19.9953 17.1603 21.1511C18.416 21.4893 19.7897 21.8039 21.244 22.1372C30.1529 24.1783 41.2401 26.7184 39.579 37.9145C39.4625 38.6827 39.2723 39.438 39.0112 40.1698C38.9838 40.2472 38.9719 40.3292 38.9762 40.4112C38.9805 40.4931 39.0009 40.5735 39.0362 40.6476C39.0716 40.7216 39.1212 40.788 39.1822 40.843C39.2432 40.8979 39.3144 40.9402 39.3918 40.9676C39.5481 41.0212 39.7192 41.0114 39.8684 40.9402C40.0176 40.8691 40.1329 40.7423 40.1896 40.587C40.4776 39.7793 40.6872 38.9458 40.8157 38.0979C41.6674 32.3566 39.4793 28.6818 35.9985 26.1868ZM35.3735 20.0636C35.8169 20.0636 36.3111 20.6974 36.3111 21.6068C36.3111 22.5162 35.817 23.1498 35.3735 23.1498C34.93 23.1498 34.4359 22.5162 34.4359 21.6068C34.4359 20.6974 34.93 20.0636 35.3735 20.0636ZM26.9353 18.696C26.9386 18.4478 26.9986 18.2037 27.1106 17.9822C27.2227 17.7608 27.3839 17.5679 27.582 17.4182C27.6983 17.3232 27.7764 17.1894 27.8019 17.0415C27.8076 16.8573 27.7965 16.6731 27.7686 16.491C27.7589 16.3482 27.7786 16.2049 27.8265 16.0701C27.8745 15.9352 27.9496 15.8117 28.0473 15.7071C28.145 15.6025 28.2632 15.5191 28.3944 15.4621C28.5257 15.405 28.6673 15.3756 28.8104 15.3756C28.9536 15.3756 29.0951 15.405 29.2264 15.4621C29.3577 15.5191 29.4759 15.6025 29.5736 15.7071C29.6713 15.8117 29.7464 15.9352 29.7943 16.0701C29.8423 16.2049 29.862 16.3482 29.8522 16.491C29.8522 16.836 29.7062 17.1574 30.0389 17.4182C30.2369 17.5678 30.3982 17.7607 30.5103 17.9822C30.6223 18.2036 30.6823 18.4478 30.6856 18.696C30.6742 19.0641 30.5443 19.4188 30.3153 19.7072C30.0862 19.9957 29.7701 20.2025 29.4141 20.2969V18.3958C29.4143 18.3136 29.3983 18.2322 29.3669 18.1562C29.3356 18.0802 29.2896 18.0111 29.2315 17.9529C29.1735 17.8947 29.1045 17.8486 29.0286 17.8171C28.9527 17.7856 28.8713 17.7694 28.7891 17.7694C28.7069 17.7694 28.6255 17.7856 28.5495 17.8171C28.4736 17.8486 28.4046 17.8947 28.3466 17.9529C28.2885 18.0111 28.2425 18.0802 28.2112 18.1562C28.1799 18.2322 28.1638 18.3136 28.164 18.3958V20.2808C27.8184 20.1797 27.5136 19.972 27.2929 19.6874C27.0723 19.4029 26.9471 19.0559 26.9353 18.696ZM21.9348 15.6686C22.3783 15.6686 22.8724 16.3103 22.8724 17.2313C22.8724 18.1523 22.3783 18.794 21.9348 18.794C21.4914 18.794 20.9973 18.1523 20.9973 17.2313C20.9973 16.3103 21.4914 15.6686 21.9348 15.6686ZM7.06052 18.7213C7.14349 18.8641 7.27911 18.9688 7.43833 19.0129C7.59754 19.057 7.76769 19.037 7.91234 18.9572C7.98377 18.9168 8.04653 18.8626 8.09705 18.798C8.14756 18.7333 8.18484 18.6592 8.20674 18.5801C8.22865 18.501 8.23476 18.4184 8.22473 18.3369C8.21469 18.2555 8.18871 18.1768 8.14826 18.1054C8.14826 18.1054 8.0361 17.9007 8.0097 17.8497C7.97184 17.7768 7.91997 17.7121 7.85706 17.6592C7.79414 17.6063 7.72143 17.5664 7.64306 17.5416C7.5647 17.5169 7.48223 17.5078 7.40036 17.515C7.3185 17.5222 7.23885 17.5454 7.16598 17.5834C7.0931 17.6213 7.02843 17.6733 6.97565 17.7363C6.92288 17.7993 6.88305 17.8721 6.85843 17.9505C6.83381 18.0289 6.82489 18.1114 6.83217 18.1932C6.83946 18.2751 6.86282 18.3547 6.9009 18.4275C6.93127 18.4855 7.0605 18.7212 7.06052 18.7213ZM6.01979 15.5173C6.0294 15.6315 6.04217 15.746 6.05809 15.861C6.06929 15.9423 6.0964 16.0206 6.13787 16.0915C6.17934 16.1623 6.23436 16.2243 6.29979 16.2739C6.36521 16.3235 6.43976 16.3597 6.51918 16.3804C6.5986 16.4012 6.68133 16.4061 6.76265 16.3949C6.84397 16.3837 6.92229 16.3566 6.99314 16.3152C7.06398 16.2737 7.12596 16.2187 7.17554 16.1532C7.22513 16.0878 7.26134 16.0133 7.28211 15.9339C7.30288 15.8544 7.3078 15.7717 7.2966 15.6904C7.28378 15.5973 7.27346 15.5046 7.26562 15.4123C7.25873 15.3305 7.23579 15.2509 7.19811 15.178C7.16044 15.105 7.10877 15.0402 7.04605 14.9872C6.98333 14.9343 6.9108 14.8942 6.83258 14.8692C6.75437 14.8443 6.67201 14.835 6.59021 14.8419C6.5084 14.8488 6.42876 14.8717 6.35582 14.9094C6.28289 14.9471 6.21808 14.9988 6.16511 15.0615C6.11215 15.1242 6.07205 15.1967 6.04711 15.275C6.02218 15.3532 6.01289 15.4355 6.01979 15.5173ZM6.97229 13.6313C7.09905 13.6298 7.22248 13.5906 7.3268 13.5186C7.43111 13.4465 7.51156 13.345 7.55785 13.227C7.5902 13.1405 7.625 13.055 7.66224 12.9705C7.69594 12.8953 7.71443 12.8141 7.71665 12.7317C7.71886 12.6493 7.70475 12.5673 7.67514 12.4904C7.64552 12.4134 7.60098 12.3431 7.54408 12.2835C7.48719 12.2238 7.41905 12.176 7.3436 12.1428C7.26816 12.1096 7.18689 12.0917 7.10447 12.09C7.02206 12.0883 6.94012 12.103 6.86339 12.1331C6.78666 12.1632 6.71665 12.2082 6.65738 12.2655C6.59811 12.3228 6.55075 12.3912 6.51805 12.4669C6.47135 12.5731 6.42771 12.6805 6.38712 12.789C6.3542 12.8835 6.34411 12.9844 6.35766 13.0835C6.37122 13.1826 6.40804 13.2771 6.46512 13.3593C6.52219 13.4414 6.5979 13.5089 6.68605 13.5562C6.7742 13.6034 6.87229 13.6292 6.97229 13.6313ZM13.7469 7.69616L13.4394 7.76682C13.29 7.80155 13.1585 7.89001 13.0701 8.01537C12.9817 8.14073 12.9424 8.29422 12.9598 8.44664C12.9772 8.59906 13.05 8.73977 13.1644 8.84197C13.2788 8.94418 13.4268 9.00076 13.5802 9.00093C13.7311 8.98872 13.8801 8.95996 14.0246 8.91517C14.1047 8.89693 14.1803 8.86311 14.2473 8.81563C14.3143 8.76815 14.3712 8.70795 14.4149 8.63846C14.4586 8.56896 14.4882 8.49154 14.502 8.41062C14.5158 8.32969 14.5135 8.24684 14.4953 8.1668C14.477 8.08676 14.4432 8.01109 14.3957 7.94412C14.3482 7.87715 14.288 7.82019 14.2185 7.77649C14.149 7.73278 14.0716 7.7032 13.9907 7.68941C13.9098 7.67563 13.8269 7.67793 13.7469 7.69616ZM10.9462 8.48238C10.8423 8.52359 10.7398 8.56627 10.6389 8.61042C10.5072 8.66782 10.3993 8.76884 10.3333 8.89646C10.2673 9.02409 10.2473 9.17054 10.2767 9.31118C10.306 9.45181 10.3829 9.57806 10.4944 9.66866C10.6059 9.75927 10.7452 9.80872 10.8888 9.80868C11.0707 9.78689 11.2468 9.73103 11.408 9.64402C11.4842 9.6137 11.5538 9.56865 11.6127 9.51145C11.6715 9.45425 11.7186 9.38601 11.751 9.31064C11.7835 9.23527 11.8009 9.15423 11.802 9.07216C11.8032 8.99009 11.7882 8.90859 11.7579 8.83232C11.7276 8.75604 11.6825 8.68649 11.6253 8.62762C11.5681 8.56876 11.4999 8.52174 11.4245 8.48924C11.3492 8.45675 11.2681 8.43942 11.186 8.43824C11.104 8.43707 11.0225 8.45206 10.9462 8.48238ZM8.96575 11.1579C9.03488 11.093 9.10573 11.0294 9.17832 10.9669C9.30356 10.8586 9.3807 10.7051 9.39283 10.5399C9.40496 10.3748 9.35107 10.2116 9.243 10.0862C9.13493 9.96076 8.9815 9.88333 8.8164 9.87089C8.6513 9.85846 8.488 9.91204 8.36237 10.0199C8.27615 10.0941 8.19201 10.1697 8.10996 10.2468C8.05013 10.303 8.00195 10.3704 7.96818 10.4452C7.93441 10.52 7.91571 10.6008 7.91314 10.6828C7.91058 10.7648 7.9242 10.8466 7.95323 10.9233C7.98226 11.0001 8.02614 11.0704 8.08234 11.1302C8.19676 11.2494 8.35329 11.319 8.51841 11.3242C8.68353 11.3293 8.8441 11.2696 8.96575 11.1579Z" fill="white"/>
<path d="M35.9985 26.1868V24.2867C36.9112 23.9509 37.5612 22.8943 37.5612 21.6068C37.5612 20.0404 36.6003 18.8135 35.3735 18.8135C34.1467 18.8135 33.1858 20.0404 33.1858 21.6068C33.1858 22.8943 33.8358 23.9509 34.7484 24.2867V25.371C33.0585 24.3976 31.2705 23.6055 29.4141 23.0077V21.5836C30.1067 21.4752 30.739 21.1264 31.2 20.5984C31.6611 20.0703 31.9216 19.3968 31.9357 18.696C31.9344 18.3223 31.8594 17.9525 31.7151 17.6078C31.5708 17.2631 31.3599 16.9502 31.0946 16.6871C31.0997 16.6219 31.1023 16.5566 31.1023 16.491C31.1121 16.1839 31.06 15.8779 30.9493 15.5914C30.8385 15.3048 30.6712 15.0433 30.4574 14.8227C30.2436 14.602 29.9877 14.4265 29.7048 14.3066C29.4218 14.1868 29.1177 14.1251 28.8104 14.1251C28.5032 14.1251 28.199 14.1868 27.9161 14.3066C27.6332 14.4265 27.3772 14.602 27.1634 14.8227C26.9496 15.0433 26.7824 15.3048 26.6716 15.5914C26.5608 15.8779 26.5088 16.1839 26.5185 16.491C26.5185 16.5565 26.5211 16.6218 26.5263 16.6871C26.261 16.9502 26.0501 17.2631 25.9058 17.6078C25.7615 17.9525 25.6865 18.3223 25.6852 18.696C25.7006 19.3888 25.9562 20.0547 26.4084 20.5799C26.8606 21.105 27.4812 21.4568 28.164 21.5749V22.6086C26.2823 22.0365 24.3698 21.5753 22.5599 21.157V19.9301C23.4726 19.592 24.1225 18.528 24.1225 17.2313C24.1225 15.654 23.1616 14.4185 21.9348 14.4185C20.7081 14.4185 19.7472 15.654 19.7472 17.2313C19.7472 18.528 20.3971 19.592 21.3098 19.9301V20.8696C19.9472 20.5573 18.6566 20.2594 17.4853 19.944C13.7553 18.9394 11.8421 17.4289 11.6366 15.3259C11.3543 12.4369 15.1462 10.8797 16.7897 10.3444C16.9474 10.293 17.0782 10.1811 17.1533 10.0333C17.2285 9.88554 17.2419 9.71395 17.1905 9.55631C17.1391 9.39866 17.0273 9.26788 16.8795 9.19272C16.7317 9.11757 16.5601 9.1042 16.4024 9.15556C12.3222 10.4849 10.1315 12.7783 10.3923 15.4473C10.6544 18.1295 12.8684 19.9953 17.1603 21.1511C18.416 21.4893 19.7897 21.8039 21.244 22.1372C30.1529 24.1783 41.2401 26.7184 39.579 37.9145C39.4625 38.6827 39.2723 39.438 39.0112 40.1698C38.9838 40.2472 38.9719 40.3292 38.9762 40.4112C38.9805 40.4931 39.0009 40.5735 39.0362 40.6476C39.0716 40.7216 39.1212 40.788 39.1822 40.843C39.2432 40.8979 39.3144 40.9402 39.3918 40.9676C39.5481 41.0212 39.7192 41.0114 39.8684 40.9402C40.0176 40.8691 40.1329 40.7423 40.1896 40.587C40.4776 39.7793 40.6872 38.9458 40.8157 38.0979C41.6674 32.3566 39.4793 28.6818 35.9985 26.1868ZM35.3735 20.0636C35.8169 20.0636 36.3111 20.6974 36.3111 21.6068C36.3111 22.5162 35.817 23.1498 35.3735 23.1498C34.93 23.1498 34.4359 22.5162 34.4359 21.6068C34.4359 20.6974 34.93 20.0636 35.3735 20.0636ZM26.9353 18.696C26.9386 18.4478 26.9986 18.2037 27.1106 17.9822C27.2227 17.7608 27.3839 17.5679 27.582 17.4182C27.6983 17.3232 27.7764 17.1894 27.8019 17.0415C27.8076 16.8573 27.7965 16.6731 27.7686 16.491C27.7589 16.3482 27.7786 16.2049 27.8265 16.0701C27.8745 15.9352 27.9496 15.8117 28.0473 15.7071C28.145 15.6025 28.2632 15.5191 28.3944 15.4621C28.5257 15.405 28.6673 15.3756 28.8104 15.3756C28.9536 15.3756 29.0951 15.405 29.2264 15.4621C29.3577 15.5191 29.4759 15.6025 29.5736 15.7071C29.6713 15.8117 29.7464 15.9352 29.7943 16.0701C29.8423 16.2049 29.862 16.3482 29.8522 16.491C29.8522 16.836 29.7062 17.1574 30.0389 17.4182C30.2369 17.5678 30.3982 17.7607 30.5103 17.9822C30.6223 18.2036 30.6823 18.4478 30.6856 18.696C30.6742 19.0641 30.5443 19.4188 30.3153 19.7072C30.0862 19.9957 29.7701 20.2025 29.4141 20.2969V18.3958C29.4143 18.3136 29.3983 18.2322 29.3669 18.1562C29.3356 18.0802 29.2896 18.0111 29.2315 17.9529C29.1735 17.8947 29.1045 17.8486 29.0286 17.8171C28.9527 17.7856 28.8713 17.7694 28.7891 17.7694C28.7069 17.7694 28.6255 17.7856 28.5495 17.8171C28.4736 17.8486 28.4046 17.8947 28.3466 17.9529C28.2885 18.0111 28.2425 18.0802 28.2112 18.1562C28.1799 18.2322 28.1638 18.3136 28.164 18.3958V20.2808C27.8184 20.1797 27.5136 19.972 27.2929 19.6874C27.0723 19.4029 26.9471 19.0559 26.9353 18.696ZM21.9348 15.6686C22.3783 15.6686 22.8724 16.3103 22.8724 17.2313C22.8724 18.1523 22.3783 18.794 21.9348 18.794C21.4914 18.794 20.9973 18.1523 20.9973 17.2313C20.9973 16.3103 21.4914 15.6686 21.9348 15.6686ZM7.06052 18.7213C7.14349 18.8641 7.27911 18.9688 7.43833 19.0129C7.59754 19.057 7.76769 19.037 7.91234 18.9572C7.98377 18.9168 8.04653 18.8626 8.09705 18.798C8.14756 18.7333 8.18484 18.6592 8.20674 18.5801C8.22865 18.501 8.23476 18.4184 8.22473 18.3369C8.21469 18.2555 8.18871 18.1768 8.14826 18.1054C8.14826 18.1054 8.0361 17.9007 8.0097 17.8497C7.97184 17.7768 7.91997 17.7121 7.85706 17.6592C7.79414 17.6063 7.72143 17.5664 7.64306 17.5416C7.5647 17.5169 7.48223 17.5078 7.40036 17.515C7.3185 17.5222 7.23885 17.5454 7.16598 17.5834C7.0931 17.6213 7.02843 17.6733 6.97565 17.7363C6.92288 17.7993 6.88305 17.8721 6.85843 17.9505C6.83381 18.0289 6.82489 18.1114 6.83217 18.1932C6.83946 18.2751 6.86282 18.3547 6.9009 18.4275C6.93127 18.4855 7.0605 18.7212 7.06052 18.7213ZM6.01979 15.5173C6.0294 15.6315 6.04217 15.746 6.05809 15.861C6.06929 15.9423 6.0964 16.0206 6.13787 16.0915C6.17934 16.1623 6.23436 16.2243 6.29979 16.2739C6.36521 16.3235 6.43976 16.3597 6.51918 16.3804C6.5986 16.4012 6.68133 16.4061 6.76265 16.3949C6.84397 16.3837 6.92229 16.3566 6.99314 16.3152C7.06398 16.2737 7.12596 16.2187 7.17554 16.1532C7.22513 16.0878 7.26134 16.0133 7.28211 15.9339C7.30288 15.8544 7.3078 15.7717 7.2966 15.6904C7.28378 15.5973 7.27346 15.5046 7.26562 15.4123C7.25873 15.3305 7.23579 15.2509 7.19811 15.178C7.16044 15.105 7.10877 15.0402 7.04605 14.9872C6.98333 14.9343 6.9108 14.8942 6.83258 14.8692C6.75437 14.8443 6.67201 14.835 6.59021 14.8419C6.5084 14.8488 6.42876 14.8717 6.35582 14.9094C6.28289 14.9471 6.21808 14.9988 6.16511 15.0615C6.11215 15.1242 6.07205 15.1967 6.04711 15.275C6.02218 15.3532 6.01289 15.4355 6.01979 15.5173ZM6.97229 13.6313C7.09905 13.6298 7.22248 13.5906 7.3268 13.5186C7.43111 13.4465 7.51156 13.345 7.55785 13.227C7.5902 13.1405 7.625 13.055 7.66224 12.9705C7.69594 12.8953 7.71443 12.8141 7.71665 12.7317C7.71886 12.6493 7.70475 12.5673 7.67514 12.4904C7.64552 12.4134 7.60098 12.3431 7.54408 12.2835C7.48719 12.2238 7.41905 12.176 7.3436 12.1428C7.26816 12.1096 7.18689 12.0917 7.10447 12.09C7.02206 12.0883 6.94012 12.103 6.86339 12.1331C6.78666 12.1632 6.71665 12.2082 6.65738 12.2655C6.59811 12.3228 6.55075 12.3912 6.51805 12.4669C6.47135 12.5731 6.42771 12.6805 6.38712 12.789C6.3542 12.8835 6.34411 12.9844 6.35766 13.0835C6.37122 13.1826 6.40804 13.2771 6.46512 13.3593C6.52219 13.4414 6.5979 13.5089 6.68605 13.5562C6.7742 13.6034 6.87229 13.6292 6.97229 13.6313ZM13.7469 7.69616L13.4394 7.76682C13.29 7.80155 13.1585 7.89001 13.0701 8.01537C12.9817 8.14073 12.9424 8.29422 12.9598 8.44664C12.9772 8.59906 13.05 8.73977 13.1644 8.84197C13.2788 8.94418 13.4268 9.00076 13.5802 9.00093C13.7311 8.98872 13.8801 8.95996 14.0246 8.91517C14.1047 8.89693 14.1803 8.86311 14.2473 8.81563C14.3143 8.76815 14.3712 8.70795 14.4149 8.63846C14.4586 8.56896 14.4882 8.49154 14.502 8.41062C14.5158 8.32969 14.5135 8.24684 14.4953 8.1668C14.477 8.08676 14.4432 8.01109 14.3957 7.94412C14.3482 7.87715 14.288 7.82019 14.2185 7.77649C14.149 7.73278 14.0716 7.7032 13.9907 7.68941C13.9098 7.67563 13.8269 7.67793 13.7469 7.69616ZM10.9462 8.48238C10.8423 8.52359 10.7398 8.56627 10.6389 8.61042C10.5072 8.66782 10.3993 8.76884 10.3333 8.89646C10.2673 9.02409 10.2473 9.17054 10.2767 9.31118C10.306 9.45181 10.3829 9.57806 10.4944 9.66866C10.6059 9.75927 10.7452 9.80872 10.8888 9.80868C11.0707 9.78689 11.2468 9.73103 11.408 9.64402C11.4842 9.6137 11.5538 9.56865 11.6127 9.51145C11.6715 9.45425 11.7186 9.38601 11.751 9.31064C11.7835 9.23527 11.8009 9.15423 11.802 9.07216C11.8032 8.99009 11.7882 8.90859 11.7579 8.83232C11.7276 8.75604 11.6825 8.68649 11.6253 8.62762C11.5681 8.56876 11.4999 8.52174 11.4245 8.48924C11.3492 8.45675 11.2681 8.43942 11.186 8.43824C11.104 8.43707 11.0225 8.45206 10.9462 8.48238ZM8.96575 11.1579C9.03488 11.093 9.10573 11.0294 9.17832 10.9669C9.30356 10.8586 9.3807 10.7051 9.39283 10.5399C9.40496 10.3748 9.35107 10.2116 9.243 10.0862C9.13493 9.96076 8.9815 9.88333 8.8164 9.87089C8.6513 9.85846 8.488 9.91204 8.36237 10.0199C8.27615 10.0941 8.19201 10.1697 8.10996 10.2468C8.05013 10.303 8.00195 10.3704 7.96818 10.4452C7.93441 10.52 7.91571 10.6008 7.91314 10.6828C7.91058 10.7648 7.9242 10.8466 7.95323 10.9233C7.98226 11.0001 8.02614 11.0704 8.08234 11.1302C8.19676 11.2494 8.35329 11.319 8.51841 11.3242C8.68353 11.3293 8.8441 11.2696 8.96575 11.1579Z" stroke="white" stroke-width="0.4" mask="url(#path-2-outside-2_13_35362)"/>
</g>
<g id="Vector_3">
<mask id="path-3-outside-3_13_35362" maskUnits="userSpaceOnUse" x="7.48047" y="18.7747" width="22" height="23" fill="black">
<rect fill="white" x="7.48047" y="18.7747" width="22" height="23"/>
<path d="M26.8123 29.092C26.7594 29.0293 26.6947 28.9775 26.6218 28.9398C26.5489 28.902 26.4693 28.879 26.3875 28.872C26.3058 28.865 26.2234 28.8742 26.1452 28.8991C26.0669 28.9239 25.9944 28.9639 25.9316 29.0168C25.8688 29.0697 25.8171 29.1344 25.7794 29.2073C25.7416 29.2802 25.7186 29.3598 25.7116 29.4416C25.7046 29.5233 25.7138 29.6057 25.7386 29.6839C25.7635 29.7621 25.8035 29.8347 25.8564 29.8975C25.9171 29.9697 25.9764 30.0435 26.0343 30.1189C26.0842 30.1843 26.1465 30.2391 26.2176 30.2804C26.2887 30.3216 26.3672 30.3484 26.4487 30.3593C26.5302 30.3701 26.613 30.3648 26.6924 30.3436C26.7718 30.3224 26.8463 30.2858 26.9115 30.2358C26.9768 30.1858 27.0315 30.1234 27.0726 30.0522C27.1137 29.981 27.1403 29.9024 27.151 29.8209C27.1617 29.7394 27.1562 29.6566 27.1348 29.5772C27.1135 29.4978 27.0767 29.4235 27.0265 29.3583C26.9569 29.2677 26.8855 29.1789 26.8123 29.092ZM26.5826 39.5752C26.4398 39.4911 26.2694 39.4671 26.1089 39.5086C25.9484 39.5501 25.811 39.6537 25.7268 39.7965C25.6771 39.881 25.6271 39.962 25.5768 40.0396C25.5321 40.1084 25.5015 40.1854 25.4865 40.2661C25.4716 40.3468 25.4727 40.4297 25.4899 40.51C25.507 40.5902 25.5397 40.6664 25.5862 40.734C25.6328 40.8016 25.6921 40.8594 25.761 40.9041C25.9006 40.9925 26.0692 41.0228 26.2308 40.9884C26.3924 40.9539 26.5341 40.8575 26.6255 40.7199C26.6852 40.6278 26.7446 40.5315 26.8039 40.431C26.888 40.2882 26.912 40.1178 26.8705 39.9573C26.829 39.7968 26.7254 39.6593 26.5826 39.5752ZM27.0883 32.3994C27.125 32.5604 27.2229 32.7008 27.3615 32.7906C27.5 32.8804 27.6681 32.9127 27.83 32.8805C27.9103 32.8633 27.9864 32.8306 28.054 32.7841C28.1216 32.7375 28.1794 32.6781 28.2241 32.6093C28.2688 32.5404 28.2994 32.4634 28.3143 32.3827C28.3292 32.302 28.3281 32.2191 28.311 32.1388C28.2872 32.0273 28.2611 31.9168 28.2327 31.8075C28.1909 31.6471 28.0871 31.5098 27.9442 31.4259C27.8012 31.342 27.6307 31.3183 27.4703 31.3601C27.3099 31.4018 27.1726 31.5056 27.0887 31.6486C27.0048 31.7916 26.9811 31.962 27.0229 32.1225C27.0467 32.2137 27.0685 32.306 27.0883 32.3994ZM27.8906 34.1335C27.8086 34.1276 27.7263 34.138 27.6484 34.164C27.5705 34.19 27.4985 34.2312 27.4366 34.2851C27.3746 34.3391 27.3239 34.4047 27.2875 34.4783C27.251 34.5519 27.2294 34.632 27.224 34.714C27.2171 34.8124 27.209 34.9109 27.1997 35.0094C27.1942 35.0956 27.206 35.1821 27.2346 35.2636C27.2631 35.3451 27.3078 35.42 27.3659 35.4839C27.4241 35.5477 27.4945 35.5993 27.5729 35.6353C27.6514 35.6714 27.7363 35.6913 27.8227 35.6939C27.978 35.6937 28.1277 35.6356 28.2426 35.5311C28.3575 35.4265 28.4293 35.2828 28.4441 35.1282C28.4546 35.0188 28.4636 34.9094 28.4711 34.8001C28.4767 34.7182 28.4662 34.636 28.4401 34.5582C28.414 34.4803 28.3728 34.4084 28.3189 34.3465C28.265 34.2846 28.1994 34.2339 28.1259 34.1974C28.0524 34.1608 27.9725 34.1391 27.8906 34.1335ZM27.522 36.9208C27.363 36.8741 27.1919 36.8925 27.0464 36.9719C26.9008 37.0513 26.7928 37.1853 26.7461 37.3443C26.7177 37.4409 26.6886 37.5366 26.6588 37.6315C26.6341 37.7098 26.625 37.7922 26.6321 37.8739C26.6393 37.9557 26.6624 38.0353 26.7003 38.1081C26.7382 38.1809 26.79 38.2456 26.8529 38.2984C26.9158 38.3511 26.9884 38.391 27.0667 38.4157C27.1449 38.4404 27.2273 38.4495 27.3091 38.4424C27.3909 38.4352 27.4704 38.4121 27.5433 38.3742C27.6161 38.3363 27.6807 38.2845 27.7335 38.2216C27.7863 38.1588 27.8262 38.0861 27.8509 38.0078C27.8832 37.9054 27.9147 37.8015 27.9455 37.6968C27.9922 37.5378 27.9739 37.3667 27.8945 37.2211C27.815 37.0756 27.6811 36.9676 27.522 36.9208ZM24.7732 27.3522C24.6805 27.2936 24.5867 27.2362 24.492 27.1801C24.3495 27.0966 24.1798 27.0729 24.0199 27.1142C23.86 27.1554 23.7229 27.2583 23.6386 27.4003C23.5543 27.5423 23.5296 27.7119 23.5699 27.872C23.6102 28.0322 23.7123 28.1699 23.8538 28.255C24.0236 28.3905 24.227 28.4772 24.4423 28.506C24.5775 28.5053 24.7089 28.4608 24.8167 28.3791C24.9245 28.2975 25.0029 28.1831 25.0402 28.0531C25.0774 27.9231 25.0716 27.7846 25.0235 27.6582C24.9753 27.5318 24.8875 27.4245 24.7732 27.3522ZM11.2073 22.8767C11.3476 22.964 11.5166 22.9928 11.6779 22.957C11.8392 22.9212 11.98 22.8236 12.0703 22.6852C12.1593 22.5454 12.1891 22.3759 12.1532 22.2141C12.1173 22.0522 12.0186 21.9113 11.8788 21.8222C11.7938 21.7681 11.7094 21.7132 11.6256 21.6577C11.4874 21.5662 11.3185 21.5333 11.156 21.5663C10.9935 21.5993 10.8508 21.6955 10.7593 21.8337C10.6677 21.9719 10.6348 22.1408 10.6678 22.3033C10.7008 22.4658 10.797 22.6085 10.9352 22.7C11.0251 22.7595 11.1158 22.8184 11.2073 22.8767ZM13.7514 24.2559C13.9024 24.3224 14.0733 24.3279 14.2282 24.2711C14.3832 24.2144 14.5101 24.0998 14.5824 23.9515C14.6523 23.8012 14.6596 23.6293 14.6028 23.4735C14.546 23.3178 14.4296 23.191 14.2793 23.121C14.187 23.0782 14.0949 23.0347 14.003 22.9906C13.8535 22.9192 13.6818 22.9101 13.5256 22.9652C13.3694 23.0204 13.2415 23.1353 13.1699 23.2847C13.0984 23.4341 13.0891 23.6057 13.1441 23.762C13.199 23.9182 13.3138 24.0463 13.4631 24.118C13.5575 24.1633 13.6525 24.2165 13.7514 24.2559ZM8.89236 21.0705C9.01218 21.1841 9.17161 21.2464 9.3367 21.2442C9.50179 21.242 9.65949 21.1754 9.77621 21.0586C9.83346 20.9998 9.87857 20.9303 9.90896 20.854C9.93935 20.7778 9.95443 20.6963 9.95332 20.6142C9.95222 20.5321 9.93495 20.4511 9.90252 20.3756C9.87009 20.3002 9.82313 20.232 9.76431 20.1747C9.6935 20.1059 9.62376 20.0361 9.55509 19.9655C9.49792 19.9063 9.42963 19.859 9.35413 19.8263C9.27863 19.7935 9.19742 19.776 9.11514 19.7748C9.03286 19.7735 8.95115 19.7885 8.87468 19.8189C8.79821 19.8493 8.72849 19.8945 8.66953 19.9519C8.61057 20.0093 8.56352 20.0777 8.53108 20.1533C8.49864 20.229 8.48146 20.3103 8.48051 20.3925C8.47956 20.4748 8.49487 20.5565 8.52555 20.6328C8.55624 20.7092 8.6017 20.7787 8.65932 20.8375C8.73594 20.9161 8.81362 20.9937 8.89236 21.0705ZM16.3927 25.3526C16.5476 25.4102 16.7191 25.404 16.8695 25.3355C17.02 25.267 17.1371 25.1417 17.1954 24.987C17.2537 24.8324 17.2483 24.6609 17.1805 24.5101C17.1126 24.3594 16.9878 24.2417 16.8334 24.1827L16.5451 24.073C16.3904 24.0135 16.2184 24.0179 16.0669 24.0853C15.9154 24.1526 15.7969 24.2774 15.7374 24.4321C15.6779 24.5868 15.6823 24.7588 15.7497 24.9103C15.817 25.0618 15.9418 25.1803 16.0965 25.2398L16.3927 25.3526ZM22.1497 26.0573C22.0504 26.0181 21.9508 25.9794 21.8509 25.9412C21.696 25.8823 21.5241 25.8873 21.3729 25.9552C21.2216 26.023 21.1036 26.1481 21.0446 26.303C20.9856 26.4579 20.9905 26.6298 21.0583 26.7811C21.1261 26.9323 21.2511 27.0505 21.4059 27.1095C21.5666 27.1914 21.7406 27.2437 21.9198 27.2638C22.0652 27.2638 22.2062 27.2131 22.3183 27.1203C22.4304 27.0276 22.5066 26.8986 22.5339 26.7557C22.5611 26.6128 22.5376 26.4648 22.4675 26.3374C22.3974 26.2099 22.285 26.1108 22.1497 26.0573ZM19.0395 26.2902C19.1944 26.3478 19.3659 26.3417 19.5163 26.2731C19.6667 26.2046 19.7839 26.0793 19.8422 25.9246C19.9005 25.77 19.8951 25.5985 19.8272 25.4477C19.7594 25.297 19.6346 25.1793 19.4802 25.1203L19.1919 25.0106C19.0372 24.9511 18.8652 24.9555 18.7137 25.0229C18.5622 25.0902 18.4437 25.215 18.3842 25.3697C18.3247 25.5244 18.3291 25.6964 18.3965 25.8479C18.4638 25.9994 18.5885 26.1179 18.7433 26.1774L19.0395 26.2902Z"/>
</mask>
<path d="M26.8123 29.092C26.7594 29.0293 26.6947 28.9775 26.6218 28.9398C26.5489 28.902 26.4693 28.879 26.3875 28.872C26.3058 28.865 26.2234 28.8742 26.1452 28.8991C26.0669 28.9239 25.9944 28.9639 25.9316 29.0168C25.8688 29.0697 25.8171 29.1344 25.7794 29.2073C25.7416 29.2802 25.7186 29.3598 25.7116 29.4416C25.7046 29.5233 25.7138 29.6057 25.7386 29.6839C25.7635 29.7621 25.8035 29.8347 25.8564 29.8975C25.9171 29.9697 25.9764 30.0435 26.0343 30.1189C26.0842 30.1843 26.1465 30.2391 26.2176 30.2804C26.2887 30.3216 26.3672 30.3484 26.4487 30.3593C26.5302 30.3701 26.613 30.3648 26.6924 30.3436C26.7718 30.3224 26.8463 30.2858 26.9115 30.2358C26.9768 30.1858 27.0315 30.1234 27.0726 30.0522C27.1137 29.981 27.1403 29.9024 27.151 29.8209C27.1617 29.7394 27.1562 29.6566 27.1348 29.5772C27.1135 29.4978 27.0767 29.4235 27.0265 29.3583C26.9569 29.2677 26.8855 29.1789 26.8123 29.092ZM26.5826 39.5752C26.4398 39.4911 26.2694 39.4671 26.1089 39.5086C25.9484 39.5501 25.811 39.6537 25.7268 39.7965C25.6771 39.881 25.6271 39.962 25.5768 40.0396C25.5321 40.1084 25.5015 40.1854 25.4865 40.2661C25.4716 40.3468 25.4727 40.4297 25.4899 40.51C25.507 40.5902 25.5397 40.6664 25.5862 40.734C25.6328 40.8016 25.6921 40.8594 25.761 40.9041C25.9006 40.9925 26.0692 41.0228 26.2308 40.9884C26.3924 40.9539 26.5341 40.8575 26.6255 40.7199C26.6852 40.6278 26.7446 40.5315 26.8039 40.431C26.888 40.2882 26.912 40.1178 26.8705 39.9573C26.829 39.7968 26.7254 39.6593 26.5826 39.5752ZM27.0883 32.3994C27.125 32.5604 27.2229 32.7008 27.3615 32.7906C27.5 32.8804 27.6681 32.9127 27.83 32.8805C27.9103 32.8633 27.9864 32.8306 28.054 32.7841C28.1216 32.7375 28.1794 32.6781 28.2241 32.6093C28.2688 32.5404 28.2994 32.4634 28.3143 32.3827C28.3292 32.302 28.3281 32.2191 28.311 32.1388C28.2872 32.0273 28.2611 31.9168 28.2327 31.8075C28.1909 31.6471 28.0871 31.5098 27.9442 31.4259C27.8012 31.342 27.6307 31.3183 27.4703 31.3601C27.3099 31.4018 27.1726 31.5056 27.0887 31.6486C27.0048 31.7916 26.9811 31.962 27.0229 32.1225C27.0467 32.2137 27.0685 32.306 27.0883 32.3994ZM27.8906 34.1335C27.8086 34.1276 27.7263 34.138 27.6484 34.164C27.5705 34.19 27.4985 34.2312 27.4366 34.2851C27.3746 34.3391 27.3239 34.4047 27.2875 34.4783C27.251 34.5519 27.2294 34.632 27.224 34.714C27.2171 34.8124 27.209 34.9109 27.1997 35.0094C27.1942 35.0956 27.206 35.1821 27.2346 35.2636C27.2631 35.3451 27.3078 35.42 27.3659 35.4839C27.4241 35.5477 27.4945 35.5993 27.5729 35.6353C27.6514 35.6714 27.7363 35.6913 27.8227 35.6939C27.978 35.6937 28.1277 35.6356 28.2426 35.5311C28.3575 35.4265 28.4293 35.2828 28.4441 35.1282C28.4546 35.0188 28.4636 34.9094 28.4711 34.8001C28.4767 34.7182 28.4662 34.636 28.4401 34.5582C28.414 34.4803 28.3728 34.4084 28.3189 34.3465C28.265 34.2846 28.1994 34.2339 28.1259 34.1974C28.0524 34.1608 27.9725 34.1391 27.8906 34.1335ZM27.522 36.9208C27.363 36.8741 27.1919 36.8925 27.0464 36.9719C26.9008 37.0513 26.7928 37.1853 26.7461 37.3443C26.7177 37.4409 26.6886 37.5366 26.6588 37.6315C26.6341 37.7098 26.625 37.7922 26.6321 37.8739C26.6393 37.9557 26.6624 38.0353 26.7003 38.1081C26.7382 38.1809 26.79 38.2456 26.8529 38.2984C26.9158 38.3511 26.9884 38.391 27.0667 38.4157C27.1449 38.4404 27.2273 38.4495 27.3091 38.4424C27.3909 38.4352 27.4704 38.4121 27.5433 38.3742C27.6161 38.3363 27.6807 38.2845 27.7335 38.2216C27.7863 38.1588 27.8262 38.0861 27.8509 38.0078C27.8832 37.9054 27.9147 37.8015 27.9455 37.6968C27.9922 37.5378 27.9739 37.3667 27.8945 37.2211C27.815 37.0756 27.6811 36.9676 27.522 36.9208ZM24.7732 27.3522C24.6805 27.2936 24.5867 27.2362 24.492 27.1801C24.3495 27.0966 24.1798 27.0729 24.0199 27.1142C23.86 27.1554 23.7229 27.2583 23.6386 27.4003C23.5543 27.5423 23.5296 27.7119 23.5699 27.872C23.6102 28.0322 23.7123 28.1699 23.8538 28.255C24.0236 28.3905 24.227 28.4772 24.4423 28.506C24.5775 28.5053 24.7089 28.4608 24.8167 28.3791C24.9245 28.2975 25.0029 28.1831 25.0402 28.0531C25.0774 27.9231 25.0716 27.7846 25.0235 27.6582C24.9753 27.5318 24.8875 27.4245 24.7732 27.3522ZM11.2073 22.8767C11.3476 22.964 11.5166 22.9928 11.6779 22.957C11.8392 22.9212 11.98 22.8236 12.0703 22.6852C12.1593 22.5454 12.1891 22.3759 12.1532 22.2141C12.1173 22.0522 12.0186 21.9113 11.8788 21.8222C11.7938 21.7681 11.7094 21.7132 11.6256 21.6577C11.4874 21.5662 11.3185 21.5333 11.156 21.5663C10.9935 21.5993 10.8508 21.6955 10.7593 21.8337C10.6677 21.9719 10.6348 22.1408 10.6678 22.3033C10.7008 22.4658 10.797 22.6085 10.9352 22.7C11.0251 22.7595 11.1158 22.8184 11.2073 22.8767ZM13.7514 24.2559C13.9024 24.3224 14.0733 24.3279 14.2282 24.2711C14.3832 24.2144 14.5101 24.0998 14.5824 23.9515C14.6523 23.8012 14.6596 23.6293 14.6028 23.4735C14.546 23.3178 14.4296 23.191 14.2793 23.121C14.187 23.0782 14.0949 23.0347 14.003 22.9906C13.8535 22.9192 13.6818 22.9101 13.5256 22.9652C13.3694 23.0204 13.2415 23.1353 13.1699 23.2847C13.0984 23.4341 13.0891 23.6057 13.1441 23.762C13.199 23.9182 13.3138 24.0463 13.4631 24.118C13.5575 24.1633 13.6525 24.2165 13.7514 24.2559ZM8.89236 21.0705C9.01218 21.1841 9.17161 21.2464 9.3367 21.2442C9.50179 21.242 9.65949 21.1754 9.77621 21.0586C9.83346 20.9998 9.87857 20.9303 9.90896 20.854C9.93935 20.7778 9.95443 20.6963 9.95332 20.6142C9.95222 20.5321 9.93495 20.4511 9.90252 20.3756C9.87009 20.3002 9.82313 20.232 9.76431 20.1747C9.6935 20.1059 9.62376 20.0361 9.55509 19.9655C9.49792 19.9063 9.42963 19.859 9.35413 19.8263C9.27863 19.7935 9.19742 19.776 9.11514 19.7748C9.03286 19.7735 8.95115 19.7885 8.87468 19.8189C8.79821 19.8493 8.72849 19.8945 8.66953 19.9519C8.61057 20.0093 8.56352 20.0777 8.53108 20.1533C8.49864 20.229 8.48146 20.3103 8.48051 20.3925C8.47956 20.4748 8.49487 20.5565 8.52555 20.6328C8.55624 20.7092 8.6017 20.7787 8.65932 20.8375C8.73594 20.9161 8.81362 20.9937 8.89236 21.0705ZM16.3927 25.3526C16.5476 25.4102 16.7191 25.404 16.8695 25.3355C17.02 25.267 17.1371 25.1417 17.1954 24.987C17.2537 24.8324 17.2483 24.6609 17.1805 24.5101C17.1126 24.3594 16.9878 24.2417 16.8334 24.1827L16.5451 24.073C16.3904 24.0135 16.2184 24.0179 16.0669 24.0853C15.9154 24.1526 15.7969 24.2774 15.7374 24.4321C15.6779 24.5868 15.6823 24.7588 15.7497 24.9103C15.817 25.0618 15.9418 25.1803 16.0965 25.2398L16.3927 25.3526ZM22.1497 26.0573C22.0504 26.0181 21.9508 25.9794 21.8509 25.9412C21.696 25.8823 21.5241 25.8873 21.3729 25.9552C21.2216 26.023 21.1036 26.1481 21.0446 26.303C20.9856 26.4579 20.9905 26.6298 21.0583 26.7811C21.1261 26.9323 21.2511 27.0505 21.4059 27.1095C21.5666 27.1914 21.7406 27.2437 21.9198 27.2638C22.0652 27.2638 22.2062 27.2131 22.3183 27.1203C22.4304 27.0276 22.5066 26.8986 22.5339 26.7557C22.5611 26.6128 22.5376 26.4648 22.4675 26.3374C22.3974 26.2099 22.285 26.1108 22.1497 26.0573ZM19.0395 26.2902C19.1944 26.3478 19.3659 26.3417 19.5163 26.2731C19.6667 26.2046 19.7839 26.0793 19.8422 25.9246C19.9005 25.77 19.8951 25.5985 19.8272 25.4477C19.7594 25.297 19.6346 25.1793 19.4802 25.1203L19.1919 25.0106C19.0372 24.9511 18.8652 24.9555 18.7137 25.0229C18.5622 25.0902 18.4437 25.215 18.3842 25.3697C18.3247 25.5244 18.3291 25.6964 18.3965 25.8479C18.4638 25.9994 18.5885 26.1179 18.7433 26.1774L19.0395 26.2902Z" fill="white"/>
<path d="M26.8123 29.092C26.7594 29.0293 26.6947 28.9775 26.6218 28.9398C26.5489 28.902 26.4693 28.879 26.3875 28.872C26.3058 28.865 26.2234 28.8742 26.1452 28.8991C26.0669 28.9239 25.9944 28.9639 25.9316 29.0168C25.8688 29.0697 25.8171 29.1344 25.7794 29.2073C25.7416 29.2802 25.7186 29.3598 25.7116 29.4416C25.7046 29.5233 25.7138 29.6057 25.7386 29.6839C25.7635 29.7621 25.8035 29.8347 25.8564 29.8975C25.9171 29.9697 25.9764 30.0435 26.0343 30.1189C26.0842 30.1843 26.1465 30.2391 26.2176 30.2804C26.2887 30.3216 26.3672 30.3484 26.4487 30.3593C26.5302 30.3701 26.613 30.3648 26.6924 30.3436C26.7718 30.3224 26.8463 30.2858 26.9115 30.2358C26.9768 30.1858 27.0315 30.1234 27.0726 30.0522C27.1137 29.981 27.1403 29.9024 27.151 29.8209C27.1617 29.7394 27.1562 29.6566 27.1348 29.5772C27.1135 29.4978 27.0767 29.4235 27.0265 29.3583C26.9569 29.2677 26.8855 29.1789 26.8123 29.092ZM26.5826 39.5752C26.4398 39.4911 26.2694 39.4671 26.1089 39.5086C25.9484 39.5501 25.811 39.6537 25.7268 39.7965C25.6771 39.881 25.6271 39.962 25.5768 40.0396C25.5321 40.1084 25.5015 40.1854 25.4865 40.2661C25.4716 40.3468 25.4727 40.4297 25.4899 40.51C25.507 40.5902 25.5397 40.6664 25.5862 40.734C25.6328 40.8016 25.6921 40.8594 25.761 40.9041C25.9006 40.9925 26.0692 41.0228 26.2308 40.9884C26.3924 40.9539 26.5341 40.8575 26.6255 40.7199C26.6852 40.6278 26.7446 40.5315 26.8039 40.431C26.888 40.2882 26.912 40.1178 26.8705 39.9573C26.829 39.7968 26.7254 39.6593 26.5826 39.5752ZM27.0883 32.3994C27.125 32.5604 27.2229 32.7008 27.3615 32.7906C27.5 32.8804 27.6681 32.9127 27.83 32.8805C27.9103 32.8633 27.9864 32.8306 28.054 32.7841C28.1216 32.7375 28.1794 32.6781 28.2241 32.6093C28.2688 32.5404 28.2994 32.4634 28.3143 32.3827C28.3292 32.302 28.3281 32.2191 28.311 32.1388C28.2872 32.0273 28.2611 31.9168 28.2327 31.8075C28.1909 31.6471 28.0871 31.5098 27.9442 31.4259C27.8012 31.342 27.6307 31.3183 27.4703 31.3601C27.3099 31.4018 27.1726 31.5056 27.0887 31.6486C27.0048 31.7916 26.9811 31.962 27.0229 32.1225C27.0467 32.2137 27.0685 32.306 27.0883 32.3994ZM27.8906 34.1335C27.8086 34.1276 27.7263 34.138 27.6484 34.164C27.5705 34.19 27.4985 34.2312 27.4366 34.2851C27.3746 34.3391 27.3239 34.4047 27.2875 34.4783C27.251 34.5519 27.2294 34.632 27.224 34.714C27.2171 34.8124 27.209 34.9109 27.1997 35.0094C27.1942 35.0956 27.206 35.1821 27.2346 35.2636C27.2631 35.3451 27.3078 35.42 27.3659 35.4839C27.4241 35.5477 27.4945 35.5993 27.5729 35.6353C27.6514 35.6714 27.7363 35.6913 27.8227 35.6939C27.978 35.6937 28.1277 35.6356 28.2426 35.5311C28.3575 35.4265 28.4293 35.2828 28.4441 35.1282C28.4546 35.0188 28.4636 34.9094 28.4711 34.8001C28.4767 34.7182 28.4662 34.636 28.4401 34.5582C28.414 34.4803 28.3728 34.4084 28.3189 34.3465C28.265 34.2846 28.1994 34.2339 28.1259 34.1974C28.0524 34.1608 27.9725 34.1391 27.8906 34.1335ZM27.522 36.9208C27.363 36.8741 27.1919 36.8925 27.0464 36.9719C26.9008 37.0513 26.7928 37.1853 26.7461 37.3443C26.7177 37.4409 26.6886 37.5366 26.6588 37.6315C26.6341 37.7098 26.625 37.7922 26.6321 37.8739C26.6393 37.9557 26.6624 38.0353 26.7003 38.1081C26.7382 38.1809 26.79 38.2456 26.8529 38.2984C26.9158 38.3511 26.9884 38.391 27.0667 38.4157C27.1449 38.4404 27.2273 38.4495 27.3091 38.4424C27.3909 38.4352 27.4704 38.4121 27.5433 38.3742C27.6161 38.3363 27.6807 38.2845 27.7335 38.2216C27.7863 38.1588 27.8262 38.0861 27.8509 38.0078C27.8832 37.9054 27.9147 37.8015 27.9455 37.6968C27.9922 37.5378 27.9739 37.3667 27.8945 37.2211C27.815 37.0756 27.6811 36.9676 27.522 36.9208ZM24.7732 27.3522C24.6805 27.2936 24.5867 27.2362 24.492 27.1801C24.3495 27.0966 24.1798 27.0729 24.0199 27.1142C23.86 27.1554 23.7229 27.2583 23.6386 27.4003C23.5543 27.5423 23.5296 27.7119 23.5699 27.872C23.6102 28.0322 23.7123 28.1699 23.8538 28.255C24.0236 28.3905 24.227 28.4772 24.4423 28.506C24.5775 28.5053 24.7089 28.4608 24.8167 28.3791C24.9245 28.2975 25.0029 28.1831 25.0402 28.0531C25.0774 27.9231 25.0716 27.7846 25.0235 27.6582C24.9753 27.5318 24.8875 27.4245 24.7732 27.3522ZM11.2073 22.8767C11.3476 22.964 11.5166 22.9928 11.6779 22.957C11.8392 22.9212 11.98 22.8236 12.0703 22.6852C12.1593 22.5454 12.1891 22.3759 12.1532 22.2141C12.1173 22.0522 12.0186 21.9113 11.8788 21.8222C11.7938 21.7681 11.7094 21.7132 11.6256 21.6577C11.4874 21.5662 11.3185 21.5333 11.156 21.5663C10.9935 21.5993 10.8508 21.6955 10.7593 21.8337C10.6677 21.9719 10.6348 22.1408 10.6678 22.3033C10.7008 22.4658 10.797 22.6085 10.9352 22.7C11.0251 22.7595 11.1158 22.8184 11.2073 22.8767ZM13.7514 24.2559C13.9024 24.3224 14.0733 24.3279 14.2282 24.2711C14.3832 24.2144 14.5101 24.0998 14.5824 23.9515C14.6523 23.8012 14.6596 23.6293 14.6028 23.4735C14.546 23.3178 14.4296 23.191 14.2793 23.121C14.187 23.0782 14.0949 23.0347 14.003 22.9906C13.8535 22.9192 13.6818 22.9101 13.5256 22.9652C13.3694 23.0204 13.2415 23.1353 13.1699 23.2847C13.0984 23.4341 13.0891 23.6057 13.1441 23.762C13.199 23.9182 13.3138 24.0463 13.4631 24.118C13.5575 24.1633 13.6525 24.2165 13.7514 24.2559ZM8.89236 21.0705C9.01218 21.1841 9.17161 21.2464 9.3367 21.2442C9.50179 21.242 9.65949 21.1754 9.77621 21.0586C9.83346 20.9998 9.87857 20.9303 9.90896 20.854C9.93935 20.7778 9.95443 20.6963 9.95332 20.6142C9.95222 20.5321 9.93495 20.4511 9.90252 20.3756C9.87009 20.3002 9.82313 20.232 9.76431 20.1747C9.6935 20.1059 9.62376 20.0361 9.55509 19.9655C9.49792 19.9063 9.42963 19.859 9.35413 19.8263C9.27863 19.7935 9.19742 19.776 9.11514 19.7748C9.03286 19.7735 8.95115 19.7885 8.87468 19.8189C8.79821 19.8493 8.72849 19.8945 8.66953 19.9519C8.61057 20.0093 8.56352 20.0777 8.53108 20.1533C8.49864 20.229 8.48146 20.3103 8.48051 20.3925C8.47956 20.4748 8.49487 20.5565 8.52555 20.6328C8.55624 20.7092 8.6017 20.7787 8.65932 20.8375C8.73594 20.9161 8.81362 20.9937 8.89236 21.0705ZM16.3927 25.3526C16.5476 25.4102 16.7191 25.404 16.8695 25.3355C17.02 25.267 17.1371 25.1417 17.1954 24.987C17.2537 24.8324 17.2483 24.6609 17.1805 24.5101C17.1126 24.3594 16.9878 24.2417 16.8334 24.1827L16.5451 24.073C16.3904 24.0135 16.2184 24.0179 16.0669 24.0853C15.9154 24.1526 15.7969 24.2774 15.7374 24.4321C15.6779 24.5868 15.6823 24.7588 15.7497 24.9103C15.817 25.0618 15.9418 25.1803 16.0965 25.2398L16.3927 25.3526ZM22.1497 26.0573C22.0504 26.0181 21.9508 25.9794 21.8509 25.9412C21.696 25.8823 21.5241 25.8873 21.3729 25.9552C21.2216 26.023 21.1036 26.1481 21.0446 26.303C20.9856 26.4579 20.9905 26.6298 21.0583 26.7811C21.1261 26.9323 21.2511 27.0505 21.4059 27.1095C21.5666 27.1914 21.7406 27.2437 21.9198 27.2638C22.0652 27.2638 22.2062 27.2131 22.3183 27.1203C22.4304 27.0276 22.5066 26.8986 22.5339 26.7557C22.5611 26.6128 22.5376 26.4648 22.4675 26.3374C22.3974 26.2099 22.285 26.1108 22.1497 26.0573ZM19.0395 26.2902C19.1944 26.3478 19.3659 26.3417 19.5163 26.2731C19.6667 26.2046 19.7839 26.0793 19.8422 25.9246C19.9005 25.77 19.8951 25.5985 19.8272 25.4477C19.7594 25.297 19.6346 25.1793 19.4802 25.1203L19.1919 25.0106C19.0372 24.9511 18.8652 24.9555 18.7137 25.0229C18.5622 25.0902 18.4437 25.215 18.3842 25.3697C18.3247 25.5244 18.3291 25.6964 18.3965 25.8479C18.4638 25.9994 18.5885 26.1179 18.7433 26.1774L19.0395 26.2902Z" stroke="white" stroke-width="0.4" mask="url(#path-3-outside-3_13_35362)"/>
</g>
</g>
</svg>
