<svg width="34" height="34" viewBox="0 0 34 34" fill="none" xmlns="http://www.w3.org/2000/svg">
<path d="M24.2953 1.64092C22.0189 0.560507 19.5307 0 17.0109 0C14.4912 0 12.003 0.560507 9.72651 1.64092C9.33789 1.8217 8.94927 2.02055 8.57872 2.22845C5.27386 4.11329 2.69668 7.05236 1.25956 10.5754C-0.177561 14.0984 -0.391558 18.0017 0.651813 21.6607C1.69518 25.3198 3.93561 28.523 7.01461 30.7579C10.0936 32.9929 13.8332 34.1302 17.635 33.9881C21.4368 33.846 25.081 32.4326 27.9846 29.974C30.8882 27.5155 32.8833 24.1539 33.6506 20.4271C34.4179 16.7004 33.9132 12.824 32.2171 9.4181C30.521 6.01222 27.7317 3.27376 24.2953 1.64092ZM8.18106 16.302L8.886 17.0793C9.15812 17.3832 9.525 17.586 9.92699 17.6549C10.329 17.7239 10.7425 17.6548 11.1002 17.4589L14.3809 15.7235L15.6643 17.007L11.2991 21.3728C11.0975 21.5667 10.9436 21.8047 10.8496 22.0681C10.7556 22.3316 10.724 22.6132 10.7573 22.891C10.7906 23.1687 10.8878 23.4349 11.0414 23.6687C11.1951 23.9024 11.4008 24.0974 11.6425 24.2381L15.0497 26.299L15.1311 26.8865L10.5038 25.838C10.0616 25.7433 9.60009 25.812 9.20465 26.0313C8.80921 26.2507 8.50659 26.6058 8.35277 27.0311L4.93651 26.299L4.63827 25.9012C3.38298 24.1661 2.50793 22.1856 2.07031 20.0891C1.63269 17.9927 1.64235 15.8274 2.09866 13.7349C2.65917 11.3135 3.79561 9.06317 5.41148 7.17486C7.02735 5.28656 9.07494 3.81609 11.3804 2.88829C14.6793 1.57664 18.3319 1.45519 21.7106 2.54481L21.2044 2.80694C20.8835 2.96919 20.6139 3.21733 20.4256 3.52372C20.2374 3.83012 20.1378 4.18276 20.138 4.5424V6.29594C20.138 6.57881 20.0256 6.85011 19.8256 7.05013C19.6256 7.25015 19.3544 7.36253 19.0715 7.36253H16.8302C16.6677 7.36185 16.5074 7.32404 16.3618 7.25198C16.2161 7.17992 16.0888 7.07551 15.9897 6.94674L15.5197 6.34113C15.3376 6.10139 15.1025 5.90702 14.8329 5.7732C14.5632 5.63938 14.2662 5.56976 13.9652 5.56976C13.6642 5.56976 13.3672 5.63938 13.0976 5.7732C12.8279 5.90702 12.5928 6.10139 12.4107 6.34113L11.8052 7.16367C11.4362 7.65682 11.2365 8.25606 11.2358 8.87202V10.5894C11.2363 10.7393 11.2051 10.8876 11.1444 11.0247C11.0836 11.1617 10.9947 11.2845 10.8833 11.3848L8.30759 13.7169C8.12693 13.8766 7.98006 14.0709 7.87563 14.2883C7.7712 14.5057 7.71133 14.7418 7.69954 14.9827C7.68775 15.2236 7.72428 15.4645 7.80698 15.691C7.88967 15.9176 8.01686 16.1253 8.18106 16.302ZM22.1353 20.8214C22.0673 20.5859 21.9521 20.3667 21.7967 20.1771C21.6414 19.9876 21.4491 19.8316 21.2316 19.7187L20.8881 19.556L20.2013 16.9437L23.8796 14.8377L25.2353 15.7416L25.172 15.9043C25.0059 16.3402 25.0147 16.8234 25.1967 17.253C25.3786 17.6826 25.7195 18.0252 26.1481 18.2092L28.9859 19.4113L28.6606 21.8247L25.9493 24.8256L23.2379 24.5364C22.8682 24.5002 22.4963 24.5789 22.1729 24.7616C21.8495 24.9444 21.5902 25.2224 21.4304 25.5578L19.0444 30.5653V27.1667L21.9726 22.2134C22.0987 21.9986 22.179 21.76 22.2086 21.5127C22.2381 21.2654 22.2163 21.0147 22.1444 20.7762L22.1353 20.8214ZM20.2374 31.894C20.4092 31.7413 20.5503 31.5573 20.6531 31.3517L23.0301 26.3261L25.7414 26.6153C26.0242 26.6444 26.31 26.6064 26.5754 26.5043C26.8408 26.4022 27.0783 26.239 27.2688 26.0278L29.9801 23.0269C30.2197 22.7587 30.3739 22.4251 30.4229 22.0688L30.7483 19.6554C30.8002 19.265 30.7233 18.8684 30.5291 18.5257C30.335 18.1831 30.0343 17.9133 29.6728 17.7572L26.835 16.546L26.8982 16.3924C27.0444 16.0121 27.0578 15.5937 26.9364 15.2049C26.815 14.8161 26.5659 14.4796 26.2294 14.2501L24.8647 13.3463C24.5862 13.1593 24.2612 13.0535 23.926 13.0407C23.5908 13.0279 23.2587 13.1087 22.9668 13.2739L19.2794 15.38C18.937 15.577 18.6686 15.8807 18.5152 16.2447C18.3618 16.6088 18.3318 17.013 18.4299 17.3957L19.1077 20.0169C19.1739 20.2689 19.2939 20.5035 19.4592 20.7047C19.6246 20.906 19.8314 21.0691 20.0657 21.183L20.4091 21.3366L17.4809 26.2899C17.3184 26.5637 17.2311 26.8755 17.2278 27.1938V30.5653C17.2338 30.9049 17.3353 31.2359 17.5207 31.5205C17.7062 31.8051 17.968 32.0316 18.2762 32.1742C17.8424 32.1742 17.3724 32.2375 16.9477 32.2375C13.3623 32.2315 9.89596 30.9499 7.16883 28.6219L7.95512 28.7937C8.08129 28.807 8.20852 28.807 8.3347 28.7937C8.71807 28.7896 9.09114 28.669 9.40432 28.4478C9.7175 28.2266 9.95596 27.9153 10.088 27.5554L14.7153 28.6039C15.0094 28.6818 15.3184 28.6842 15.6136 28.6109C15.9089 28.5376 16.1809 28.3909 16.4044 28.1845C16.6279 27.9781 16.7957 27.7186 16.8922 27.4301C16.9888 27.1416 17.011 26.8333 16.9567 26.534L16.8482 25.9736C16.8014 25.7191 16.7005 25.4778 16.5524 25.2657C16.4043 25.0536 16.2124 24.8758 15.9897 24.7443L12.5824 22.6653L16.9567 18.2996C17.1289 18.1312 17.2657 17.9301 17.359 17.7082C17.4524 17.4862 17.5005 17.2478 17.5005 17.007C17.5005 16.7662 17.4524 16.5278 17.359 16.3058C17.2657 16.0839 17.1289 15.8828 16.9567 15.7144L15.6914 14.449C15.4151 14.168 15.0545 13.985 14.6646 13.9279C14.2746 13.8707 13.8767 13.9427 13.5314 14.1326L10.2417 15.8681L9.53672 15.0546L12.1125 12.7226C12.4024 12.4488 12.6324 12.1179 12.788 11.7508C12.9436 11.3836 13.0213 10.9881 13.0162 10.5894V8.93529C13.0156 8.7075 13.0885 8.48558 13.2241 8.30257L13.8296 7.48003C13.8432 7.46191 13.861 7.44746 13.8815 7.43799C13.902 7.42852 13.9246 7.42433 13.9471 7.4258C13.9696 7.42509 13.9919 7.42962 14.0123 7.43904C14.0327 7.44845 14.0506 7.46249 14.0646 7.48003L14.5346 8.08563C14.8021 8.43253 15.1459 8.71323 15.5392 8.90602C15.9326 9.0988 16.365 9.19851 16.8031 9.19742H19.0444C19.8059 9.19503 20.5355 8.89143 21.074 8.3529C21.6125 7.81437 21.916 7.08465 21.9184 6.32306V4.56048C21.9191 4.53395 21.927 4.50811 21.9413 4.48579C21.9557 4.46348 21.9759 4.44553 21.9998 4.43393L23.8977 3.4487C26.6847 4.87182 28.9647 7.12049 30.4264 9.88774C31.8881 12.655 32.4603 15.806 32.0649 18.9105C31.6694 22.0151 30.3256 24.922 28.2169 27.2344C26.1082 29.5467 23.3374 31.1519 20.2826 31.8307L20.2374 31.894Z" fill="#C1CBC4"/>
</svg>
