<svg width="42" height="39" viewBox="0 0 42 39" fill="none" xmlns="http://www.w3.org/2000/svg">
<g id="Vector">
<mask id="path-1-outside-1_13_35370" maskUnits="userSpaceOnUse" x="0" y="0" width="42" height="39" fill="black">
<rect fill="white" width="42" height="39"/>
<path d="M4.22679 12.1484L5.54677 9.99434C5.58585 9.93305 5.61215 9.86471 5.62412 9.79331C5.6361 9.7219 5.63352 9.64886 5.61653 9.57845C5.59953 9.50804 5.56848 9.44167 5.52516 9.38321C5.48185 9.32476 5.42715 9.27539 5.36425 9.23799C5.30136 9.20059 5.23153 9.17591 5.15885 9.16539C5.08617 9.15487 5.01209 9.15872 4.94094 9.17672C4.86978 9.19471 4.80298 9.22649 4.74443 9.2702C4.68588 9.31391 4.63675 9.36868 4.59992 9.4313L3.27994 11.5868C3.24086 11.6481 3.21456 11.7165 3.20259 11.7879C3.19061 11.8593 3.19319 11.9323 3.21019 12.0027C3.22718 12.0731 3.25824 12.1395 3.30155 12.198C3.34486 12.2564 3.39956 12.3058 3.46246 12.3432C3.52535 12.3806 3.59518 12.4053 3.66786 12.4158C3.74054 12.4263 3.81462 12.4224 3.88577 12.4044C3.95693 12.3865 4.02373 12.3547 4.08228 12.311C4.14083 12.2673 4.18996 12.2125 4.22679 12.1499V12.1484ZM4.19729 8.67429C4.13911 8.5418 4.02994 8.43748 3.89376 8.38422C3.75757 8.33097 3.6055 8.33312 3.47093 8.39022L1.34494 9.29181C1.27673 9.31911 1.21473 9.35955 1.16259 9.41076C1.11045 9.46197 1.06921 9.52293 1.04129 9.59005C1.01338 9.65717 0.999346 9.72911 1.00002 9.80165C1.0007 9.87418 1.01607 9.94585 1.04523 10.0125C1.0744 10.0791 1.11677 10.1393 1.16986 10.1895C1.22295 10.2398 1.28569 10.2791 1.3544 10.3051C1.42312 10.3312 1.49642 10.3435 1.57001 10.3413C1.64361 10.339 1.71601 10.3224 1.78297 10.2922L3.90822 9.39061C3.97496 9.3623 4.03539 9.32131 4.08604 9.26998C4.13669 9.21865 4.17658 9.15799 4.20342 9.09146C4.23027 9.02494 4.24355 8.95386 4.24249 8.88227C4.24144 8.81069 4.22608 8.74002 4.19729 8.67429ZM37.4001 9.4313C37.3632 9.36868 37.3141 9.31391 37.2556 9.2702C37.197 9.22649 37.1302 9.19471 37.0591 9.17672C36.9879 9.15872 36.9138 9.15487 36.8411 9.16539C36.7685 9.17591 36.6986 9.20059 36.6357 9.23799C36.5729 9.27539 36.5182 9.32476 36.4748 9.38321C36.4315 9.44167 36.4005 9.50804 36.3835 9.57845C36.3665 9.64886 36.3639 9.7219 36.3759 9.79331C36.3879 9.86471 36.4141 9.93305 36.4532 9.99434L37.7732 12.1484C37.809 12.2128 37.8576 12.2695 37.9162 12.3149C37.9748 12.3604 38.0421 12.3937 38.114 12.4128C38.186 12.432 38.2611 12.4366 38.335 12.4265C38.4088 12.4163 38.4798 12.3915 38.5436 12.3537C38.6075 12.3158 38.6629 12.2656 38.7066 12.206C38.7503 12.1465 38.7813 12.0789 38.7978 12.0073C38.8142 11.9357 38.8159 11.8615 38.8025 11.7892C38.7892 11.717 38.7611 11.6481 38.7201 11.5868L37.4001 9.4313ZM36.3752 36.9103H25.4245V36.3654C25.4242 35.9362 25.2527 35.5243 24.947 35.2186C24.6414 34.9128 24.226 34.7376 23.7904 34.7307V25.0872C23.7901 24.7296 23.6917 24.3788 23.5055 24.0718C23.3194 23.7649 23.0524 23.5132 22.7329 23.3436V13.5838C22.7331 13.3458 22.6826 13.1105 22.5847 12.893C22.4868 12.6755 22.3436 12.4806 22.1644 12.3211L23.9069 9.52625C24.3426 8.82956 25.0049 8.29873 25.7859 8.02021L27.6368 7.36636L27.6825 8.09286C27.6883 8.18639 27.7185 8.27686 27.7701 8.35552C27.8218 8.43418 27.8932 8.49835 27.9775 8.54184C28.0617 8.58545 28.1559 8.60689 28.251 8.60409C28.3461 8.60129 28.4388 8.57434 28.5202 8.52586L31.3689 6.82585C31.8696 7.36273 32.61 7.64679 33.4079 7.64606C34.074 7.64095 34.7261 7.4571 35.2942 7.11427C36.6702 6.29623 37.3066 4.78365 36.8634 3.5595L37.193 3.36334C37.2641 3.321 37.3246 3.26345 37.3701 3.19494C37.4155 3.12644 37.4448 3.04874 37.4556 2.9676C37.4664 2.88646 37.4586 2.80396 37.4327 2.7262C37.4068 2.64845 37.3634 2.57743 37.3059 2.51842L36.3716 1.56307C36.349 1.53934 36.3244 1.5177 36.2978 1.49841C35.8686 1.19491 35.3583 1.0223 34.8304 1.00202C34.3025 0.98174 33.7801 1.11469 33.3282 1.38435L27.7673 4.68993C27.6807 4.74141 27.6101 4.8153 27.5632 4.90355C27.5163 4.99181 27.4948 5.09105 27.5011 5.19049L27.5631 6.23084L25.4105 6.99512C24.3933 7.35771 23.5309 8.04915 22.9638 8.95667L21.1394 11.8837C21.0937 11.8837 21.0472 11.8772 21 11.8772C20.9528 11.8772 20.9063 11.8772 20.8606 11.8837L19.0362 8.95667C18.4691 8.04915 17.6067 7.35771 16.5895 6.99512L14.4369 6.23084L14.5018 5.19049C14.5082 5.09105 14.4867 4.99181 14.4398 4.90355C14.3928 4.8153 14.3222 4.74141 14.2356 4.68993L8.67178 1.38435C8.22012 1.11515 7.6982 0.982461 7.17072 1.00274C6.64324 1.02301 6.13339 1.19536 5.7044 1.49841C5.67786 1.5177 5.65318 1.53934 5.63066 1.56307L4.69413 2.51842C4.63658 2.57743 4.59324 2.64845 4.56732 2.7262C4.5414 2.80396 4.53357 2.88646 4.5444 2.9676C4.55524 3.04874 4.58446 3.12644 4.62991 3.19494C4.67536 3.26345 4.73587 3.321 4.80696 3.36334L5.13658 3.55877C4.69413 4.78147 5.32905 6.2955 6.70655 7.11427C7.27443 7.45687 7.92627 7.64071 8.59214 7.64606C9.38929 7.64606 10.1304 7.36273 10.6304 6.82585L13.4783 8.51932C13.5599 8.5678 13.6529 8.59467 13.7482 8.59733C13.8435 8.59998 13.9378 8.57833 14.0221 8.53447C14.1064 8.49061 14.1778 8.42604 14.2293 8.34701C14.2807 8.26798 14.3106 8.17718 14.316 8.08342L14.3617 7.35692L16.2127 8.01077C16.9937 8.28928 17.6559 8.82012 18.0916 9.5168L19.8341 12.3117C19.655 12.4712 19.5118 12.666 19.4138 12.8835C19.3159 13.101 19.2654 13.3364 19.2656 13.5743V23.3436C18.9461 23.5132 18.6792 23.7649 18.493 24.0718C18.3068 24.3788 18.2084 24.7296 18.2081 25.0872V34.7307C17.7728 34.738 17.3578 34.9133 17.0524 35.2191C16.7471 35.5248 16.5758 35.9365 16.5755 36.3654V36.9103H5.62476C5.47807 36.9103 5.3374 36.9677 5.23368 37.0698C5.12996 37.172 5.07169 37.3106 5.07169 37.4551C5.07169 37.5996 5.12996 37.7382 5.23368 37.8404C5.3374 37.9426 5.47807 38 5.62476 38H36.3752C36.5219 38 36.6626 37.9426 36.7663 37.8404C36.87 37.7382 36.9283 37.5996 36.9283 37.4551C36.9283 37.3106 36.87 37.172 36.7663 37.0698C36.6626 36.9677 36.5219 36.9103 36.3752 36.9103ZM34.7219 6.17926C33.8887 6.67546 32.9271 6.67764 32.3511 6.23956L35.8819 4.14506C36.0065 4.84758 35.5567 5.68524 34.7219 6.17926ZM33.9005 2.31427C34.1601 2.15944 34.4593 2.08105 34.7627 2.08839C35.0662 2.09573 35.3611 2.18848 35.6128 2.35568L36.0279 2.78069L28.7304 7.12371L28.6965 6.58319L28.6227 5.45712L33.9005 2.31427ZM7.27806 6.17926C6.44329 5.68524 5.99273 4.84686 6.11809 4.14506L9.64887 6.24392C9.07442 6.67909 8.11208 6.67764 7.27806 6.17926ZM13.3035 6.57665L13.2696 7.12371L5.96913 2.78432L6.3843 2.35932C6.63608 2.19213 6.93114 2.0994 7.23467 2.09206C7.53821 2.08473 7.83754 2.16309 8.09733 2.31791L13.3743 5.45276L13.3035 6.57665ZM20.3732 13.5816C20.3732 13.4178 20.4392 13.2607 20.5568 13.1449C20.6743 13.0291 20.8338 12.9641 21 12.9641C21.1662 12.9641 21.3257 13.0291 21.4432 13.1449C21.5608 13.2607 21.6268 13.4178 21.6268 13.5816V23.1067H20.3732V13.5816ZM19.3157 25.0872C19.3159 24.851 19.4112 24.6246 19.5807 24.4576C19.7502 24.2906 19.9801 24.1967 20.2198 24.1965H21.7802C22.0199 24.1967 22.2498 24.2906 22.4193 24.4576C22.5888 24.6246 22.6841 24.851 22.6843 25.0872V34.7307H19.3157V25.0872ZM24.3184 36.9103H17.6816V36.3654C17.6816 36.2209 17.7399 36.0823 17.8436 35.9801C17.9473 35.8779 18.088 35.8205 18.2347 35.8205H23.7653C23.912 35.8205 24.0527 35.8779 24.1564 35.9801C24.2601 36.0823 24.3184 36.2209 24.3184 36.3654V36.9103ZM40.6551 9.29181L38.5291 8.39022C38.3943 8.33309 38.242 8.33104 38.1058 8.38452C37.9695 8.43799 37.8603 8.54262 37.8023 8.67537C37.7444 8.80813 37.7423 8.95815 37.7965 9.09242C37.8508 9.22669 37.957 9.33421 38.0918 9.39134L40.217 10.2929C40.284 10.3231 40.3564 10.3398 40.43 10.342C40.5036 10.3442 40.5769 10.3319 40.6456 10.3059C40.7143 10.2798 40.7771 10.2405 40.8301 10.1902C40.8832 10.14 40.9256 10.0798 40.9548 10.0132C40.9839 9.94658 40.9993 9.87491 41 9.80237C41.0007 9.72984 40.9866 9.6579 40.9587 9.59078C40.9308 9.52365 40.8896 9.4627 40.8374 9.41149C40.7853 9.36027 40.7233 9.31911 40.6551 9.29181ZM34.9917 10.4927L34.811 12.7659C34.7996 12.91 34.8467 13.0525 34.942 13.1623C35.0373 13.2721 35.1729 13.3402 35.3191 13.3515C35.3338 13.3515 35.3486 13.3515 35.3633 13.3515C35.5024 13.3512 35.6362 13.2993 35.7381 13.2061C35.8401 13.1129 35.9027 12.9853 35.9134 12.8488L36.0941 10.5755C36.1016 10.5033 36.0944 10.4302 36.0728 10.3608C36.0513 10.2913 36.0158 10.2268 35.9686 10.171C35.9213 10.1152 35.8632 10.0693 35.7977 10.0359C35.7322 10.0026 35.6606 9.9825 35.5871 9.97684C35.5135 9.97117 35.4396 9.98004 35.3696 10.0029C35.2996 10.0258 35.235 10.0623 35.1795 10.1101C35.1241 10.158 35.0789 10.2163 35.0466 10.2816C35.0143 10.347 34.9957 10.418 34.9917 10.4905V10.4927ZM6.63668 13.3537C6.65143 13.3537 6.66618 13.3537 6.68093 13.3537C6.8271 13.3424 6.96274 13.2743 7.05802 13.1645C7.15329 13.0547 7.20041 12.9121 7.18901 12.7681L7.00834 10.4949C6.9969 10.3504 6.92766 10.2163 6.81585 10.1221C6.70404 10.0278 6.55882 9.98125 6.41214 9.99252C6.26546 10.0038 6.12933 10.072 6.0337 10.1822C5.93807 10.2923 5.89077 10.4354 5.90221 10.5799L6.08288 12.8531C6.09421 12.9899 6.15755 13.1175 6.26022 13.2103C6.3629 13.3031 6.49734 13.3543 6.63668 13.3537Z"/>
</mask>
<path d="M4.22679 12.1484L5.54677 9.99434C5.58585 9.93305 5.61215 9.86471 5.62412 9.79331C5.6361 9.7219 5.63352 9.64886 5.61653 9.57845C5.59953 9.50804 5.56848 9.44167 5.52516 9.38321C5.48185 9.32476 5.42715 9.27539 5.36425 9.23799C5.30136 9.20059 5.23153 9.17591 5.15885 9.16539C5.08617 9.15487 5.01209 9.15872 4.94094 9.17672C4.86978 9.19471 4.80298 9.22649 4.74443 9.2702C4.68588 9.31391 4.63675 9.36868 4.59992 9.4313L3.27994 11.5868C3.24086 11.6481 3.21456 11.7165 3.20259 11.7879C3.19061 11.8593 3.19319 11.9323 3.21019 12.0027C3.22718 12.0731 3.25824 12.1395 3.30155 12.198C3.34486 12.2564 3.39956 12.3058 3.46246 12.3432C3.52535 12.3806 3.59518 12.4053 3.66786 12.4158C3.74054 12.4263 3.81462 12.4224 3.88577 12.4044C3.95693 12.3865 4.02373 12.3547 4.08228 12.311C4.14083 12.2673 4.18996 12.2125 4.22679 12.1499V12.1484ZM4.19729 8.67429C4.13911 8.5418 4.02994 8.43748 3.89376 8.38422C3.75757 8.33097 3.6055 8.33312 3.47093 8.39022L1.34494 9.29181C1.27673 9.31911 1.21473 9.35955 1.16259 9.41076C1.11045 9.46197 1.06921 9.52293 1.04129 9.59005C1.01338 9.65717 0.999346 9.72911 1.00002 9.80165C1.0007 9.87418 1.01607 9.94585 1.04523 10.0125C1.0744 10.0791 1.11677 10.1393 1.16986 10.1895C1.22295 10.2398 1.28569 10.2791 1.3544 10.3051C1.42312 10.3312 1.49642 10.3435 1.57001 10.3413C1.64361 10.339 1.71601 10.3224 1.78297 10.2922L3.90822 9.39061C3.97496 9.3623 4.03539 9.32131 4.08604 9.26998C4.13669 9.21865 4.17658 9.15799 4.20342 9.09146C4.23027 9.02494 4.24355 8.95386 4.24249 8.88227C4.24144 8.81069 4.22608 8.74002 4.19729 8.67429ZM37.4001 9.4313C37.3632 9.36868 37.3141 9.31391 37.2556 9.2702C37.197 9.22649 37.1302 9.19471 37.0591 9.17672C36.9879 9.15872 36.9138 9.15487 36.8411 9.16539C36.7685 9.17591 36.6986 9.20059 36.6357 9.23799C36.5729 9.27539 36.5182 9.32476 36.4748 9.38321C36.4315 9.44167 36.4005 9.50804 36.3835 9.57845C36.3665 9.64886 36.3639 9.7219 36.3759 9.79331C36.3879 9.86471 36.4141 9.93305 36.4532 9.99434L37.7732 12.1484C37.809 12.2128 37.8576 12.2695 37.9162 12.3149C37.9748 12.3604 38.0421 12.3937 38.114 12.4128C38.186 12.432 38.2611 12.4366 38.335 12.4265C38.4088 12.4163 38.4798 12.3915 38.5436 12.3537C38.6075 12.3158 38.6629 12.2656 38.7066 12.206C38.7503 12.1465 38.7813 12.0789 38.7978 12.0073C38.8142 11.9357 38.8159 11.8615 38.8025 11.7892C38.7892 11.717 38.7611 11.6481 38.7201 11.5868L37.4001 9.4313ZM36.3752 36.9103H25.4245V36.3654C25.4242 35.9362 25.2527 35.5243 24.947 35.2186C24.6414 34.9128 24.226 34.7376 23.7904 34.7307V25.0872C23.7901 24.7296 23.6917 24.3788 23.5055 24.0718C23.3194 23.7649 23.0524 23.5132 22.7329 23.3436V13.5838C22.7331 13.3458 22.6826 13.1105 22.5847 12.893C22.4868 12.6755 22.3436 12.4806 22.1644 12.3211L23.9069 9.52625C24.3426 8.82956 25.0049 8.29873 25.7859 8.02021L27.6368 7.36636L27.6825 8.09286C27.6883 8.18639 27.7185 8.27686 27.7701 8.35552C27.8218 8.43418 27.8932 8.49835 27.9775 8.54184C28.0617 8.58545 28.1559 8.60689 28.251 8.60409C28.3461 8.60129 28.4388 8.57434 28.5202 8.52586L31.3689 6.82585C31.8696 7.36273 32.61 7.64679 33.4079 7.64606C34.074 7.64095 34.7261 7.4571 35.2942 7.11427C36.6702 6.29623 37.3066 4.78365 36.8634 3.5595L37.193 3.36334C37.2641 3.321 37.3246 3.26345 37.3701 3.19494C37.4155 3.12644 37.4448 3.04874 37.4556 2.9676C37.4664 2.88646 37.4586 2.80396 37.4327 2.7262C37.4068 2.64845 37.3634 2.57743 37.3059 2.51842L36.3716 1.56307C36.349 1.53934 36.3244 1.5177 36.2978 1.49841C35.8686 1.19491 35.3583 1.0223 34.8304 1.00202C34.3025 0.98174 33.7801 1.11469 33.3282 1.38435L27.7673 4.68993C27.6807 4.74141 27.6101 4.8153 27.5632 4.90355C27.5163 4.99181 27.4948 5.09105 27.5011 5.19049L27.5631 6.23084L25.4105 6.99512C24.3933 7.35771 23.5309 8.04915 22.9638 8.95667L21.1394 11.8837C21.0937 11.8837 21.0472 11.8772 21 11.8772C20.9528 11.8772 20.9063 11.8772 20.8606 11.8837L19.0362 8.95667C18.4691 8.04915 17.6067 7.35771 16.5895 6.99512L14.4369 6.23084L14.5018 5.19049C14.5082 5.09105 14.4867 4.99181 14.4398 4.90355C14.3928 4.8153 14.3222 4.74141 14.2356 4.68993L8.67178 1.38435C8.22012 1.11515 7.6982 0.982461 7.17072 1.00274C6.64324 1.02301 6.13339 1.19536 5.7044 1.49841C5.67786 1.5177 5.65318 1.53934 5.63066 1.56307L4.69413 2.51842C4.63658 2.57743 4.59324 2.64845 4.56732 2.7262C4.5414 2.80396 4.53357 2.88646 4.5444 2.9676C4.55524 3.04874 4.58446 3.12644 4.62991 3.19494C4.67536 3.26345 4.73587 3.321 4.80696 3.36334L5.13658 3.55877C4.69413 4.78147 5.32905 6.2955 6.70655 7.11427C7.27443 7.45687 7.92627 7.64071 8.59214 7.64606C9.38929 7.64606 10.1304 7.36273 10.6304 6.82585L13.4783 8.51932C13.5599 8.5678 13.6529 8.59467 13.7482 8.59733C13.8435 8.59998 13.9378 8.57833 14.0221 8.53447C14.1064 8.49061 14.1778 8.42604 14.2293 8.34701C14.2807 8.26798 14.3106 8.17718 14.316 8.08342L14.3617 7.35692L16.2127 8.01077C16.9937 8.28928 17.6559 8.82012 18.0916 9.5168L19.8341 12.3117C19.655 12.4712 19.5118 12.666 19.4138 12.8835C19.3159 13.101 19.2654 13.3364 19.2656 13.5743V23.3436C18.9461 23.5132 18.6792 23.7649 18.493 24.0718C18.3068 24.3788 18.2084 24.7296 18.2081 25.0872V34.7307C17.7728 34.738 17.3578 34.9133 17.0524 35.2191C16.7471 35.5248 16.5758 35.9365 16.5755 36.3654V36.9103H5.62476C5.47807 36.9103 5.3374 36.9677 5.23368 37.0698C5.12996 37.172 5.07169 37.3106 5.07169 37.4551C5.07169 37.5996 5.12996 37.7382 5.23368 37.8404C5.3374 37.9426 5.47807 38 5.62476 38H36.3752C36.5219 38 36.6626 37.9426 36.7663 37.8404C36.87 37.7382 36.9283 37.5996 36.9283 37.4551C36.9283 37.3106 36.87 37.172 36.7663 37.0698C36.6626 36.9677 36.5219 36.9103 36.3752 36.9103ZM34.7219 6.17926C33.8887 6.67546 32.9271 6.67764 32.3511 6.23956L35.8819 4.14506C36.0065 4.84758 35.5567 5.68524 34.7219 6.17926ZM33.9005 2.31427C34.1601 2.15944 34.4593 2.08105 34.7627 2.08839C35.0662 2.09573 35.3611 2.18848 35.6128 2.35568L36.0279 2.78069L28.7304 7.12371L28.6965 6.58319L28.6227 5.45712L33.9005 2.31427ZM7.27806 6.17926C6.44329 5.68524 5.99273 4.84686 6.11809 4.14506L9.64887 6.24392C9.07442 6.67909 8.11208 6.67764 7.27806 6.17926ZM13.3035 6.57665L13.2696 7.12371L5.96913 2.78432L6.3843 2.35932C6.63608 2.19213 6.93114 2.0994 7.23467 2.09206C7.53821 2.08473 7.83754 2.16309 8.09733 2.31791L13.3743 5.45276L13.3035 6.57665ZM20.3732 13.5816C20.3732 13.4178 20.4392 13.2607 20.5568 13.1449C20.6743 13.0291 20.8338 12.9641 21 12.9641C21.1662 12.9641 21.3257 13.0291 21.4432 13.1449C21.5608 13.2607 21.6268 13.4178 21.6268 13.5816V23.1067H20.3732V13.5816ZM19.3157 25.0872C19.3159 24.851 19.4112 24.6246 19.5807 24.4576C19.7502 24.2906 19.9801 24.1967 20.2198 24.1965H21.7802C22.0199 24.1967 22.2498 24.2906 22.4193 24.4576C22.5888 24.6246 22.6841 24.851 22.6843 25.0872V34.7307H19.3157V25.0872ZM24.3184 36.9103H17.6816V36.3654C17.6816 36.2209 17.7399 36.0823 17.8436 35.9801C17.9473 35.8779 18.088 35.8205 18.2347 35.8205H23.7653C23.912 35.8205 24.0527 35.8779 24.1564 35.9801C24.2601 36.0823 24.3184 36.2209 24.3184 36.3654V36.9103ZM40.6551 9.29181L38.5291 8.39022C38.3943 8.33309 38.242 8.33104 38.1058 8.38452C37.9695 8.43799 37.8603 8.54262 37.8023 8.67537C37.7444 8.80813 37.7423 8.95815 37.7965 9.09242C37.8508 9.22669 37.957 9.33421 38.0918 9.39134L40.217 10.2929C40.284 10.3231 40.3564 10.3398 40.43 10.342C40.5036 10.3442 40.5769 10.3319 40.6456 10.3059C40.7143 10.2798 40.7771 10.2405 40.8301 10.1902C40.8832 10.14 40.9256 10.0798 40.9548 10.0132C40.9839 9.94658 40.9993 9.87491 41 9.80237C41.0007 9.72984 40.9866 9.6579 40.9587 9.59078C40.9308 9.52365 40.8896 9.4627 40.8374 9.41149C40.7853 9.36027 40.7233 9.31911 40.6551 9.29181ZM34.9917 10.4927L34.811 12.7659C34.7996 12.91 34.8467 13.0525 34.942 13.1623C35.0373 13.2721 35.1729 13.3402 35.3191 13.3515C35.3338 13.3515 35.3486 13.3515 35.3633 13.3515C35.5024 13.3512 35.6362 13.2993 35.7381 13.2061C35.8401 13.1129 35.9027 12.9853 35.9134 12.8488L36.0941 10.5755C36.1016 10.5033 36.0944 10.4302 36.0728 10.3608C36.0513 10.2913 36.0158 10.2268 35.9686 10.171C35.9213 10.1152 35.8632 10.0693 35.7977 10.0359C35.7322 10.0026 35.6606 9.9825 35.5871 9.97684C35.5135 9.97117 35.4396 9.98004 35.3696 10.0029C35.2996 10.0258 35.235 10.0623 35.1795 10.1101C35.1241 10.158 35.0789 10.2163 35.0466 10.2816C35.0143 10.347 34.9957 10.418 34.9917 10.4905V10.4927ZM6.63668 13.3537C6.65143 13.3537 6.66618 13.3537 6.68093 13.3537C6.8271 13.3424 6.96274 13.2743 7.05802 13.1645C7.15329 13.0547 7.20041 12.9121 7.18901 12.7681L7.00834 10.4949C6.9969 10.3504 6.92766 10.2163 6.81585 10.1221C6.70404 10.0278 6.55882 9.98125 6.41214 9.99252C6.26546 10.0038 6.12933 10.072 6.0337 10.1822C5.93807 10.2923 5.89077 10.4354 5.90221 10.5799L6.08288 12.8531C6.09421 12.9899 6.15755 13.1175 6.26022 13.2103C6.3629 13.3031 6.49734 13.3543 6.63668 13.3537Z" fill="white"/>
<path d="M4.22679 12.1484L5.54677 9.99434C5.58585 9.93305 5.61215 9.86471 5.62412 9.79331C5.6361 9.7219 5.63352 9.64886 5.61653 9.57845C5.59953 9.50804 5.56848 9.44167 5.52516 9.38321C5.48185 9.32476 5.42715 9.27539 5.36425 9.23799C5.30136 9.20059 5.23153 9.17591 5.15885 9.16539C5.08617 9.15487 5.01209 9.15872 4.94094 9.17672C4.86978 9.19471 4.80298 9.22649 4.74443 9.2702C4.68588 9.31391 4.63675 9.36868 4.59992 9.4313L3.27994 11.5868C3.24086 11.6481 3.21456 11.7165 3.20259 11.7879C3.19061 11.8593 3.19319 11.9323 3.21019 12.0027C3.22718 12.0731 3.25824 12.1395 3.30155 12.198C3.34486 12.2564 3.39956 12.3058 3.46246 12.3432C3.52535 12.3806 3.59518 12.4053 3.66786 12.4158C3.74054 12.4263 3.81462 12.4224 3.88577 12.4044C3.95693 12.3865 4.02373 12.3547 4.08228 12.311C4.14083 12.2673 4.18996 12.2125 4.22679 12.1499V12.1484ZM4.19729 8.67429C4.13911 8.5418 4.02994 8.43748 3.89376 8.38422C3.75757 8.33097 3.6055 8.33312 3.47093 8.39022L1.34494 9.29181C1.27673 9.31911 1.21473 9.35955 1.16259 9.41076C1.11045 9.46197 1.06921 9.52293 1.04129 9.59005C1.01338 9.65717 0.999346 9.72911 1.00002 9.80165C1.0007 9.87418 1.01607 9.94585 1.04523 10.0125C1.0744 10.0791 1.11677 10.1393 1.16986 10.1895C1.22295 10.2398 1.28569 10.2791 1.3544 10.3051C1.42312 10.3312 1.49642 10.3435 1.57001 10.3413C1.64361 10.339 1.71601 10.3224 1.78297 10.2922L3.90822 9.39061C3.97496 9.3623 4.03539 9.32131 4.08604 9.26998C4.13669 9.21865 4.17658 9.15799 4.20342 9.09146C4.23027 9.02494 4.24355 8.95386 4.24249 8.88227C4.24144 8.81069 4.22608 8.74002 4.19729 8.67429ZM37.4001 9.4313C37.3632 9.36868 37.3141 9.31391 37.2556 9.2702C37.197 9.22649 37.1302 9.19471 37.0591 9.17672C36.9879 9.15872 36.9138 9.15487 36.8411 9.16539C36.7685 9.17591 36.6986 9.20059 36.6357 9.23799C36.5729 9.27539 36.5182 9.32476 36.4748 9.38321C36.4315 9.44167 36.4005 9.50804 36.3835 9.57845C36.3665 9.64886 36.3639 9.7219 36.3759 9.79331C36.3879 9.86471 36.4141 9.93305 36.4532 9.99434L37.7732 12.1484C37.809 12.2128 37.8576 12.2695 37.9162 12.3149C37.9748 12.3604 38.0421 12.3937 38.114 12.4128C38.186 12.432 38.2611 12.4366 38.335 12.4265C38.4088 12.4163 38.4798 12.3915 38.5436 12.3537C38.6075 12.3158 38.6629 12.2656 38.7066 12.206C38.7503 12.1465 38.7813 12.0789 38.7978 12.0073C38.8142 11.9357 38.8159 11.8615 38.8025 11.7892C38.7892 11.717 38.7611 11.6481 38.7201 11.5868L37.4001 9.4313ZM36.3752 36.9103H25.4245V36.3654C25.4242 35.9362 25.2527 35.5243 24.947 35.2186C24.6414 34.9128 24.226 34.7376 23.7904 34.7307V25.0872C23.7901 24.7296 23.6917 24.3788 23.5055 24.0718C23.3194 23.7649 23.0524 23.5132 22.7329 23.3436V13.5838C22.7331 13.3458 22.6826 13.1105 22.5847 12.893C22.4868 12.6755 22.3436 12.4806 22.1644 12.3211L23.9069 9.52625C24.3426 8.82956 25.0049 8.29873 25.7859 8.02021L27.6368 7.36636L27.6825 8.09286C27.6883 8.18639 27.7185 8.27686 27.7701 8.35552C27.8218 8.43418 27.8932 8.49835 27.9775 8.54184C28.0617 8.58545 28.1559 8.60689 28.251 8.60409C28.3461 8.60129 28.4388 8.57434 28.5202 8.52586L31.3689 6.82585C31.8696 7.36273 32.61 7.64679 33.4079 7.64606C34.074 7.64095 34.7261 7.4571 35.2942 7.11427C36.6702 6.29623 37.3066 4.78365 36.8634 3.5595L37.193 3.36334C37.2641 3.321 37.3246 3.26345 37.3701 3.19494C37.4155 3.12644 37.4448 3.04874 37.4556 2.9676C37.4664 2.88646 37.4586 2.80396 37.4327 2.7262C37.4068 2.64845 37.3634 2.57743 37.3059 2.51842L36.3716 1.56307C36.349 1.53934 36.3244 1.5177 36.2978 1.49841C35.8686 1.19491 35.3583 1.0223 34.8304 1.00202C34.3025 0.98174 33.7801 1.11469 33.3282 1.38435L27.7673 4.68993C27.6807 4.74141 27.6101 4.8153 27.5632 4.90355C27.5163 4.99181 27.4948 5.09105 27.5011 5.19049L27.5631 6.23084L25.4105 6.99512C24.3933 7.35771 23.5309 8.04915 22.9638 8.95667L21.1394 11.8837C21.0937 11.8837 21.0472 11.8772 21 11.8772C20.9528 11.8772 20.9063 11.8772 20.8606 11.8837L19.0362 8.95667C18.4691 8.04915 17.6067 7.35771 16.5895 6.99512L14.4369 6.23084L14.5018 5.19049C14.5082 5.09105 14.4867 4.99181 14.4398 4.90355C14.3928 4.8153 14.3222 4.74141 14.2356 4.68993L8.67178 1.38435C8.22012 1.11515 7.6982 0.982461 7.17072 1.00274C6.64324 1.02301 6.13339 1.19536 5.7044 1.49841C5.67786 1.5177 5.65318 1.53934 5.63066 1.56307L4.69413 2.51842C4.63658 2.57743 4.59324 2.64845 4.56732 2.7262C4.5414 2.80396 4.53357 2.88646 4.5444 2.9676C4.55524 3.04874 4.58446 3.12644 4.62991 3.19494C4.67536 3.26345 4.73587 3.321 4.80696 3.36334L5.13658 3.55877C4.69413 4.78147 5.32905 6.2955 6.70655 7.11427C7.27443 7.45687 7.92627 7.64071 8.59214 7.64606C9.38929 7.64606 10.1304 7.36273 10.6304 6.82585L13.4783 8.51932C13.5599 8.5678 13.6529 8.59467 13.7482 8.59733C13.8435 8.59998 13.9378 8.57833 14.0221 8.53447C14.1064 8.49061 14.1778 8.42604 14.2293 8.34701C14.2807 8.26798 14.3106 8.17718 14.316 8.08342L14.3617 7.35692L16.2127 8.01077C16.9937 8.28928 17.6559 8.82012 18.0916 9.5168L19.8341 12.3117C19.655 12.4712 19.5118 12.666 19.4138 12.8835C19.3159 13.101 19.2654 13.3364 19.2656 13.5743V23.3436C18.9461 23.5132 18.6792 23.7649 18.493 24.0718C18.3068 24.3788 18.2084 24.7296 18.2081 25.0872V34.7307C17.7728 34.738 17.3578 34.9133 17.0524 35.2191C16.7471 35.5248 16.5758 35.9365 16.5755 36.3654V36.9103H5.62476C5.47807 36.9103 5.3374 36.9677 5.23368 37.0698C5.12996 37.172 5.07169 37.3106 5.07169 37.4551C5.07169 37.5996 5.12996 37.7382 5.23368 37.8404C5.3374 37.9426 5.47807 38 5.62476 38H36.3752C36.5219 38 36.6626 37.9426 36.7663 37.8404C36.87 37.7382 36.9283 37.5996 36.9283 37.4551C36.9283 37.3106 36.87 37.172 36.7663 37.0698C36.6626 36.9677 36.5219 36.9103 36.3752 36.9103ZM34.7219 6.17926C33.8887 6.67546 32.9271 6.67764 32.3511 6.23956L35.8819 4.14506C36.0065 4.84758 35.5567 5.68524 34.7219 6.17926ZM33.9005 2.31427C34.1601 2.15944 34.4593 2.08105 34.7627 2.08839C35.0662 2.09573 35.3611 2.18848 35.6128 2.35568L36.0279 2.78069L28.7304 7.12371L28.6965 6.58319L28.6227 5.45712L33.9005 2.31427ZM7.27806 6.17926C6.44329 5.68524 5.99273 4.84686 6.11809 4.14506L9.64887 6.24392C9.07442 6.67909 8.11208 6.67764 7.27806 6.17926ZM13.3035 6.57665L13.2696 7.12371L5.96913 2.78432L6.3843 2.35932C6.63608 2.19213 6.93114 2.0994 7.23467 2.09206C7.53821 2.08473 7.83754 2.16309 8.09733 2.31791L13.3743 5.45276L13.3035 6.57665ZM20.3732 13.5816C20.3732 13.4178 20.4392 13.2607 20.5568 13.1449C20.6743 13.0291 20.8338 12.9641 21 12.9641C21.1662 12.9641 21.3257 13.0291 21.4432 13.1449C21.5608 13.2607 21.6268 13.4178 21.6268 13.5816V23.1067H20.3732V13.5816ZM19.3157 25.0872C19.3159 24.851 19.4112 24.6246 19.5807 24.4576C19.7502 24.2906 19.9801 24.1967 20.2198 24.1965H21.7802C22.0199 24.1967 22.2498 24.2906 22.4193 24.4576C22.5888 24.6246 22.6841 24.851 22.6843 25.0872V34.7307H19.3157V25.0872ZM24.3184 36.9103H17.6816V36.3654C17.6816 36.2209 17.7399 36.0823 17.8436 35.9801C17.9473 35.8779 18.088 35.8205 18.2347 35.8205H23.7653C23.912 35.8205 24.0527 35.8779 24.1564 35.9801C24.2601 36.0823 24.3184 36.2209 24.3184 36.3654V36.9103ZM40.6551 9.29181L38.5291 8.39022C38.3943 8.33309 38.242 8.33104 38.1058 8.38452C37.9695 8.43799 37.8603 8.54262 37.8023 8.67537C37.7444 8.80813 37.7423 8.95815 37.7965 9.09242C37.8508 9.22669 37.957 9.33421 38.0918 9.39134L40.217 10.2929C40.284 10.3231 40.3564 10.3398 40.43 10.342C40.5036 10.3442 40.5769 10.3319 40.6456 10.3059C40.7143 10.2798 40.7771 10.2405 40.8301 10.1902C40.8832 10.14 40.9256 10.0798 40.9548 10.0132C40.9839 9.94658 40.9993 9.87491 41 9.80237C41.0007 9.72984 40.9866 9.6579 40.9587 9.59078C40.9308 9.52365 40.8896 9.4627 40.8374 9.41149C40.7853 9.36027 40.7233 9.31911 40.6551 9.29181ZM34.9917 10.4927L34.811 12.7659C34.7996 12.91 34.8467 13.0525 34.942 13.1623C35.0373 13.2721 35.1729 13.3402 35.3191 13.3515C35.3338 13.3515 35.3486 13.3515 35.3633 13.3515C35.5024 13.3512 35.6362 13.2993 35.7381 13.2061C35.8401 13.1129 35.9027 12.9853 35.9134 12.8488L36.0941 10.5755C36.1016 10.5033 36.0944 10.4302 36.0728 10.3608C36.0513 10.2913 36.0158 10.2268 35.9686 10.171C35.9213 10.1152 35.8632 10.0693 35.7977 10.0359C35.7322 10.0026 35.6606 9.9825 35.5871 9.97684C35.5135 9.97117 35.4396 9.98004 35.3696 10.0029C35.2996 10.0258 35.235 10.0623 35.1795 10.1101C35.1241 10.158 35.0789 10.2163 35.0466 10.2816C35.0143 10.347 34.9957 10.418 34.9917 10.4905V10.4927ZM6.63668 13.3537C6.65143 13.3537 6.66618 13.3537 6.68093 13.3537C6.8271 13.3424 6.96274 13.2743 7.05802 13.1645C7.15329 13.0547 7.20041 12.9121 7.18901 12.7681L7.00834 10.4949C6.9969 10.3504 6.92766 10.2163 6.81585 10.1221C6.70404 10.0278 6.55882 9.98125 6.41214 9.99252C6.26546 10.0038 6.12933 10.072 6.0337 10.1822C5.93807 10.2923 5.89077 10.4354 5.90221 10.5799L6.08288 12.8531C6.09421 12.9899 6.15755 13.1175 6.26022 13.2103C6.3629 13.3031 6.49734 13.3543 6.63668 13.3537Z" stroke="white" stroke-width="0.4" mask="url(#path-1-outside-1_13_35370)"/>
</g>
</svg>
