<svg width="145" height="74" viewBox="0 0 145 74" fill="none" xmlns="http://www.w3.org/2000/svg">
<path d="M0.118164 30.9557H5.26281V19.4699L12.1802 19.5138C19.0118 19.5138 23.0458 15.5217 23.0458 9.80079C23.0458 4.16954 19.2312 0 12.4455 0H0.118164V30.9557ZM5.26281 15.3462V4.12565H11.7375C15.9948 4.12565 17.8592 6.20946 17.8592 9.7569C17.8592 13.3043 15.9948 15.3462 11.7375 15.3462H5.26281Z" fill="white"/>
<path d="M32.8429 9.0506C33.5527 8.73765 34.4115 8.56018 35.4476 8.56018H37.1307V12.9511H34.9572C31.2323 12.9511 29.637 15.4795 29.637 19.6032V30.9593H24.624V8.78154H29.5473V12.2736C29.5492 12.2736 30.4442 10.1135 32.8429 9.0506Z" fill="white"/>
<path d="M48.1139 31.532C54.5447 31.532 59.3345 27.1851 59.3345 19.9127C59.3345 12.5945 54.5447 8.20557 48.1139 8.20557C41.5953 8.20557 36.8037 12.5945 36.8037 19.9127C36.8056 27.187 41.5953 31.532 48.1139 31.532ZM41.8606 19.9127C41.8606 15.123 43.9883 11.9725 48.1139 11.9725C52.1938 11.9725 54.2795 15.1211 54.2795 19.9127C54.2795 24.6146 52.1957 27.7175 48.07 27.7175C43.9883 27.7194 41.8606 24.6146 41.8606 19.9127Z" fill="white"/>
<path d="M87.4454 8.24979C92.1894 8.24979 94.7178 11.2648 94.7178 16.0545V23.3364C91.5367 23.6761 89.6609 25.5157 89.6609 25.5157V17.6518C89.6609 14.4134 88.5522 12.2399 85.4914 12.2399C82.2092 12.2399 80.3925 14.5909 80.3925 18.3158V30.9542H75.3357V17.6937C75.3357 14.9878 74.5819 12.2399 71.0345 12.2399C67.7523 12.2399 65.8001 14.547 65.8001 19.2471V30.9542H60.7891V8.78028H65.7562V12.1331C65.7562 12.1331 67.9908 7.788 73.0286 8.24598C76.3051 8.24598 78.3717 9.65426 79.4212 12.3831C79.4251 12.3869 81.5279 8.31467 87.4454 8.24979Z" fill="white"/>
<path d="M112.843 31.532C118.919 31.532 122.777 28.6487 122.777 24.3036C122.777 20.2237 119.671 18.8479 116.524 18.3174L111.776 17.5636C109.914 17.2545 108.139 16.9416 108.139 14.8577C108.139 12.6842 110.135 11.6194 112.708 11.6194C115.545 11.6194 117.14 12.8178 117.452 15.0352H122.064C121.663 10.3333 117.85 8.20557 112.795 8.20557C107.073 8.20557 103.435 10.9992 103.435 15.2127C103.435 18.6284 105.431 20.7123 109.334 21.3324L114.347 22.132C116.474 22.443 118.072 22.8877 118.072 24.794C118.072 26.7004 116.12 28.1182 113.15 28.1182C110.133 28.1182 107.782 26.9217 107.427 24.4811H102.64C103.174 29.2708 107.387 31.532 112.843 31.532Z" fill="white"/>
<path d="M134.489 31.5322C139.722 31.5322 143.847 28.4714 144.689 24.1702H139.987C139.187 26.2979 137.594 27.8512 134.533 27.8512C130.631 27.8512 128.503 25.277 128.326 21.1971L145 21.1532V19.6438C145 12.6806 140.83 8.2019 134.402 8.2019C127.925 8.2019 123.446 12.8142 123.446 19.9529C123.446 27.231 127.925 31.5322 134.489 31.5322ZM128.368 18.0962C128.591 14.4152 130.85 11.9745 134.444 11.9745C137.903 11.9745 140.033 14.2358 140.21 18.0523L128.368 18.0962Z" fill="white"/>
<path d="M101.571 25.3109V8.78162H96.5137V23.334C96.5137 23.334 99.3436 23.4255 101.571 25.3109Z" fill="white"/>
<path d="M41.6634 64.712C49.6037 64.712 53.9926 60.4547 53.9926 54.999C53.9926 49.9879 50.5769 47.637 46.1879 46.9271L39.1808 45.8184C37.4481 45.5073 34.7002 44.7975 34.7002 41.605C34.7002 38.5022 37.4481 36.5061 41.3982 36.5061C45.1689 36.5061 47.6515 38.1472 48.1839 41.25H53.0633C52.5309 35.7963 48.2736 32.6915 41.444 32.6915C34.7899 32.6915 29.6452 36.0615 29.6452 42.0057C29.6452 46.0856 32.2195 49.3678 37.1409 50.1215L44.148 51.2302C46.2318 51.5851 48.9377 52.4725 48.9377 55.6211C48.9377 58.327 46.8539 60.8535 41.797 60.8535C37.097 60.8535 34.2575 58.6361 33.8148 55.1326H28.8037C29.3342 60.8096 33.8129 64.712 41.6634 64.712Z" fill="white"/>
<path d="M67.9907 64.6249C73.5342 64.6249 77.7915 60.3676 77.7915 53.0953C77.7915 45.7771 73.4903 41.4759 67.901 41.4759C67.901 41.4759 62.7717 41.1782 60.228 45.7275V42.0522H55.2627V72.9201H60.2738C60.2738 72.9201 60.2451 64.3883 60.2337 60.7569C60.2337 60.755 62.1897 64.5104 67.9907 64.6249ZM60.1841 53.0934C60.1841 48.3914 62.577 45.2886 66.4374 45.2886C70.2959 45.2886 72.6908 48.3036 72.6908 53.0934C72.6908 57.8373 70.2959 60.8561 66.4374 60.8561C62.5789 60.8561 60.1841 57.7495 60.1841 53.0934Z" fill="white"/>
<path d="M89.9291 41.8289H91.6141V46.2178H89.4406C85.7138 46.2178 84.1185 48.7463 84.1185 52.8719V64.2241H79.1074V42.0502H84.0288V44.5405C84.0307 44.5405 85.8455 42.0578 89.9291 41.8289Z" fill="white"/>
<path d="M98.2952 42.0504H93.2383V64.2262H98.2952V42.0504Z" fill="white"/>
<path d="M112.945 41.5175C117.601 41.5175 120.572 44.3112 120.572 49.3681V64.2238H115.515V51.3183C115.515 48.0361 114.052 45.5096 110.815 45.5096C107.222 45.5096 105.184 47.9922 105.184 52.3831V64.2238H100.171V42.0499H105.092V44.273C105.094 44.273 107.867 41.4049 112.945 41.5175Z" fill="white"/>
<path d="M139.187 60.2208V63.7377C139.187 67.7298 136.88 69.5903 132.89 69.5903C129.606 69.5903 127.699 68.1725 127.344 66.1764H122.379C122.955 70.7429 127.301 73.1377 132.756 73.1377C139.319 73.1377 144.244 69.9452 144.244 63.0278V42.0523H139.233V45.3631C139.233 45.3631 137.263 41.3653 131.649 41.4741C126.06 41.4741 121.849 45.8669 121.849 52.8721C121.849 59.7017 125.883 64.0926 131.739 64.0926C131.737 64.0926 137.115 64.5277 139.187 60.2208ZM126.947 52.7824C126.947 48.1702 129.253 45.2868 133.111 45.2868C136.97 45.2868 139.277 48.2579 139.277 52.8263C139.277 57.3947 136.972 60.3219 133.111 60.3219C129.251 60.3219 126.947 57.4843 126.947 52.7824Z" fill="white"/>
<path d="M23.4448 41.2359V39.3792C23.4448 38.3755 24.0593 37.0969 25.0935 37.0969H27.0323V34.412L24.0612 34.4445C21.506 34.4445 19.8878 36.9195 19.8878 39.4078V41.2359H16.3423C15.7622 36.7763 12.4971 34.1487 8.24937 34.1487C3.49401 34.1487 0 37.3488 0 42.6862C0 47.9911 3.49401 51.1627 8.24937 51.1627C12.562 51.1627 15.8633 48.4778 16.3652 43.9208H19.8878V64.4288H23.4791V43.9208H27.1659V41.2359H23.4448ZM8.21503 48.3823C5.23815 48.3823 3.68675 46.1192 3.68675 42.6881C3.68675 39.196 5.23815 36.8985 8.24746 36.8985C11.2224 36.8985 12.7433 39.196 12.7433 42.6881C12.7433 46.1172 11.2243 48.3823 8.21503 48.3823Z" fill="white"/>
<path fill-rule="evenodd" clip-rule="evenodd" d="M98.9395 1.6145C100.247 1.6145 101.302 2.67358 101.302 3.98073C101.302 5.28407 100.245 6.34315 98.9395 6.34315C97.6323 6.34315 96.5732 5.28407 96.5732 3.98073C96.5732 2.67358 97.6323 1.6145 98.9395 1.6145Z" fill="white"/>
<path fill-rule="evenodd" clip-rule="evenodd" d="M95.676 27.3645C98.7445 27.3645 101.231 29.851 101.231 32.9194C101.231 35.986 98.7445 38.4724 95.676 38.4724C92.6075 38.4724 90.1211 35.986 90.1211 32.9194C90.1192 29.8529 92.6056 27.3645 95.676 27.3645Z" fill="white"/>
</svg>
