<svg width="45" height="37" viewBox="0 0 45 37" fill="none" xmlns="http://www.w3.org/2000/svg">
<mask id="path-1-outside-1_13_35928" maskUnits="userSpaceOnUse" x="0" y="0" width="45" height="37" fill="black">
<rect fill="white" width="45" height="37"/>
<path d="M43.5053 35.0279H30.2103V27.7368C31.1322 28.2229 33.0731 29.0006 35.3051 29.0006C36.1785 29.0006 37.0519 28.8548 37.9738 28.5631C40.3999 27.6882 42.1952 25.5495 43.3112 22.2442C44.3302 19.182 44.2331 16.6545 42.923 14.7102C41.2733 12.1826 38.1193 11.3563 36.6637 11.1133C37.2459 10.0925 38.1193 8.05104 37.1004 5.37766C36.0329 2.41264 32.7334 2.26682 30.8896 2.60706C30.647 2.36403 30.3558 2.121 30.0162 1.87796C28.8031 1.05164 27.2504 0.80861 25.7948 1.14886C24.4361 1.48911 23.2716 2.31542 22.5923 3.5306C22.3497 3.91945 22.2041 4.35691 22.1556 4.74577C20.5544 4.35691 18.4194 5.47487 17.546 6.00955C17.3519 5.81512 17.1578 5.6693 16.9152 5.52348C16.1389 4.69716 15.0714 4.2597 13.9554 4.40552C12.4512 4.55134 10.947 5.57209 10.1221 6.98169C9.5884 7.85661 9.53988 8.78014 9.87953 9.60646C9.87953 9.65507 9.83101 9.65506 9.83101 9.70367C7.74456 9.75228 6.67708 11.3563 6.38594 11.891C5.99777 12.5229 5.90072 13.2034 6.04629 13.8353C5.4155 14.0297 4.39654 14.4671 3.8628 15.3421C3.47462 16.0226 3.4261 16.8489 3.76575 17.7724C3.95984 18.3071 4.2995 18.6473 4.63915 18.8418C4.49359 18.8904 4.34802 18.9876 4.20245 19.0848C2.35862 20.1542 1 23.3622 1.48522 25.5981C2.11601 28.5145 5.22142 30.313 9.05465 30.313C9.78249 30.313 10.5103 30.2644 11.2867 30.1186V35.0279H1.48522C1.19409 35.0279 1 35.2223 1 35.5139C1 35.8056 1.19409 36 1.48522 36H43.5053C43.7964 36 43.9905 35.8056 43.9905 35.5139C43.9905 35.2223 43.7964 35.0279 43.5053 35.0279ZM25.0184 28.0771C24.4847 28.4659 23.9509 28.709 23.3687 28.8548C20.5544 29.6811 17.6916 28.1743 17.1093 27.834V23.4108C19.2443 26.8619 21.8159 28.0771 25.0184 28.0771ZM17.1093 28.952C17.9827 29.3895 19.7295 30.07 21.7189 30.07C22.1556 30.07 22.6408 30.0214 23.0775 29.9241V35.0279H17.1093V28.952ZM23.9994 29.6811C24.8728 29.3895 25.7462 28.8548 26.5226 28.0285C27.396 27.9313 28.2694 27.7854 29.2398 27.591V35.0279H23.9994V29.6811ZM23.4657 4.01667C23.9994 3.04453 24.9214 2.36403 26.0374 2.121C27.2019 1.82935 28.4635 2.07239 29.4824 2.70428C29.8221 2.94731 30.1132 3.19035 30.3073 3.43338C30.4043 3.5792 30.5984 3.67642 30.7925 3.62781C30.9866 3.5792 35.0139 2.60707 36.1299 5.71791C37.2945 8.92596 35.4506 11.1133 35.3536 11.2105C35.208 11.3563 35.208 11.5507 35.2565 11.6966C35.3051 11.8424 35.4992 11.9882 35.6932 11.9882C35.7418 11.9882 40.1087 12.3284 42.0496 15.2449C43.1656 16.9461 43.2627 19.182 42.3408 21.904C41.3218 24.9176 39.7206 26.8619 37.5856 27.6396C34.3346 28.8062 30.744 26.9591 30.1617 26.6189V21.4179C30.8896 20.6888 33.2671 18.5015 35.2565 19.2306C35.4506 19.2792 35.6447 19.182 35.7418 19.0362C35.7903 18.8418 35.6932 18.6473 35.5477 18.5501C33.5098 17.7724 31.3263 19.3764 30.2103 20.3972V7.56497C30.2103 7.27333 30.0162 7.0789 29.725 7.0789C29.4339 7.0789 29.2398 7.27333 29.2398 7.56497V13.8839C28.5605 12.4743 27.493 10.8216 25.8918 10.4814C25.6977 10.4328 25.5036 10.5786 25.4551 10.773C25.4066 10.9675 25.5521 11.1619 25.7462 11.2105C27.6871 11.6479 28.8516 14.7102 29.2398 15.8767V26.5703C22.7864 27.9313 19.681 26.5703 17.0608 21.3207C16.3815 19.9597 16.2844 18.6473 16.7697 17.4808C17.8857 14.6616 21.7674 13.252 21.8159 13.2034C21.9615 13.1548 22.0586 13.0575 22.1071 12.9117C22.1556 12.7659 22.1071 12.6201 22.0586 12.4743C20.9911 10.9675 20.6514 9.70367 20.9911 8.68293C21.4763 7.37054 23.0775 6.88447 23.0775 6.88447C23.2231 6.83587 23.3201 6.73865 23.4172 6.59283C23.5142 6.44701 23.4657 6.30119 23.4172 6.15537C22.9805 5.52348 23.029 4.79438 23.4657 4.01667ZM10.9955 7.41915C11.6748 6.25258 12.8879 5.42626 14.1009 5.28044C14.6832 5.23184 15.5566 5.32905 16.2844 6.15537C16.333 6.20398 16.333 6.20397 16.3815 6.25258C16.6726 6.44701 16.9637 6.69004 17.1093 6.88447C17.2549 7.0789 17.546 7.12751 17.7401 6.98169C18.565 6.3984 20.9425 5.18323 22.1556 5.71791C22.2041 5.86373 22.2041 6.00955 22.2526 6.15537C21.5733 6.44701 20.4573 7.0789 20.0206 8.34268C19.5839 9.55785 19.8751 10.9188 20.8455 12.5229C19.9721 12.9117 18.2738 13.7867 17.0123 15.1476V10.5786C17.0123 10.287 16.8182 10.0925 16.527 10.0925C16.2359 10.0925 16.0418 10.287 16.0418 10.5786V16.5572C15.9448 16.7517 15.8477 16.9461 15.7507 17.1405C15.7507 17.1891 15.7507 17.2377 15.7022 17.2377C15.7022 17.2377 15.7022 17.2377 15.7022 17.2863C15.217 18.6473 15.314 20.1542 16.0418 21.661V23.508C15.3625 22.0984 14.295 20.4458 12.6938 20.1055C12.4997 20.0569 12.3056 20.2028 12.2571 20.3972C12.2086 20.5916 12.3542 20.786 12.5482 20.8347C14.4891 21.2721 15.6537 24.3343 16.0418 25.5009V27.834C13.0335 28.2229 10.8014 27.834 9.44283 26.7647C8.47239 25.987 7.93865 24.869 7.8416 23.3622C7.50195 18.5987 11.3837 16.8489 11.5778 16.7517C11.7234 16.7031 11.8204 16.5572 11.8689 16.46C11.9175 16.3142 11.8689 16.1684 11.8204 16.0712C9.68544 13.0575 10.0736 11.2591 10.4618 10.4814L10.5103 10.4328C10.6074 10.1897 10.7529 10.0925 10.7529 10.0925C10.8985 9.94671 10.947 9.70367 10.85 9.50924C10.5588 8.78014 10.5588 8.09964 10.9955 7.41915ZM2.45566 25.3551C2.06748 23.5566 3.18349 20.7374 4.68767 19.9111C5.36698 19.5223 5.90072 19.3278 5.90072 19.3278C6.04629 19.2792 6.14333 19.182 6.19186 19.0362C6.24038 18.8904 6.19186 18.7446 6.14333 18.5987C5.99777 18.4043 5.80368 18.3071 5.60959 18.2099C5.26994 18.0641 4.93028 17.8696 4.7362 17.4322C4.49359 16.8003 4.49359 16.2656 4.7362 15.8281C5.26994 14.9046 6.77412 14.6616 6.77412 14.6616C6.91969 14.613 7.06525 14.5158 7.11377 14.4185C7.1623 14.3213 7.1623 14.1269 7.11377 13.9811C6.87116 13.495 6.87116 13.0089 7.21082 12.4257C7.40491 12.0854 8.08421 11.0161 9.39431 10.773C9.10318 11.891 9.1517 13.6894 10.8014 16.1684C9.5884 16.8975 6.67708 19.0848 7.01673 23.4594C7.1623 25.2093 7.79308 26.6189 8.95761 27.5424C9.5884 28.0771 10.4133 28.4173 11.3352 28.6604C11.3352 28.709 11.2867 28.7576 11.2867 28.8062V29.1464C6.96821 29.9241 3.08645 28.3201 2.45566 25.3551ZM12.2571 28.8062C13.3731 28.952 14.6832 28.952 16.1389 28.8062V35.0279H12.2571V28.8062Z"/>
</mask>
<path d="M43.5053 35.0279H30.2103V27.7368C31.1322 28.2229 33.0731 29.0006 35.3051 29.0006C36.1785 29.0006 37.0519 28.8548 37.9738 28.5631C40.3999 27.6882 42.1952 25.5495 43.3112 22.2442C44.3302 19.182 44.2331 16.6545 42.923 14.7102C41.2733 12.1826 38.1193 11.3563 36.6637 11.1133C37.2459 10.0925 38.1193 8.05104 37.1004 5.37766C36.0329 2.41264 32.7334 2.26682 30.8896 2.60706C30.647 2.36403 30.3558 2.121 30.0162 1.87796C28.8031 1.05164 27.2504 0.80861 25.7948 1.14886C24.4361 1.48911 23.2716 2.31542 22.5923 3.5306C22.3497 3.91945 22.2041 4.35691 22.1556 4.74577C20.5544 4.35691 18.4194 5.47487 17.546 6.00955C17.3519 5.81512 17.1578 5.6693 16.9152 5.52348C16.1389 4.69716 15.0714 4.2597 13.9554 4.40552C12.4512 4.55134 10.947 5.57209 10.1221 6.98169C9.5884 7.85661 9.53988 8.78014 9.87953 9.60646C9.87953 9.65507 9.83101 9.65506 9.83101 9.70367C7.74456 9.75228 6.67708 11.3563 6.38594 11.891C5.99777 12.5229 5.90072 13.2034 6.04629 13.8353C5.4155 14.0297 4.39654 14.4671 3.8628 15.3421C3.47462 16.0226 3.4261 16.8489 3.76575 17.7724C3.95984 18.3071 4.2995 18.6473 4.63915 18.8418C4.49359 18.8904 4.34802 18.9876 4.20245 19.0848C2.35862 20.1542 1 23.3622 1.48522 25.5981C2.11601 28.5145 5.22142 30.313 9.05465 30.313C9.78249 30.313 10.5103 30.2644 11.2867 30.1186V35.0279H1.48522C1.19409 35.0279 1 35.2223 1 35.5139C1 35.8056 1.19409 36 1.48522 36H43.5053C43.7964 36 43.9905 35.8056 43.9905 35.5139C43.9905 35.2223 43.7964 35.0279 43.5053 35.0279ZM25.0184 28.0771C24.4847 28.4659 23.9509 28.709 23.3687 28.8548C20.5544 29.6811 17.6916 28.1743 17.1093 27.834V23.4108C19.2443 26.8619 21.8159 28.0771 25.0184 28.0771ZM17.1093 28.952C17.9827 29.3895 19.7295 30.07 21.7189 30.07C22.1556 30.07 22.6408 30.0214 23.0775 29.9241V35.0279H17.1093V28.952ZM23.9994 29.6811C24.8728 29.3895 25.7462 28.8548 26.5226 28.0285C27.396 27.9313 28.2694 27.7854 29.2398 27.591V35.0279H23.9994V29.6811ZM23.4657 4.01667C23.9994 3.04453 24.9214 2.36403 26.0374 2.121C27.2019 1.82935 28.4635 2.07239 29.4824 2.70428C29.8221 2.94731 30.1132 3.19035 30.3073 3.43338C30.4043 3.5792 30.5984 3.67642 30.7925 3.62781C30.9866 3.5792 35.0139 2.60707 36.1299 5.71791C37.2945 8.92596 35.4506 11.1133 35.3536 11.2105C35.208 11.3563 35.208 11.5507 35.2565 11.6966C35.3051 11.8424 35.4992 11.9882 35.6932 11.9882C35.7418 11.9882 40.1087 12.3284 42.0496 15.2449C43.1656 16.9461 43.2627 19.182 42.3408 21.904C41.3218 24.9176 39.7206 26.8619 37.5856 27.6396C34.3346 28.8062 30.744 26.9591 30.1617 26.6189V21.4179C30.8896 20.6888 33.2671 18.5015 35.2565 19.2306C35.4506 19.2792 35.6447 19.182 35.7418 19.0362C35.7903 18.8418 35.6932 18.6473 35.5477 18.5501C33.5098 17.7724 31.3263 19.3764 30.2103 20.3972V7.56497C30.2103 7.27333 30.0162 7.0789 29.725 7.0789C29.4339 7.0789 29.2398 7.27333 29.2398 7.56497V13.8839C28.5605 12.4743 27.493 10.8216 25.8918 10.4814C25.6977 10.4328 25.5036 10.5786 25.4551 10.773C25.4066 10.9675 25.5521 11.1619 25.7462 11.2105C27.6871 11.6479 28.8516 14.7102 29.2398 15.8767V26.5703C22.7864 27.9313 19.681 26.5703 17.0608 21.3207C16.3815 19.9597 16.2844 18.6473 16.7697 17.4808C17.8857 14.6616 21.7674 13.252 21.8159 13.2034C21.9615 13.1548 22.0586 13.0575 22.1071 12.9117C22.1556 12.7659 22.1071 12.6201 22.0586 12.4743C20.9911 10.9675 20.6514 9.70367 20.9911 8.68293C21.4763 7.37054 23.0775 6.88447 23.0775 6.88447C23.2231 6.83587 23.3201 6.73865 23.4172 6.59283C23.5142 6.44701 23.4657 6.30119 23.4172 6.15537C22.9805 5.52348 23.029 4.79438 23.4657 4.01667ZM10.9955 7.41915C11.6748 6.25258 12.8879 5.42626 14.1009 5.28044C14.6832 5.23184 15.5566 5.32905 16.2844 6.15537C16.333 6.20398 16.333 6.20397 16.3815 6.25258C16.6726 6.44701 16.9637 6.69004 17.1093 6.88447C17.2549 7.0789 17.546 7.12751 17.7401 6.98169C18.565 6.3984 20.9425 5.18323 22.1556 5.71791C22.2041 5.86373 22.2041 6.00955 22.2526 6.15537C21.5733 6.44701 20.4573 7.0789 20.0206 8.34268C19.5839 9.55785 19.8751 10.9188 20.8455 12.5229C19.9721 12.9117 18.2738 13.7867 17.0123 15.1476V10.5786C17.0123 10.287 16.8182 10.0925 16.527 10.0925C16.2359 10.0925 16.0418 10.287 16.0418 10.5786V16.5572C15.9448 16.7517 15.8477 16.9461 15.7507 17.1405C15.7507 17.1891 15.7507 17.2377 15.7022 17.2377C15.7022 17.2377 15.7022 17.2377 15.7022 17.2863C15.217 18.6473 15.314 20.1542 16.0418 21.661V23.508C15.3625 22.0984 14.295 20.4458 12.6938 20.1055C12.4997 20.0569 12.3056 20.2028 12.2571 20.3972C12.2086 20.5916 12.3542 20.786 12.5482 20.8347C14.4891 21.2721 15.6537 24.3343 16.0418 25.5009V27.834C13.0335 28.2229 10.8014 27.834 9.44283 26.7647C8.47239 25.987 7.93865 24.869 7.8416 23.3622C7.50195 18.5987 11.3837 16.8489 11.5778 16.7517C11.7234 16.7031 11.8204 16.5572 11.8689 16.46C11.9175 16.3142 11.8689 16.1684 11.8204 16.0712C9.68544 13.0575 10.0736 11.2591 10.4618 10.4814L10.5103 10.4328C10.6074 10.1897 10.7529 10.0925 10.7529 10.0925C10.8985 9.94671 10.947 9.70367 10.85 9.50924C10.5588 8.78014 10.5588 8.09964 10.9955 7.41915ZM2.45566 25.3551C2.06748 23.5566 3.18349 20.7374 4.68767 19.9111C5.36698 19.5223 5.90072 19.3278 5.90072 19.3278C6.04629 19.2792 6.14333 19.182 6.19186 19.0362C6.24038 18.8904 6.19186 18.7446 6.14333 18.5987C5.99777 18.4043 5.80368 18.3071 5.60959 18.2099C5.26994 18.0641 4.93028 17.8696 4.7362 17.4322C4.49359 16.8003 4.49359 16.2656 4.7362 15.8281C5.26994 14.9046 6.77412 14.6616 6.77412 14.6616C6.91969 14.613 7.06525 14.5158 7.11377 14.4185C7.1623 14.3213 7.1623 14.1269 7.11377 13.9811C6.87116 13.495 6.87116 13.0089 7.21082 12.4257C7.40491 12.0854 8.08421 11.0161 9.39431 10.773C9.10318 11.891 9.1517 13.6894 10.8014 16.1684C9.5884 16.8975 6.67708 19.0848 7.01673 23.4594C7.1623 25.2093 7.79308 26.6189 8.95761 27.5424C9.5884 28.0771 10.4133 28.4173 11.3352 28.6604C11.3352 28.709 11.2867 28.7576 11.2867 28.8062V29.1464C6.96821 29.9241 3.08645 28.3201 2.45566 25.3551ZM12.2571 28.8062C13.3731 28.952 14.6832 28.952 16.1389 28.8062V35.0279H12.2571V28.8062Z" fill="#C1CBC4"/>
<path d="M43.5053 35.0279H30.2103V27.7368C31.1322 28.2229 33.0731 29.0006 35.3051 29.0006C36.1785 29.0006 37.0519 28.8548 37.9738 28.5631C40.3999 27.6882 42.1952 25.5495 43.3112 22.2442C44.3302 19.182 44.2331 16.6545 42.923 14.7102C41.2733 12.1826 38.1193 11.3563 36.6637 11.1133C37.2459 10.0925 38.1193 8.05104 37.1004 5.37766C36.0329 2.41264 32.7334 2.26682 30.8896 2.60706C30.647 2.36403 30.3558 2.121 30.0162 1.87796C28.8031 1.05164 27.2504 0.80861 25.7948 1.14886C24.4361 1.48911 23.2716 2.31542 22.5923 3.5306C22.3497 3.91945 22.2041 4.35691 22.1556 4.74577C20.5544 4.35691 18.4194 5.47487 17.546 6.00955C17.3519 5.81512 17.1578 5.6693 16.9152 5.52348C16.1389 4.69716 15.0714 4.2597 13.9554 4.40552C12.4512 4.55134 10.947 5.57209 10.1221 6.98169C9.5884 7.85661 9.53988 8.78014 9.87953 9.60646C9.87953 9.65507 9.83101 9.65506 9.83101 9.70367C7.74456 9.75228 6.67708 11.3563 6.38594 11.891C5.99777 12.5229 5.90072 13.2034 6.04629 13.8353C5.4155 14.0297 4.39654 14.4671 3.8628 15.3421C3.47462 16.0226 3.4261 16.8489 3.76575 17.7724C3.95984 18.3071 4.2995 18.6473 4.63915 18.8418C4.49359 18.8904 4.34802 18.9876 4.20245 19.0848C2.35862 20.1542 1 23.3622 1.48522 25.5981C2.11601 28.5145 5.22142 30.313 9.05465 30.313C9.78249 30.313 10.5103 30.2644 11.2867 30.1186V35.0279H1.48522C1.19409 35.0279 1 35.2223 1 35.5139C1 35.8056 1.19409 36 1.48522 36H43.5053C43.7964 36 43.9905 35.8056 43.9905 35.5139C43.9905 35.2223 43.7964 35.0279 43.5053 35.0279ZM25.0184 28.0771C24.4847 28.4659 23.9509 28.709 23.3687 28.8548C20.5544 29.6811 17.6916 28.1743 17.1093 27.834V23.4108C19.2443 26.8619 21.8159 28.0771 25.0184 28.0771ZM17.1093 28.952C17.9827 29.3895 19.7295 30.07 21.7189 30.07C22.1556 30.07 22.6408 30.0214 23.0775 29.9241V35.0279H17.1093V28.952ZM23.9994 29.6811C24.8728 29.3895 25.7462 28.8548 26.5226 28.0285C27.396 27.9313 28.2694 27.7854 29.2398 27.591V35.0279H23.9994V29.6811ZM23.4657 4.01667C23.9994 3.04453 24.9214 2.36403 26.0374 2.121C27.2019 1.82935 28.4635 2.07239 29.4824 2.70428C29.8221 2.94731 30.1132 3.19035 30.3073 3.43338C30.4043 3.5792 30.5984 3.67642 30.7925 3.62781C30.9866 3.5792 35.0139 2.60707 36.1299 5.71791C37.2945 8.92596 35.4506 11.1133 35.3536 11.2105C35.208 11.3563 35.208 11.5507 35.2565 11.6966C35.3051 11.8424 35.4992 11.9882 35.6932 11.9882C35.7418 11.9882 40.1087 12.3284 42.0496 15.2449C43.1656 16.9461 43.2627 19.182 42.3408 21.904C41.3218 24.9176 39.7206 26.8619 37.5856 27.6396C34.3346 28.8062 30.744 26.9591 30.1617 26.6189V21.4179C30.8896 20.6888 33.2671 18.5015 35.2565 19.2306C35.4506 19.2792 35.6447 19.182 35.7418 19.0362C35.7903 18.8418 35.6932 18.6473 35.5477 18.5501C33.5098 17.7724 31.3263 19.3764 30.2103 20.3972V7.56497C30.2103 7.27333 30.0162 7.0789 29.725 7.0789C29.4339 7.0789 29.2398 7.27333 29.2398 7.56497V13.8839C28.5605 12.4743 27.493 10.8216 25.8918 10.4814C25.6977 10.4328 25.5036 10.5786 25.4551 10.773C25.4066 10.9675 25.5521 11.1619 25.7462 11.2105C27.6871 11.6479 28.8516 14.7102 29.2398 15.8767V26.5703C22.7864 27.9313 19.681 26.5703 17.0608 21.3207C16.3815 19.9597 16.2844 18.6473 16.7697 17.4808C17.8857 14.6616 21.7674 13.252 21.8159 13.2034C21.9615 13.1548 22.0586 13.0575 22.1071 12.9117C22.1556 12.7659 22.1071 12.6201 22.0586 12.4743C20.9911 10.9675 20.6514 9.70367 20.9911 8.68293C21.4763 7.37054 23.0775 6.88447 23.0775 6.88447C23.2231 6.83587 23.3201 6.73865 23.4172 6.59283C23.5142 6.44701 23.4657 6.30119 23.4172 6.15537C22.9805 5.52348 23.029 4.79438 23.4657 4.01667ZM10.9955 7.41915C11.6748 6.25258 12.8879 5.42626 14.1009 5.28044C14.6832 5.23184 15.5566 5.32905 16.2844 6.15537C16.333 6.20398 16.333 6.20397 16.3815 6.25258C16.6726 6.44701 16.9637 6.69004 17.1093 6.88447C17.2549 7.0789 17.546 7.12751 17.7401 6.98169C18.565 6.3984 20.9425 5.18323 22.1556 5.71791C22.2041 5.86373 22.2041 6.00955 22.2526 6.15537C21.5733 6.44701 20.4573 7.0789 20.0206 8.34268C19.5839 9.55785 19.8751 10.9188 20.8455 12.5229C19.9721 12.9117 18.2738 13.7867 17.0123 15.1476V10.5786C17.0123 10.287 16.8182 10.0925 16.527 10.0925C16.2359 10.0925 16.0418 10.287 16.0418 10.5786V16.5572C15.9448 16.7517 15.8477 16.9461 15.7507 17.1405C15.7507 17.1891 15.7507 17.2377 15.7022 17.2377C15.7022 17.2377 15.7022 17.2377 15.7022 17.2863C15.217 18.6473 15.314 20.1542 16.0418 21.661V23.508C15.3625 22.0984 14.295 20.4458 12.6938 20.1055C12.4997 20.0569 12.3056 20.2028 12.2571 20.3972C12.2086 20.5916 12.3542 20.786 12.5482 20.8347C14.4891 21.2721 15.6537 24.3343 16.0418 25.5009V27.834C13.0335 28.2229 10.8014 27.834 9.44283 26.7647C8.47239 25.987 7.93865 24.869 7.8416 23.3622C7.50195 18.5987 11.3837 16.8489 11.5778 16.7517C11.7234 16.7031 11.8204 16.5572 11.8689 16.46C11.9175 16.3142 11.8689 16.1684 11.8204 16.0712C9.68544 13.0575 10.0736 11.2591 10.4618 10.4814L10.5103 10.4328C10.6074 10.1897 10.7529 10.0925 10.7529 10.0925C10.8985 9.94671 10.947 9.70367 10.85 9.50924C10.5588 8.78014 10.5588 8.09964 10.9955 7.41915ZM2.45566 25.3551C2.06748 23.5566 3.18349 20.7374 4.68767 19.9111C5.36698 19.5223 5.90072 19.3278 5.90072 19.3278C6.04629 19.2792 6.14333 19.182 6.19186 19.0362C6.24038 18.8904 6.19186 18.7446 6.14333 18.5987C5.99777 18.4043 5.80368 18.3071 5.60959 18.2099C5.26994 18.0641 4.93028 17.8696 4.7362 17.4322C4.49359 16.8003 4.49359 16.2656 4.7362 15.8281C5.26994 14.9046 6.77412 14.6616 6.77412 14.6616C6.91969 14.613 7.06525 14.5158 7.11377 14.4185C7.1623 14.3213 7.1623 14.1269 7.11377 13.9811C6.87116 13.495 6.87116 13.0089 7.21082 12.4257C7.40491 12.0854 8.08421 11.0161 9.39431 10.773C9.10318 11.891 9.1517 13.6894 10.8014 16.1684C9.5884 16.8975 6.67708 19.0848 7.01673 23.4594C7.1623 25.2093 7.79308 26.6189 8.95761 27.5424C9.5884 28.0771 10.4133 28.4173 11.3352 28.6604C11.3352 28.709 11.2867 28.7576 11.2867 28.8062V29.1464C6.96821 29.9241 3.08645 28.3201 2.45566 25.3551ZM12.2571 28.8062C13.3731 28.952 14.6832 28.952 16.1389 28.8062V35.0279H12.2571V28.8062Z" stroke="#C1CBC4" stroke-width="0.6" mask="url(#path-1-outside-1_13_35928)"/>
</svg>
