<svg width="106" height="106" viewBox="0 0 106 106" fill="none" xmlns="http://www.w3.org/2000/svg">
<circle cx="53" cy="53" r="53" fill="#C18F8F"/>
<path d="M66.6097 36.5384H64.4011V34.3255C64.401 33.6844 64.1463 33.0696 63.693 32.6163C63.2397 32.163 62.6249 31.9083 61.9838 31.9082H59.0491C58.7436 31.9074 58.4408 31.9665 58.1579 32.0821C55.8005 31.1145 53.2914 30.5686 50.7451 30.4691C40.7716 29.9517 32.2371 36.3558 32.511 45.1859C32.5458 46.3554 32.7502 48.0684 32.7458 49.1901C32.7371 53.1769 29.2894 54.8116 29.2242 56.0811C29.1155 58.1637 31.5589 57.5115 32.4241 60.4592C33.5154 64.1982 31.9458 68.4633 37.0413 68.1981C39.076 68.1154 42.3802 67.3285 43.7976 68.6415C44.7019 69.485 45.4279 73.1457 45.7105 74.7674C45.7482 74.9855 45.8618 75.1833 46.0313 75.3257C46.2008 75.4682 46.4152 75.5461 46.6366 75.5456H61.9403C62.0861 75.5457 62.2298 75.512 62.3603 75.4471C62.4907 75.3821 62.6043 75.2877 62.692 75.1713C62.7797 75.055 62.8392 74.9198 62.8657 74.7765C62.8921 74.6332 62.885 74.4857 62.8446 74.3456C62.336 72.5935 61.4577 69.2458 61.2838 66.5025C61.1751 64.7938 61.6925 62.4374 62.736 61.0809C66.901 55.6768 68.7488 50.99 67.8792 45.225C67.8184 44.8294 67.7488 44.4381 67.6662 44.0555C68.0743 43.8599 68.4187 43.5528 68.6595 43.1696C68.9004 42.7865 69.0278 42.3429 69.027 41.8904V38.9557C69.0269 38.3146 68.7722 37.6999 68.3189 37.2466C67.8656 36.7933 67.2508 36.5385 66.6097 36.5384ZM67.9401 41.8904C67.9408 42.0968 67.8927 42.3005 67.7997 42.4848C67.7068 42.6692 67.5717 42.829 67.4053 42.9512C67.1755 43.1228 66.8965 43.2158 66.6097 43.2164H63.9794C63.803 43.2164 63.6338 43.2865 63.509 43.4113C63.3843 43.536 63.3142 43.7052 63.3142 43.8816V46.5163C63.3142 46.8691 63.174 47.2075 62.9245 47.457C62.675 47.7065 62.3366 47.8467 61.9838 47.8467H59.0491C58.6963 47.8467 58.3579 47.7065 58.1084 47.457C57.8589 47.2075 57.7188 46.8691 57.7188 46.5163V43.8816C57.719 43.7059 57.6496 43.5372 57.5257 43.4125C57.4019 43.2879 57.2337 43.2173 57.0579 43.2164H54.4232C54.2487 43.2169 54.0759 43.183 53.9145 43.1166C53.7532 43.0502 53.6065 42.9526 53.4829 42.8294C53.3593 42.7063 53.2612 42.5599 53.1943 42.3988C53.1274 42.2376 53.0929 42.0649 53.0928 41.8904V38.9557C53.0928 38.6029 53.233 38.2645 53.4825 38.015C53.732 37.7655 54.0704 37.6253 54.4232 37.6253H57.0579C57.2337 37.6244 57.4019 37.5539 57.5257 37.4292C57.6496 37.3046 57.719 37.1359 57.7188 36.9601V34.3255C57.7188 33.9726 57.8589 33.6342 58.1084 33.3847C58.3579 33.1352 58.6963 32.9951 59.0491 32.9951H61.9838C62.3366 32.9951 62.675 33.1352 62.9245 33.3847C63.174 33.6342 63.3142 33.9726 63.3142 34.3255V36.9601C63.3142 37.1366 63.3843 37.3058 63.509 37.4305C63.6338 37.5553 63.803 37.6253 63.9794 37.6253H66.6097C66.9626 37.6253 67.3009 37.7655 67.5504 38.015C67.7999 38.2645 67.9401 38.6029 67.9401 38.9557V41.8904ZM62.4429 29.1826H62.7999V29.54C62.8003 29.9826 62.9764 30.4069 63.2894 30.7199C63.6024 31.0328 64.0268 31.2087 64.4694 31.2091H65.7545C66.1971 31.2086 66.6213 31.0326 66.9342 30.7197C67.2471 30.4068 67.4231 29.9825 67.4236 29.54V29.1826H67.781C68.2235 29.1822 68.6478 29.0062 68.9607 28.6933C69.2736 28.3803 69.4496 27.9561 69.45 27.5136V26.228C69.4496 25.7854 69.2736 25.3612 68.9607 25.0483C68.6478 24.7353 68.2235 24.5594 67.781 24.5589H67.4236V24.1998C67.4231 23.7572 67.2472 23.3329 66.9343 23.0199C66.6214 22.7069 66.1971 22.5308 65.7545 22.5303H64.4694C64.0267 22.5307 63.6023 22.7068 63.2894 23.0198C62.9764 23.3328 62.8003 23.7571 62.7999 24.1998V24.5585H62.4429C62.0004 24.5589 61.576 24.7349 61.2631 25.0478C60.9501 25.3607 60.774 25.785 60.7734 26.2275V27.5131C60.7739 27.9558 60.9499 28.3801 61.2629 28.6931C61.5759 29.0061 62.0003 29.1822 62.4429 29.1826ZM61.8603 26.2262C61.8603 26.1497 61.8754 26.074 61.9047 26.0033C61.934 25.9327 61.9769 25.8685 62.031 25.8144C62.0851 25.7604 62.1493 25.7175 62.22 25.6883C62.2907 25.659 62.3664 25.644 62.4429 25.6441H63.5955C63.6727 25.6441 63.7468 25.6134 63.8015 25.5587C63.8561 25.5041 63.8868 25.43 63.8868 25.3528V24.1998C63.8868 24.0453 63.9482 23.8971 64.0574 23.7878C64.1667 23.6786 64.3148 23.6172 64.4694 23.6172H65.7545C65.831 23.6172 65.9067 23.6323 65.9774 23.6615C66.0481 23.6908 66.1123 23.7337 66.1663 23.7878C66.2204 23.842 66.2633 23.9062 66.2925 23.9769C66.3217 24.0475 66.3367 24.1233 66.3367 24.1998V25.3545C66.3367 25.4318 66.3674 25.5059 66.422 25.5605C66.4766 25.6151 66.5507 25.6458 66.628 25.6458H67.781C67.8574 25.6457 67.9332 25.6608 68.0038 25.69C68.0745 25.7192 68.1387 25.7621 68.1927 25.8162C68.2468 25.8703 68.2897 25.9345 68.3189 26.0051C68.3482 26.0758 68.3632 26.1515 68.3631 26.228V27.5136C68.3631 27.668 68.3018 27.816 68.1926 27.9252C68.0834 28.0344 67.9354 28.0957 67.781 28.0957H66.628C66.5507 28.0957 66.4766 28.1264 66.422 28.181C66.3674 28.2357 66.3367 28.3097 66.3367 28.387V29.54C66.3367 29.6944 66.2753 29.8425 66.1662 29.9516C66.057 30.0608 65.9089 30.1222 65.7545 30.1222H64.4694C64.3149 30.1222 64.1668 30.0608 64.0576 29.9517C63.9483 29.8425 63.8869 29.6944 63.8868 29.54V28.387C63.8868 28.3097 63.8561 28.2357 63.8015 28.181C63.7468 28.1264 63.6727 28.0957 63.5955 28.0957H62.4429C62.2885 28.0957 62.1404 28.0344 62.0311 27.9252C61.9219 27.8161 61.8605 27.668 61.8603 27.5136V26.2262ZM74.402 31.4647C74.3889 31.0743 74.2248 30.7042 73.9442 30.4325C73.6635 30.1608 73.2883 30.0087 72.8977 30.0082H71.9752C71.5845 30.0087 71.2094 30.1608 70.9287 30.4325C70.6481 30.7042 70.4839 31.0743 70.4709 31.4647C70.0806 31.478 69.7108 31.6423 69.4392 31.9229C69.1677 32.2035 69.0157 32.5785 69.0153 32.969V33.8916C69.0157 34.282 69.1677 34.6571 69.4392 34.9377C69.7108 35.2183 70.0806 35.3826 70.4709 35.3959C70.4842 35.7861 70.6484 36.156 70.929 36.4275C71.2096 36.699 71.5847 36.851 71.9752 36.8515H72.8977C73.2882 36.851 73.6633 36.699 73.9439 36.4275C74.2245 36.156 74.3887 35.7861 74.402 35.3959C74.7923 35.3826 75.1621 35.2183 75.4336 34.9377C75.7052 34.6571 75.8572 34.282 75.8576 33.8916V32.969C75.8572 32.5785 75.7052 32.2035 75.4336 31.9229C75.1621 31.6423 74.7923 31.478 74.402 31.4647ZM74.7707 33.8916C74.7707 34.0025 74.7266 34.1089 74.6482 34.1873C74.5698 34.2657 74.4634 34.3098 74.3525 34.3098H73.5264C73.499 34.3098 73.4719 34.3152 73.4465 34.3257C73.4212 34.3362 73.3982 34.3516 73.3788 34.3709C73.3595 34.3903 73.3441 34.4133 73.3336 34.4386C73.3231 34.464 73.3177 34.4911 73.3177 34.5185V35.3446C73.3177 35.4555 73.2736 35.5619 73.1952 35.6403C73.1168 35.7187 73.0104 35.7628 72.8995 35.7628H71.9769C71.866 35.7628 71.7596 35.7187 71.6812 35.6403C71.6027 35.5619 71.5587 35.4555 71.5587 35.3446V34.5185C71.5587 34.4632 71.5367 34.4101 71.4975 34.3709C71.4584 34.3318 71.4053 34.3098 71.35 34.3098H70.5239C70.413 34.3098 70.3066 34.2657 70.2282 34.1873C70.1497 34.1089 70.1057 34.0025 70.1057 33.8916V32.969C70.1057 32.8581 70.1497 32.7517 70.2282 32.6733C70.3066 32.5948 70.413 32.5508 70.5239 32.5508H71.35C71.4053 32.5508 71.4584 32.5288 71.4975 32.4896C71.5367 32.4505 71.5587 32.3974 71.5587 32.3421V31.513C71.5588 31.4021 71.6029 31.2958 71.6813 31.2175C71.7597 31.1392 71.866 31.0952 71.9769 31.0952H72.8995C73.0103 31.0952 73.1166 31.1392 73.1951 31.2175C73.2735 31.2958 73.3176 31.4021 73.3177 31.513V32.3421C73.3177 32.3695 73.3231 32.3966 73.3336 32.4219C73.3441 32.4472 73.3595 32.4703 73.3788 32.4896C73.3982 32.509 73.4212 32.5244 73.4465 32.5349C73.4719 32.5454 73.499 32.5508 73.5264 32.5508H74.3525C74.4634 32.5508 74.5698 32.5948 74.6482 32.6733C74.7266 32.7517 74.7707 32.8581 74.7707 32.969V33.8916Z" fill="white"/>
</svg>
