<svg width="47" height="32" viewBox="0 0 47 32" fill="none" xmlns="http://www.w3.org/2000/svg">
<path id="Vector" d="M46.8274 30.2589L33.9023 9.66021C33.8198 9.5451 33.7171 9.44494 33.5989 9.36462C33.045 8.98842 32.2828 9.12071 31.8965 9.66021L28.4647 15.1295L19.816 0.529839C19.7266 0.399365 19.6116 0.287331 19.4776 0.200302C18.9161 -0.164578 18.1573 -0.0170611 17.7826 0.529839L0.157491 30.2834C0.0545052 30.4571 0.000287201 30.6542 2.63964e-07 30.8548C-0.000430025 31.4868 0.525255 31.9994 1.17415 32H45.8245C46.0408 32 46.253 31.9419 46.4376 31.8321C46.9914 31.5026 47.1658 30.7981 46.8274 30.2589ZM19.3151 29.7113H3.20747L18.7993 3.393L27.0703 17.3512L24.1623 21.9862L19.3151 29.7113ZM22.0696 29.7113L32.8994 12.4518L43.7292 29.7113H22.0696Z" fill="white"/>
</svg>
