<svg width="283" height="142" viewBox="0 0 283 142" fill="none" xmlns="http://www.w3.org/2000/svg">
<g clip-path="url(#clip0_13_35193)">
<path d="M0.230469 60.1002H10.2705V37.7993L23.7732 37.8859C37.1036 37.8859 44.9808 30.1367 44.9808 19.0295C44.9808 7.92235 37.5369 0 24.2935 0H0.230469V60.1002ZM10.2705 29.7922V8.00711H22.9084C31.2189 8.00711 34.8538 12.0539 34.8538 18.943C34.8538 25.832 31.2189 29.7922 22.9084 29.7922H10.2723H10.2705Z" fill="#7B746A"/>
<path d="M64.1015 17.5689C65.4884 16.9593 67.1617 16.6167 69.1831 16.6167H72.4718V25.1414H68.2295C60.9579 25.1414 57.8433 30.0484 57.8433 38.0574V60.1004H48.0625V17.0495H57.671V23.8285C57.671 23.8285 59.4187 19.6338 64.1015 17.5707V17.5689Z" fill="#7B746A"/>
<path d="M93.9093 61.2204C106.46 61.2204 115.81 52.7822 115.81 38.6616C115.81 24.5409 106.462 15.9297 93.9093 15.9297C81.3566 15.9297 71.8369 24.4544 71.8369 38.6616C71.8369 52.8688 81.1844 61.2204 93.9093 61.2204ZM81.7047 38.6616C81.7047 29.3632 85.8599 23.2497 93.9093 23.2497C101.959 23.2497 105.942 29.3632 105.942 38.6616C105.942 47.9599 101.874 53.8156 93.8241 53.8156C85.7747 53.8156 81.7065 47.7886 81.7065 38.6616H81.7047Z" fill="#7B746A"/>
<path d="M170.671 16.0158C179.934 16.0158 184.867 21.8715 184.867 31.1698V45.3049C178.659 45.9668 174.999 49.5393 174.999 49.5393V34.2699C174.999 27.985 172.834 23.7651 166.862 23.7651C160.457 23.7651 156.908 28.3295 156.908 35.5611V60.1001H147.04V34.3547C147.04 29.1031 145.568 23.7633 138.644 23.7633C132.239 23.7633 128.43 28.2411 128.43 37.3681V60.1001H118.649V17.0492H128.343V23.5613C128.343 23.5613 132.705 15.1268 142.538 16.0158C148.934 16.0158 152.966 18.7498 155.017 24.0518C155.017 24.0518 159.123 16.1403 170.67 16.0158H170.671Z" fill="#7B746A"/>
<path d="M220.244 61.2204C232.102 61.2204 239.633 55.6244 239.633 47.1863C239.633 39.2639 233.574 36.5949 227.428 35.5615L218.166 34.0972C214.531 33.4948 211.069 32.8925 211.069 28.8457C211.069 24.7988 214.965 22.5608 219.985 22.5608C225.525 22.5608 228.641 24.8854 229.247 29.1901H238.25C237.47 20.0631 230.026 15.9297 220.159 15.9297C208.993 15.9297 201.895 21.3543 201.895 29.5346C201.895 36.1639 205.791 40.2107 213.407 41.4172L223.188 42.9663C227.343 43.5686 230.46 44.4307 230.46 48.1331C230.46 51.8354 226.651 54.591 220.851 54.591C215.052 54.591 210.378 52.2665 209.685 47.5307H200.338C201.377 56.8291 209.6 61.2204 220.246 61.2204H220.244Z" fill="#7B746A"/>
<path d="M262.487 61.2204C272.701 61.2204 280.75 55.2799 282.394 46.9266H273.219C271.662 51.06 268.545 54.0735 262.572 54.0735C254.954 54.0735 250.8 49.0798 250.454 41.1575L283 41.0709V38.144C283 24.6257 274.863 15.9297 262.312 15.9297C249.762 15.9297 240.933 24.8854 240.933 38.7463C240.933 52.6073 249.675 61.2204 262.487 61.2204ZM250.541 35.1305C250.974 27.9836 255.389 23.2479 262.4 23.2479C269.41 23.2479 273.306 27.6392 273.652 35.044L250.541 35.1305Z" fill="#7B746A"/>
<path d="M198.24 49.1409V17.0493H188.372V45.305C188.372 45.305 193.894 45.4818 198.24 49.1427V49.1409Z" fill="#7B746A"/>
<path d="M81.3187 125.639C96.812 125.639 105.382 117.373 105.382 106.783C105.382 97.0537 98.7174 92.4893 90.1477 91.1115L76.471 88.9582C73.0953 88.3559 67.729 86.9781 67.729 80.778C67.729 74.5779 73.0953 70.8755 80.8003 70.8755C88.5052 70.8755 93.0049 74.0621 94.0437 80.0891H103.565C102.526 69.4977 94.2177 63.4707 80.8873 63.4707C67.5568 63.4707 57.8631 70.0153 57.8631 81.5516C57.8631 89.474 62.8831 95.8454 72.4916 97.308L86.1683 99.4612C90.2365 100.15 95.5158 101.872 95.5158 107.986C95.5158 113.237 91.4476 118.146 81.5798 118.146C72.4046 118.146 66.8643 113.842 65.9995 107.039H56.2188C57.2576 118.06 65.9995 125.638 81.3206 125.638L81.3187 125.639Z" fill="#7B746A"/>
<path d="M132.701 125.468C143.521 125.468 151.831 117.201 151.831 103.081C151.831 88.96 143.435 80.5219 132.529 80.5219C132.529 80.5219 122.52 79.9448 117.554 88.7742V81.64H107.86V141.569H117.641C117.641 141.569 117.587 125.006 117.563 117.953C117.563 117.953 121.378 125.244 132.701 125.466V125.468ZM117.467 103.081C117.467 93.9536 122.141 87.9266 129.672 87.9266C137.203 87.9266 141.876 93.7823 141.876 103.081C141.876 112.379 137.203 118.148 129.672 118.148C122.141 118.148 117.467 112.121 117.467 103.081Z" fill="#7B746A"/>
<path d="M175.519 81.209H178.808V89.7337H174.565C167.294 89.7337 164.179 94.6407 164.179 102.65V124.693H154.398V81.64H164.007V86.4749C164.007 86.4749 167.548 81.6544 175.519 81.209Z" fill="#7B746A"/>
<path d="M181.979 124.693H191.846V81.6401H181.979V124.693Z" fill="#7B746A"/>
<path d="M220.439 80.6065C229.528 80.6065 235.327 86.0312 235.327 95.8471V124.693H225.459V99.6361C225.459 93.2646 222.602 88.3558 216.284 88.3558C209.274 88.3558 205.291 93.1781 205.291 101.703V124.693H195.51V81.6399H205.118V85.9572C205.118 85.9572 210.532 80.3847 220.439 80.6065Z" fill="#7B746A"/>
<path d="M271.658 116.916V123.746C271.658 131.495 267.157 135.111 259.367 135.111C252.961 135.111 249.24 132.355 248.547 128.481H238.853C239.979 137.351 248.462 142 259.107 142C271.917 142 281.526 135.8 281.526 122.368V81.6398H271.745V88.0672C271.745 88.0672 267.905 80.3071 256.944 80.5199C246.038 80.5199 237.814 89.0446 237.814 102.649C237.814 116.254 245.692 124.435 257.117 124.435C257.117 124.435 267.615 125.28 271.658 116.916ZM247.767 102.478C247.767 93.5225 252.269 87.9265 259.8 87.9265C267.331 87.9265 271.832 93.6956 271.832 102.565C271.832 111.434 267.331 117.116 259.8 117.116C252.269 117.116 247.767 111.605 247.767 102.478Z" fill="#7B746A"/>
<path d="M38.8126 125.09H45.8196V85.2704H53.0169V80.0585H45.7561V76.4535C45.7561 74.5059 46.9563 72.019 48.9759 72.019H52.7576V66.8071L46.9563 66.8702C41.9689 66.8702 38.8126 71.6745 38.8126 76.5094V80.0567H26.8926V85.2686H38.8126V125.088V125.09Z" fill="#7B746A"/>
<path d="M16.0988 99.3313C25.2523 99.3313 32.0707 93.1763 32.0707 82.877C32.0707 72.5778 25.2523 66.2983 16.0988 66.2983C6.94533 66.2983 0 72.5147 0 82.877C0 93.2394 6.81843 99.3313 16.0988 99.3313ZM7.19733 82.877C7.19733 76.0944 10.2267 71.6364 16.0988 71.6364C21.9709 71.6364 24.8734 76.0944 24.8734 82.877C24.8734 89.6596 21.9056 93.9301 16.0354 93.9301C10.1651 93.9301 7.19733 89.5334 7.19733 82.877Z" fill="#7B746A"/>
<path fill-rule="evenodd" clip-rule="evenodd" d="M193.108 3.13428C195.657 3.13428 197.722 5.18835 197.722 7.72394C197.722 10.2595 195.657 12.3136 193.108 12.3136C190.559 12.3136 188.494 10.2595 188.494 7.72394C188.494 5.18835 190.559 3.13428 193.108 3.13428Z" fill="#7B746A"/>
<path fill-rule="evenodd" clip-rule="evenodd" d="M186.732 53.1284C192.72 53.1284 197.573 57.9561 197.573 63.9128C197.573 69.8694 192.72 74.6971 186.732 74.6971C180.744 74.6971 175.891 69.8694 175.891 63.9128C175.891 57.9561 180.744 53.1284 186.732 53.1284Z" fill="#7B746A"/>
</g>
<defs>
<clipPath id="clip0_13_35193">
<rect width="283" height="142" fill="white"/>
</clipPath>
</defs>
</svg>
