<svg width="29" height="47" viewBox="0 0 29 47" fill="none" xmlns="http://www.w3.org/2000/svg">
<path id="Vector" d="M11.0051 46.8083C11.1299 46.9021 11.2754 46.9639 11.4292 46.9883C11.5829 47.0126 11.7402 46.9989 11.8875 46.9483L28.306 41.6686C28.7125 41.5386 29 41.1487 29 40.7187V5.98096C29 5.54099 28.7125 5.15101 28.2961 5.02102L11.8776 0.0413461C11.5802 -0.048648 11.253 0.0113481 11.0051 0.191336C10.7573 0.381324 10.6085 0.681304 10.6085 0.991284V4.02109H0.991453C0.446154 4.02109 0 4.47106 0 5.02102V41.9586C0 42.5086 0.446154 42.9585 0.991453 42.9585H10.6085V45.9983C10.5986 46.3183 10.7473 46.6183 11.0051 46.8083ZM12.5815 2.35119L27.0171 6.73091V39.9987L12.5815 44.6384V2.35119ZM10.5986 16.2403C9.96526 16.0659 9.40604 15.6869 9.00669 15.1614C8.60735 14.6358 8.3899 13.9926 8.38769 13.3305C8.38769 11.9406 9.32957 10.7806 10.5986 10.4207V16.2403ZM6.81128 40.9687H1.97299V6.03095H10.5986V8.3808C8.22906 8.76077 6.40479 10.8306 6.40479 13.3305C6.40479 14.8604 7.0988 16.2103 8.16957 17.1402C5.43316 17.2702 3.24205 19.5401 3.24205 22.3299V30.6693C3.24205 31.3509 3.5105 32.0045 3.98835 32.4865C4.4662 32.9684 5.11431 33.2392 5.79009 33.2392H6.8212V40.9687H6.81128ZM8.79419 40.9687V23.2498H6.81128V31.2293H5.78017C5.63029 31.2293 5.48655 31.1693 5.38056 31.0624C5.27458 30.9555 5.21504 30.8105 5.21504 30.6593V22.3199C5.21504 20.55 6.64274 19.1101 8.39761 19.1101H10.5887V40.9687H8.79419Z" fill="white"/>
</svg>
