<svg width="35" height="35" viewBox="0 0 35 35" fill="none" xmlns="http://www.w3.org/2000/svg">
<path id="Vector" fill-rule="evenodd" clip-rule="evenodd" d="M17.4488 0.000380409C16.5387 0.0135776 15.6703 0.381802 15.0298 1.02222C13.8654 2.1864 12.7008 3.35089 11.5364 4.5151C10.7706 5.28084 10.3982 6.26457 10.4372 7.17823C10.4761 8.09187 10.8849 8.90693 11.4853 9.5072C12.0856 10.1075 12.8997 10.5163 13.8134 10.5552C14.7272 10.5941 15.7122 10.2207 16.478 9.45491C16.8189 9.1141 17.0951 8.83792 17.5 8.43308C17.9049 8.83792 18.1823 9.1141 18.5231 9.45491C19.289 10.2207 20.2728 10.5941 21.1866 10.5552C22.1003 10.5162 22.9155 10.1075 23.5159 9.5072C24.1162 8.90693 24.525 8.09187 24.564 7.17823C24.6029 6.26457 24.2294 5.28084 23.4636 4.5151C22.2992 3.35087 21.1346 2.1864 19.9702 1.02222C19.3044 0.35642 18.3942 -0.0135646 17.4488 0.000380409ZM17.4829 2.32821C17.7962 2.32381 18.0966 2.44837 18.3208 2.67261C19.4851 3.83682 20.6497 5.00015 21.8141 6.16435C22.1816 6.53176 22.2462 6.8094 22.2347 7.07935C22.2233 7.34929 22.0922 7.63896 21.8698 7.86135C21.6474 8.08375 21.3577 8.21584 21.0877 8.22735C20.8177 8.23834 20.54 8.173 20.1726 7.80566C19.5567 7.1899 18.3253 5.95862 18.3253 5.95862C18.2171 5.85007 18.0886 5.76394 17.9471 5.70517C17.8056 5.6464 17.6538 5.61615 17.5006 5.61615C17.3473 5.61615 17.1956 5.6464 17.0541 5.70517C16.9125 5.76394 16.784 5.85007 16.6758 5.95862C16.6758 5.95862 15.4433 7.1899 14.8274 7.80566C14.46 8.17306 14.1823 8.23885 13.9123 8.22735C13.6423 8.21635 13.3526 8.08377 13.1302 7.86135C12.9078 7.63896 12.7768 7.34929 12.7653 7.07935C12.7538 6.8094 12.8196 6.53176 13.187 6.16435C14.3514 5.00015 15.5149 3.83677 16.6792 2.67261C16.8951 2.45684 17.1822 2.33256 17.4829 2.32821ZM7.17575 10.4392C6.26199 10.4003 5.28266 10.7737 4.51681 11.5395C3.35248 12.7037 2.18783 13.867 1.02348 15.0312C0.383003 15.6717 0.0136066 16.54 0.000379226 17.45C-0.0135654 18.3952 0.357608 19.3019 1.02348 19.9677C2.18784 21.1319 3.35247 22.2963 4.51681 23.4605C5.28266 24.2263 6.26199 24.5986 7.17575 24.5597C8.08951 24.5207 8.90807 24.1165 9.50842 23.5162C10.1088 22.916 10.5142 22.0975 10.5531 21.1839C10.592 20.2702 10.2186 19.2899 9.45272 18.5241C9.11115 18.1826 8.83599 17.9029 8.43075 17.4977C8.83566 17.0929 9.11186 16.8156 9.45272 16.4748C10.2186 15.709 10.5921 14.7298 10.5531 13.8162C10.5142 12.9025 10.1088 12.0829 9.50842 11.4827C8.90807 10.8824 8.08951 10.4782 7.17575 10.4392ZM27.8243 10.4392C26.9105 10.4782 26.0919 10.8824 25.4916 11.4827C24.8912 12.0829 24.4869 12.9025 24.448 13.8162C24.4091 14.7298 24.7814 15.709 25.5473 16.4748C25.8881 16.8156 26.1655 17.0929 26.5704 17.4977C26.1651 17.9029 25.8889 18.1826 25.5473 18.5241C24.7814 19.2899 24.4091 20.2702 24.448 21.1839C24.4869 22.0975 24.8912 22.916 25.4916 23.5162C26.0919 24.1165 26.9105 24.5207 27.8243 24.5597C28.738 24.5986 29.7185 24.2263 30.4843 23.4605C31.6487 22.2963 32.8133 21.1319 33.9777 19.9677C34.6435 19.3019 35.0136 18.3952 34.9996 17.45C34.9864 16.54 34.6181 15.6717 33.9777 15.0312C32.8133 13.867 31.6487 12.7037 30.4843 11.5395C29.7185 10.7737 28.738 10.4003 27.8243 10.4392ZM7.07685 12.7637C7.34683 12.7747 7.64108 12.9061 7.8635 13.1285C8.08592 13.3509 8.21691 13.6451 8.22841 13.9151C8.23991 14.185 8.17526 14.4627 7.8078 14.8301C7.19199 15.4458 5.95939 16.6771 5.95939 16.6771C5.74151 16.8953 5.61915 17.1911 5.61915 17.4995C5.61915 17.8078 5.74151 18.1036 5.95939 18.3218C5.95939 18.3218 7.19199 19.5542 7.8078 20.17C8.17527 20.5374 8.23991 20.815 8.22841 21.085C8.2169 21.3549 8.08592 21.648 7.8635 21.8704C7.64108 22.0928 7.34683 22.2249 7.07685 22.2364C6.80686 22.2474 6.5292 22.182 6.16174 21.8147C4.99738 20.6505 3.83275 19.486 2.66841 18.3218C2.44424 18.0977 2.32048 17.7973 2.3251 17.4841V17.4807C2.32948 17.18 2.45255 16.893 2.66841 16.6771C3.8327 15.5129 4.99737 14.3484 6.16174 13.1842C6.5292 12.8168 6.80687 12.7522 7.07685 12.7637ZM27.9232 12.7637C28.1931 12.7527 28.4708 12.8169 28.8383 13.1842C30.0026 14.3484 31.1673 15.5129 32.3316 16.6771C32.5475 16.8929 32.6717 17.18 32.676 17.4807V17.4841C32.6807 17.7973 32.5558 18.0977 32.3316 18.3218C31.1672 19.486 30.0026 20.6505 28.8383 21.8147C28.4708 22.1821 28.1931 22.2479 27.9232 22.2364C27.6532 22.2254 27.3601 22.0928 27.1376 21.8704C26.9152 21.648 26.7831 21.3549 26.7716 21.085C26.7602 20.815 26.8259 20.5374 27.1933 20.17C27.8091 19.5542 29.0406 18.3218 29.0406 18.3218C29.2585 18.1036 29.3809 17.8078 29.3809 17.4995C29.3809 17.1911 29.2585 16.8953 29.0406 16.6771C29.0406 16.6771 27.8091 15.4458 27.1933 14.8301C26.8259 14.4627 26.7601 14.185 26.7716 13.9151C26.783 13.6451 26.9152 13.3509 27.1376 13.1285C27.3601 12.9061 27.6532 12.7752 27.9232 12.7637ZM17.5 13.9662C15.5851 13.9662 14.0067 15.5445 14.0067 17.4591C14.0067 19.3738 15.5851 20.9508 17.5 20.9508C19.4149 20.9508 20.9933 19.3738 20.9933 17.4591C20.9933 15.5445 19.4149 13.9662 17.5 13.9662ZM17.5 16.2941C18.1567 16.2941 18.6652 16.8025 18.6652 17.4591C18.6652 18.1157 18.1567 18.623 17.5 18.623C16.8433 18.623 16.3359 18.1157 16.3359 17.4591C16.3359 16.8025 16.8433 16.2941 17.5 16.2941ZM13.8134 24.4437C12.8997 24.4827 12.0856 24.8914 11.4853 25.4917C10.8849 26.092 10.4761 26.907 10.4372 27.8207C10.3982 28.7343 10.7706 29.718 11.5364 30.4838C12.7008 31.648 13.8654 32.8125 15.0298 33.9767C15.6703 34.6171 16.5387 34.9864 17.4488 34.9997C18.3942 35.0129 19.3044 34.6425 19.9702 33.9767C21.1346 32.8125 22.2992 31.648 23.4636 30.4838C24.2294 29.718 24.6029 28.7343 24.564 27.8207C24.525 26.907 24.1162 26.092 23.5159 25.4917C22.9155 24.8914 22.1003 24.4827 21.1866 24.4437C20.2728 24.4048 19.289 24.7782 18.5231 25.544C18.1823 25.8848 17.9049 26.161 17.5 26.5658C17.0951 26.161 16.8189 25.8848 16.478 25.544C15.7122 24.7782 14.7272 24.4048 13.8134 24.4437ZM13.9123 26.7727C14.1823 26.7617 14.46 26.8259 14.8274 27.1932C15.4433 27.809 16.6758 29.0403 16.6758 29.0403C16.784 29.1488 16.9125 29.235 17.0541 29.2937C17.1956 29.3525 17.3473 29.3828 17.5006 29.3828C17.6538 29.3828 17.8056 29.3525 17.9471 29.2937C18.0886 29.235 18.2171 29.1488 18.3253 29.0403C18.3253 29.0403 19.5567 27.809 20.1726 27.1932C20.54 26.8258 20.8177 26.7612 21.0877 26.7727C21.3577 26.7837 21.6474 26.9152 21.8698 27.1376C22.0922 27.3599 22.2232 27.6496 22.2347 27.9196C22.2461 28.1895 22.1816 28.4671 21.8141 28.8345C20.6497 29.9988 19.4851 31.1632 18.3208 32.3274C18.0966 32.5516 17.7962 32.6753 17.4829 32.6707C17.1822 32.6663 16.8951 32.5433 16.6792 32.3274C15.5149 31.1632 14.3514 29.9988 13.187 28.8345C12.8196 28.4671 12.7538 28.1895 12.7653 27.9196C12.7768 27.6496 12.9078 27.3599 13.1302 27.1376C13.3526 26.9152 13.6423 26.7842 13.9123 26.7727Z" fill="#7B746A"/>
</svg>
