<svg width="201" height="55" viewBox="0 0 201 55" fill="none" xmlns="http://www.w3.org/2000/svg">
<path fill-rule="evenodd" clip-rule="evenodd" d="M27.7173 54.8847C42.6799 54.8847 54.8095 42.7551 54.8095 27.7925C54.8095 12.8298 42.6799 0.700195 27.7173 0.700195C12.7546 0.700195 0.625 12.8298 0.625 27.7925C0.625 42.7551 12.7546 54.8847 27.7173 54.8847ZM27.7173 54.1068C42.2503 54.1068 54.0316 42.3255 54.0316 27.7925C54.0316 13.2594 42.2503 1.47813 27.7173 1.47813C13.1842 1.47813 1.40294 13.2594 1.40294 27.7925C1.40294 42.3255 13.1842 54.1068 27.7173 54.1068Z" fill="white"/>
<path fill-rule="evenodd" clip-rule="evenodd" d="M27.3809 12.5747C27.4583 12.5709 27.5358 12.5709 27.6132 12.5709C27.5396 12.5709 27.4622 12.5709 27.3809 12.5747ZM26.8236 44.4856C27.2842 44.4275 27.7331 44.3269 28.1666 44.1914V31.996C27.7215 31.7561 27.2687 31.5277 26.8236 31.3033V44.4856ZM33.6702 38.5059C33.6625 38.5833 33.6509 38.6607 33.6393 38.7343C33.4496 39.9341 32.8149 41.1068 31.8434 42.0124C31.0036 42.7826 29.947 43.5103 28.7472 43.9824V32.3018C30.2566 33.1417 31.6693 34.0705 32.633 35.1194C33.2871 35.8664 33.6663 36.8185 33.6973 37.8131C33.7012 38.0454 33.6934 38.2737 33.6702 38.5059ZM26.2469 22.5873C24.6678 21.8132 23.2629 20.9927 22.4037 20.0406C21.947 19.5026 21.6258 18.9414 21.4671 18.3609C21.4206 18.1906 21.3858 18.0164 21.3665 17.8384C21.2542 16.7895 21.6799 15.6904 22.7946 14.5641C23.379 13.999 24.126 13.3488 25.0704 13.0585C25.3645 12.9657 25.798 12.8457 26.2469 12.7489V22.5873ZM26.2469 27.9283C23.8938 26.8601 21.5638 25.7726 20.3447 24.4179C19.1294 22.9821 18.8624 21.3759 20.0854 19.7C20.1744 20.1722 20.337 20.625 20.573 21.043C21.6838 23.0246 23.3868 24.0541 25.229 25.0643C25.5425 25.2385 25.887 25.4204 26.2508 25.6061L26.2469 27.9283ZM27.6596 26.3105C27.826 26.3918 27.9963 26.477 28.1705 26.5621V28.8108C27.7293 28.6018 27.2803 28.3966 26.8275 28.1915V25.9003C27.0945 26.0319 27.3732 26.1712 27.6596 26.3105ZM34.6881 30.7421C33.2948 29.221 30.9494 27.9477 28.7433 26.8485V29.0856C29.2348 29.3255 29.7109 29.5693 30.156 29.817C31.0848 30.3241 32.0215 30.9085 32.8342 31.5935C33.6122 32.2476 34.3049 33.0062 34.781 33.9002C35.0171 34.3376 35.1913 34.8098 35.3035 35.2936C35.3228 35.3864 35.3383 35.4793 35.3499 35.5722C36.0272 33.9622 35.8995 32.1392 34.6881 30.7421ZM37.3625 30.9123C37.2503 30.4247 37.0761 29.9564 36.84 29.519C36.364 28.625 35.6712 27.8664 34.8932 27.2123C34.3282 26.7479 33.7321 26.3221 33.1051 25.9467C32.811 25.7687 32.513 25.5984 32.215 25.4358C32.0834 25.3623 31.944 25.2849 31.8047 25.2114C30.8604 24.7082 29.8038 24.2244 28.7394 23.7445V18.4576L28.2905 18.0087V13.7436H28.1627V23.4852C27.7099 23.2801 27.261 23.0749 26.8197 22.8659V15.582L26.3708 15.1292V12.7218C26.6998 12.6483 27.0365 12.6018 27.3732 12.5786C27.0442 12.5864 26.7036 12.6096 26.3708 12.6483V11.3169H26.2431V12.6638C25.8212 12.7141 25.3993 12.7876 24.9852 12.8883C23.9828 13.1437 23.1158 13.5501 22.3921 14.0919C21.6877 14.6183 21.1033 15.2956 20.6853 16.0735C20.2324 17.0179 20.0157 17.9119 20.0002 18.7402C19.4429 19.224 18.9746 19.8045 18.6263 20.4586C17.709 22.3744 17.7554 24.0928 18.5063 25.432C19.6171 27.4136 21.32 28.4431 23.1623 29.4532C23.8628 29.8441 24.6988 30.2544 25.5929 30.6956C25.8057 30.8001 26.0225 30.9085 26.2431 31.0168V44.5398C26.2237 44.5398 26.185 44.5398 26.1579 44.5436C26.1463 44.5436 26.1386 44.5436 26.1308 44.5436C26.1231 44.5436 26.1192 44.5436 26.1153 44.5436C25.8715 44.5436 25.6973 44.5398 25.3219 44.5088L25.3684 44.5127C25.5851 44.532 25.7941 44.5475 25.9954 44.5475H26.096H26.2431C26.4366 44.5475 26.6301 44.5436 26.8197 44.5359C28.902 44.4353 30.8294 43.758 32.3195 42.6123C34.3204 40.9829 35.2532 39.1639 35.408 37.2829C37.2735 35.309 37.7728 33.1262 37.3625 30.9123Z" fill="white"/>
<path d="M76.3455 40.1763C73.2879 40.1763 70.5439 39.4758 68.748 38.1405L69.4718 34.9281H69.5995C71.0509 37.5987 73.4157 39.7312 76.3494 39.7312C79.5346 39.7312 81.4272 38.1096 81.4272 35.439C81.4272 28.9833 69.6344 29.9045 69.6344 22.5934C69.6344 18.905 72.7577 16.6138 77.1389 16.6138C79.883 16.6138 82.151 17.473 83.8888 18.6496L83.1302 21.9239H82.9715C81.8684 19.5397 79.9139 17.0589 77.0112 17.0589C74.0775 17.0589 72.2197 18.7773 72.2197 21.2233C72.2197 27.0753 84.1713 26.1193 84.1713 33.9412C84.1674 37.7922 81.1408 40.1763 76.3455 40.1763Z" fill="white"/>
<path d="M91.9874 38.9392C94.1006 38.9392 95.5171 37.8245 96.4344 36.7756V30.32L93.0595 31.7171C90.0638 33.0214 89.2433 34.6431 89.2433 36.168C89.2433 37.7278 90.2225 38.9392 91.9874 38.9392ZM102.298 37.6968H102.329L102.391 37.7935C101.791 39.4771 100.908 40.1777 99.4571 40.1777C98.0715 40.1777 96.775 39.2875 96.4615 37.124V37.0272C94.9792 38.9043 92.9627 40.1738 90.5012 40.1738C88.1055 40.1738 86.5264 38.8385 86.5264 36.7408C86.5264 34.705 88.0397 33.0834 91.7281 31.7481L96.4267 30.0645V28.7912C96.4267 26.7554 95.6681 24.3093 92.4867 24.3093C89.5839 24.3093 87.5984 26.7244 87.5984 28.826H87.4398C87.4398 25.9658 89.5839 22.9431 93.431 22.9431C97.7193 22.9431 99.4223 25.7414 99.4223 29.6543V36.7447C99.4223 38.3044 99.9603 38.8424 100.808 38.8424C101.385 38.8424 101.892 38.525 102.298 37.6968Z" fill="white"/>
<path d="M129.438 29.8129V37.5071C129.438 38.4592 129.786 39.4462 130.572 39.7635V39.9532H125.274V39.7635C126.063 39.4462 126.377 38.525 126.377 37.5071V29.1124C126.377 25.7723 124.863 24.2784 122.878 24.2784C120.985 24.2784 119.6 25.3582 118.559 26.6315V37.5071C118.559 38.4592 118.907 39.4462 119.693 39.7635V39.9532H114.394V39.7635C115.184 39.4462 115.497 38.525 115.497 37.5071V29.1124C115.497 25.7723 113.984 24.2784 111.998 24.2784C110.106 24.2784 108.654 25.1066 107.71 26.3451V37.5071C107.71 38.4592 108.023 39.4462 108.813 39.7635V39.9532H103.546V39.7635C104.335 39.4462 104.649 38.525 104.649 37.5071V27.6494C104.649 26.2174 104.111 25.6136 103.294 24.9131V24.7854C104.459 24.3403 106.197 23.7056 107.424 23.2605H107.551L107.582 26.1555C108.747 24.3442 110.957 22.9431 113.512 22.9431C117.076 22.9431 118.179 25.6446 118.431 26.4419C119.534 24.5957 121.775 22.9431 124.36 22.9431C128.617 22.9431 129.438 26.7283 129.438 29.8129Z" fill="white"/>
<path d="M140.807 39.6709C143.49 39.6709 145.758 37.3488 145.758 31.8181C145.758 27.0498 143.993 24.3135 141.341 24.3135C139.418 24.3135 137.936 25.2037 136.991 26.5389V37.6661C137.905 38.9046 139.484 39.6709 140.807 39.6709ZM142.603 22.9744C146.261 22.9744 149.098 25.9932 149.098 31.5587C149.098 36.9966 145.568 40.1741 141.245 40.1741C139.48 40.1741 137.525 39.4426 136.043 37.8519L134.119 39.9496H133.93V19.8201C133.93 18.388 133.392 17.7843 132.575 17.0837V16.9251C133.775 16.48 135.602 15.8452 136.833 15.4001H136.96V26.2758C138.125 24.3754 140.115 22.9744 142.603 22.9744Z" fill="white"/>
<path d="M166.622 29.8122V37.5064C166.622 38.4585 166.97 39.4454 167.756 39.7628V39.9525H162.488V39.7628C163.278 39.4454 163.592 38.5243 163.592 37.5064V29.1117C163.592 25.7716 162.047 24.2776 160.062 24.2776C158.169 24.2776 156.718 25.1059 155.773 26.3444V37.5064C155.773 38.4585 156.122 39.4454 156.907 39.7628V39.9525H151.609V39.7628C152.399 39.4454 152.712 38.5243 152.712 37.5064V19.8268C152.712 18.3947 152.174 17.791 151.357 17.0905V16.9318L155.518 15.4069H155.77V25.9961C156.935 24.2776 159.079 22.9424 161.571 22.9424C165.832 22.9424 166.622 26.7276 166.622 29.8122Z" fill="white"/>
<path d="M175.232 38.9392C177.345 38.9392 178.761 37.8245 179.679 36.7757V30.32L176.304 31.7171C173.308 33.0214 172.487 34.6431 172.487 36.168C172.487 37.7278 173.467 38.9392 175.232 38.9392ZM185.542 37.6968H185.573L185.635 37.7935C185.035 39.4771 184.153 40.1777 182.701 40.1777C181.316 40.1777 180.019 39.2875 179.706 37.124V37.0272C178.223 38.9043 176.207 40.1738 173.745 40.1738C171.35 40.1738 169.771 38.8385 169.771 36.7408C169.771 34.705 171.284 33.0834 174.972 31.7481L179.671 30.0645V28.7912C179.671 26.7554 178.912 24.3093 175.731 24.3093C172.828 24.3093 170.843 26.7244 170.843 28.826H170.692C170.692 25.9658 172.836 22.9431 176.683 22.9431C180.971 22.9431 182.674 25.7414 182.674 29.6543V36.7447C182.674 38.3044 183.212 38.8424 184.06 38.8424C184.629 38.8424 185.136 38.525 185.542 37.6968Z" fill="white"/>
<path d="M196.766 23.6738V23.4841H200.644V23.6738C199.413 24.4053 199.003 25.2335 198.659 25.996L192.478 39.9562H192.195L186.363 26.4101C185.763 25.0748 185.384 24.3433 184.408 23.6738V23.4841H190.492V23.6738C189.451 24.0569 188.789 24.8504 189.513 26.503L193.643 36.233L197.962 26.3443C198.5 25.1677 197.9 24.3433 196.766 23.6738Z" fill="white"/>
</svg>
