<svg width="38" height="37" viewBox="0 0 38 37" fill="none" xmlns="http://www.w3.org/2000/svg">
<path d="M26.748 26.0309H26.598V26.1809V27.0114V27.1614H26.748H27.9245H28.0745V27.0114V26.1809V26.0309H27.9245H26.748Z" fill="#C1CBC4" stroke="#C1CBC4" stroke-width="0.3"/>
<path d="M29.7022 27.0115V27.1615H29.8522H36.848C37.1601 27.1615 37.4133 26.9083 37.4133 26.5962V19.6262C37.4133 19.3141 37.1601 19.0609 36.848 19.0609H12.7297C12.4176 19.0609 12.1645 19.3141 12.1645 19.6262V26.5962C12.1645 26.9083 12.4176 27.1615 12.7297 27.1615H24.8215H24.9715V27.0115V26.181V26.031H24.8215H13.295V20.1914H36.2828V26.031H29.8522H29.7022V26.181V27.0115ZM12.7297 32.5161H36.848C37.1601 32.5161 37.4133 32.263 37.4133 31.9509V29.2733C37.4133 28.9613 37.1601 28.7081 36.848 28.7081H12.7297C12.4176 28.7081 12.1645 28.9613 12.1645 29.2733V31.9509C12.1645 32.263 12.4176 32.5161 12.7297 32.5161ZM36.2828 29.8386V31.3856H13.295V29.8386H36.2828Z" fill="#C1CBC4" stroke="#C1CBC4" stroke-width="0.3"/>
<path d="M2.59003 4.22769L2.59004 4.22767C3.85187 2.06778 5.61539 0.85 7.56639 0.85C9.51739 0.85 11.2809 2.06778 12.5427 4.22767C13.6002 6.03766 14.2305 8.37593 14.2305 10.4889C14.2305 12.5333 13.6161 14.4082 12.4895 15.7634C11.2717 17.2295 9.56615 18.0026 7.5668 18.0026C5.56745 18.0026 3.86189 17.2295 2.64366 15.7634L2.59003 4.22769ZM2.59003 4.22769C1.53298 6.03766 0.902734 8.37593 0.902734 10.4889C0.902734 12.5333 1.51712 14.4082 2.64364 15.7634L2.59003 4.22769ZM3.56621 4.798L3.56622 4.79799C4.33164 3.48778 5.63497 1.98051 7.56639 1.98051C9.49781 1.98051 10.8011 3.48778 11.5666 4.79799L11.5666 4.798C12.526 6.43999 13.1 8.56983 13.1 10.4889C13.1 12.0904 12.6669 13.6895 11.761 14.8843C10.859 16.0742 9.48218 16.8721 7.5668 16.8721C5.65121 16.8721 4.27433 16.0742 3.37222 14.8843C2.46633 13.6895 2.03324 12.0904 2.03324 10.4889C2.03324 8.5694 2.60683 6.43997 3.56621 4.798ZM15.7049 29.839H17.4897C17.8017 29.839 18.0549 29.5858 18.0549 29.2737V26.5962C18.0549 26.2841 17.8017 26.0309 17.4897 26.0309H15.7049C15.3929 26.0309 15.1397 26.2841 15.1397 26.5962V29.2737C15.1397 29.5858 15.3929 29.839 15.7049 29.839ZM16.9244 27.1614V28.7085H16.2702V27.1614H16.9244ZM15.7049 36.1496H17.4897C17.8017 36.1496 18.0549 35.8964 18.0549 35.5843V31.9509C18.0549 31.6388 17.8017 31.3856 17.4897 31.3856H15.7049C15.3929 31.3856 15.1397 31.6388 15.1397 31.9509V35.5843C15.1397 35.8964 15.3929 36.1496 15.7049 36.1496ZM16.9244 32.5161V35.0191H16.2702V32.5161H16.9244ZM32.0883 29.839H33.8731C34.1851 29.839 34.4383 29.5858 34.4383 29.2737V26.5962C34.4383 26.2841 34.1851 26.0309 33.8731 26.0309H32.0883C31.7763 26.0309 31.5231 26.2841 31.5231 26.5962V29.2737C31.5231 29.5858 31.7763 29.839 32.0883 29.839ZM33.3078 27.1614V28.7085H32.6536V27.1614H33.3078ZM32.0883 36.1496H33.8731C34.1851 36.1496 34.4383 35.8964 34.4383 35.5843V31.9509C34.4383 31.6388 34.1851 31.3856 33.8731 31.3856H32.0883C31.7763 31.3856 31.5231 31.6388 31.5231 31.9509V35.5843C31.5231 35.8964 31.7762 36.1496 32.0883 36.1496ZM33.3078 32.5161V35.0191H32.6536V32.5161H33.3078Z" fill="#C1CBC4" stroke="#C1CBC4" stroke-width="0.3"/>
<path d="M7.10742 10.6579H6.95742V10.8079V26.4048V26.5548H7.10742H7.93793H8.08793V26.4048V10.8079V10.6579H7.93793H7.10742ZM23.8084 10.7946C23.8084 13.9769 26.3974 16.5659 29.5797 16.5659C32.7619 16.5659 35.3509 13.9769 35.3509 10.7946C35.3509 7.61233 32.7619 5.02334 29.5797 5.02334C26.3974 5.02334 23.8084 7.61233 23.8084 10.7946ZM24.9389 10.7946C24.9389 8.23562 27.0207 6.15385 29.5797 6.15385C32.1387 6.15385 34.2204 8.23562 34.2204 10.7946C34.2204 13.3536 32.1387 15.4354 29.5797 15.4354C27.0207 15.4354 24.9389 13.3536 24.9389 10.7946Z" fill="#C1CBC4" stroke="#C1CBC4" stroke-width="0.3"/>
<path d="M29.1654 12.2119H29.0154V12.3619V19.6263V19.7763H29.1654H29.9959H30.1459V19.6263V12.3619V12.2119H29.9959H29.1654ZM5.21627 11.9684L5.11019 12.0744L5.21624 12.1805L7.16565 14.1305L7.22483 14.1897L7.16572 14.2488L7.05964 14.3548L7.16569 14.4609L7.75285 15.0483L7.8589 15.1543L7.96499 15.0483L9.53465 13.479L9.64072 13.373L9.53468 13.2669L8.94751 12.6795L8.84146 12.5735L8.73537 12.6795L8.02431 13.3904L7.96514 13.3312L6.01574 11.3813L5.90969 11.2752L5.80361 11.3812L5.21627 11.9684ZM1 35.0196H0.85V35.1696V36.0001V36.1501H1H37.2516H37.4016V36.0001V35.1696V35.0196H37.2516H1ZM1.84047 32.3348H1.99047V32.1848C1.99047 29.316 4.32431 26.9822 7.19267 26.9822C7.47982 26.9822 7.76728 27.0056 8.04768 27.052L8.19563 27.0765L8.22015 26.9285L8.35594 26.1093L8.38046 25.9613L8.2325 25.9368C7.89124 25.8802 7.54169 25.8517 7.19308 25.8517C3.70101 25.8517 0.859966 28.6927 0.859966 32.1848V32.3348H1.00997H1.84047Z" fill="#C1CBC4" stroke="#C1CBC4" stroke-width="0.3"/>
<path d="M8.23246 27.7451H8.08246H7.25195H7.10195V27.5951C7.10195 25.8068 8.55647 24.3523 10.3448 24.3523C11.488 24.3523 12.5586 24.9643 13.1399 25.9501L13.2161 26.0794L13.0868 26.1555L12.3713 26.577L12.2421 26.6532L12.166 26.5239C11.7876 25.8816 11.0893 25.4824 10.3452 25.4824L8.23246 27.7451ZM8.23246 27.7451V27.5951M8.23246 27.7451V27.5951M8.23246 27.5951C8.23246 26.4306 9.18014 25.4828 10.3452 25.4824L8.23246 27.5951ZM29.1794 13.7774L29.0734 13.8835L29.1794 13.9895L29.7667 14.5768L29.8728 14.6829L29.9788 14.5768L31.7168 12.8388L31.8229 12.7327L31.7168 12.6266L31.1295 12.0394L31.0235 11.9334L30.9174 12.0394L29.1794 13.7774Z" fill="#C1CBC4" stroke="#C1CBC4" stroke-width="0.3"/>
</svg>
