<svg width="28" height="38" viewBox="0 0 28 38" fill="none" xmlns="http://www.w3.org/2000/svg">
<mask id="path-1-outside-1_13_35926" maskUnits="userSpaceOnUse" x="-0.00390625" y="0.122559" width="28" height="37" fill="black">
<rect fill="white" x="-0.00390625" y="0.122559" width="28" height="37"/>
<path d="M1.74089 19.8246L9.04964 10.8939C8.46897 10.3839 7.98931 9.74956 7.64849 9.0157C7.08045 7.77187 7.00466 6.41616 7.35811 5.18477C7.71155 3.95338 8.50682 2.83394 9.65552 2.0752C10.8042 1.31647 12.1549 1.01789 13.4424 1.15471C14.7426 1.30397 15.9923 1.87613 16.9391 2.8712C17.8858 3.86626 18.4033 5.12255 18.4791 6.4037C18.5422 7.43607 18.3023 8.48086 17.7722 9.41373L26.2802 19.8121C26.7599 20.3967 26.9996 21.0933 26.9996 21.7774C26.9996 22.4739 26.7599 23.1705 26.2802 23.7426L16.4847 35.7082C16.1817 36.0814 15.803 36.3799 15.3738 36.5789C14.9446 36.778 14.4902 36.8774 13.9979 36.8774C13.5056 36.8774 13.0512 36.778 12.622 36.5789C12.1928 36.3799 11.8267 36.0938 11.5112 35.7082L1.71562 23.7426C1.23594 23.158 0.996094 22.4615 0.996094 21.7774C1.02134 21.1057 1.26121 20.4092 1.74089 19.8246ZM10.3119 9.35156L11.5363 7.85895C11.8393 7.4858 12.218 7.18727 12.6472 6.98826C13.0764 6.78925 13.5435 6.68975 14.0231 6.68975C14.5154 6.68975 14.9699 6.78925 15.3991 6.98826C15.7525 7.16239 16.0807 7.38628 16.3584 7.6848C16.472 7.29921 16.5099 6.91362 16.4847 6.5156C16.4342 5.69467 16.1059 4.8738 15.4874 4.23945C14.8815 3.6051 14.0736 3.21949 13.2405 3.13243C12.4074 3.04536 11.5364 3.2319 10.7916 3.71699C10.0469 4.20208 9.54196 4.92356 9.31475 5.71961C9.08753 6.51566 9.12536 7.39876 9.50405 8.19481C9.68077 8.65502 9.97112 9.0406 10.3119 9.35156ZM13.758 10.2098C14.2882 10.073 14.8437 10.3839 14.9825 10.9188C15.1214 11.4536 14.8058 11.9884 14.263 12.1253C13.0764 12.4362 11.8519 12.3492 10.7664 11.9387L3.29351 21.0684C3.11678 21.2798 3.02839 21.5411 3.02839 21.8023C3.02839 22.051 3.11678 22.3123 3.29351 22.5237L13.089 34.4893C13.2027 34.6386 13.3415 34.7505 13.493 34.8126C13.6318 34.8748 13.8085 34.9122 14.0105 34.9122C14.1999 34.9122 14.3766 34.8748 14.5155 34.8126C14.6669 34.738 14.7932 34.6386 14.9194 34.4893L24.7149 22.5237C24.8916 22.3123 24.98 22.051 24.98 21.8023C24.98 21.5411 24.8916 21.2923 24.7149 21.0684L15.7778 10.1476L15.7272 10.0854L15.7147 10.0605L14.9194 9.09033C14.8058 8.94107 14.6669 8.82919 14.5155 8.767C14.3766 8.69237 14.1999 8.66747 14.0105 8.66747C13.8212 8.66747 13.6445 8.7048 13.493 8.767C13.3415 8.84163 13.2153 8.94107 13.089 9.09033L12.1297 10.2595C12.6725 10.3715 13.2152 10.3466 13.758 10.2098ZM17.4188 18.8171C17.4945 19.3643 17.1032 19.8619 16.5604 19.9365C16.0176 20.0112 15.5 19.638 15.4243 19.0907C15.3864 18.8047 15.2602 18.5434 15.0709 18.3444L15.033 18.3071C14.8562 18.1206 14.6164 17.9962 14.3387 17.934C14.0484 17.8718 13.7581 17.8967 13.493 17.9962L13.4551 18.0086C13.2026 18.1081 12.988 18.2822 12.8366 18.5061C12.6725 18.7549 12.5841 19.0285 12.5967 19.3022C12.5967 19.5758 12.6851 19.8495 12.8618 20.0858L12.887 20.1231C12.9628 20.2101 13.0512 20.2972 13.19 20.3843C13.4173 20.5211 13.7707 20.6704 14.3134 20.8445C15.0077 21.0684 15.4874 21.2799 15.8661 21.5038L15.9292 21.541C16.3332 21.7898 16.5983 22.0511 16.8002 22.362C17.2042 22.9342 17.4188 23.6058 17.4188 24.2775C17.4314 24.9491 17.2294 25.6208 16.8381 26.1929C16.4341 26.7775 15.8787 27.2129 15.2475 27.4617L15.0077 27.5487V28.5065C15.0077 29.0538 14.5533 29.5016 13.9979 29.5016C13.4425 29.5016 12.988 29.0538 12.988 28.5065V27.5612C12.3948 27.3871 11.8646 27.0512 11.4606 26.6034C10.9936 26.1059 10.6906 25.484 10.5896 24.7874C10.5139 24.2401 10.8926 23.7426 11.4481 23.668C12.0035 23.5934 12.5083 23.9665 12.5841 24.5138C12.622 24.7999 12.7482 25.0611 12.9376 25.2601C13.1269 25.4591 13.3793 25.6084 13.6697 25.683C13.9474 25.7452 14.2251 25.7203 14.4776 25.6333L14.5155 25.6208C14.7805 25.5213 15.0077 25.3347 15.1718 25.0984C15.3359 24.862 15.4243 24.576 15.4116 24.3024C15.4116 24.0287 15.3233 23.7551 15.1466 23.5188C15.0709 23.4193 14.9825 23.3321 14.8562 23.2451L14.8058 23.2203C14.5786 23.0834 14.2251 22.9342 13.6823 22.76C13.0006 22.5362 12.5084 22.3371 12.1423 22.1132C11.7257 21.8645 11.4606 21.6157 11.246 21.3172L11.1956 21.255C10.7916 20.6828 10.5771 20.0112 10.5771 19.3395C10.5644 18.6679 10.7664 17.9961 11.1577 17.424C11.549 16.8643 12.0792 16.4414 12.6851 16.1926L12.988 16.0806V15.1354C12.988 14.5881 13.4425 14.1403 13.9979 14.1403C14.5533 14.1403 15.0077 14.5881 15.0077 15.1354V16.0806C15.5757 16.2548 16.0807 16.5658 16.4847 16.9762L16.5478 17.0384C17.0148 17.4986 17.3304 18.1205 17.4188 18.8171Z"/>
</mask>
<path d="M1.74089 19.8246L9.04964 10.8939C8.46897 10.3839 7.98931 9.74956 7.64849 9.0157C7.08045 7.77187 7.00466 6.41616 7.35811 5.18477C7.71155 3.95338 8.50682 2.83394 9.65552 2.0752C10.8042 1.31647 12.1549 1.01789 13.4424 1.15471C14.7426 1.30397 15.9923 1.87613 16.9391 2.8712C17.8858 3.86626 18.4033 5.12255 18.4791 6.4037C18.5422 7.43607 18.3023 8.48086 17.7722 9.41373L26.2802 19.8121C26.7599 20.3967 26.9996 21.0933 26.9996 21.7774C26.9996 22.4739 26.7599 23.1705 26.2802 23.7426L16.4847 35.7082C16.1817 36.0814 15.803 36.3799 15.3738 36.5789C14.9446 36.778 14.4902 36.8774 13.9979 36.8774C13.5056 36.8774 13.0512 36.778 12.622 36.5789C12.1928 36.3799 11.8267 36.0938 11.5112 35.7082L1.71562 23.7426C1.23594 23.158 0.996094 22.4615 0.996094 21.7774C1.02134 21.1057 1.26121 20.4092 1.74089 19.8246ZM10.3119 9.35156L11.5363 7.85895C11.8393 7.4858 12.218 7.18727 12.6472 6.98826C13.0764 6.78925 13.5435 6.68975 14.0231 6.68975C14.5154 6.68975 14.9699 6.78925 15.3991 6.98826C15.7525 7.16239 16.0807 7.38628 16.3584 7.6848C16.472 7.29921 16.5099 6.91362 16.4847 6.5156C16.4342 5.69467 16.1059 4.8738 15.4874 4.23945C14.8815 3.6051 14.0736 3.21949 13.2405 3.13243C12.4074 3.04536 11.5364 3.2319 10.7916 3.71699C10.0469 4.20208 9.54196 4.92356 9.31475 5.71961C9.08753 6.51566 9.12536 7.39876 9.50405 8.19481C9.68077 8.65502 9.97112 9.0406 10.3119 9.35156ZM13.758 10.2098C14.2882 10.073 14.8437 10.3839 14.9825 10.9188C15.1214 11.4536 14.8058 11.9884 14.263 12.1253C13.0764 12.4362 11.8519 12.3492 10.7664 11.9387L3.29351 21.0684C3.11678 21.2798 3.02839 21.5411 3.02839 21.8023C3.02839 22.051 3.11678 22.3123 3.29351 22.5237L13.089 34.4893C13.2027 34.6386 13.3415 34.7505 13.493 34.8126C13.6318 34.8748 13.8085 34.9122 14.0105 34.9122C14.1999 34.9122 14.3766 34.8748 14.5155 34.8126C14.6669 34.738 14.7932 34.6386 14.9194 34.4893L24.7149 22.5237C24.8916 22.3123 24.98 22.051 24.98 21.8023C24.98 21.5411 24.8916 21.2923 24.7149 21.0684L15.7778 10.1476L15.7272 10.0854L15.7147 10.0605L14.9194 9.09033C14.8058 8.94107 14.6669 8.82919 14.5155 8.767C14.3766 8.69237 14.1999 8.66747 14.0105 8.66747C13.8212 8.66747 13.6445 8.7048 13.493 8.767C13.3415 8.84163 13.2153 8.94107 13.089 9.09033L12.1297 10.2595C12.6725 10.3715 13.2152 10.3466 13.758 10.2098ZM17.4188 18.8171C17.4945 19.3643 17.1032 19.8619 16.5604 19.9365C16.0176 20.0112 15.5 19.638 15.4243 19.0907C15.3864 18.8047 15.2602 18.5434 15.0709 18.3444L15.033 18.3071C14.8562 18.1206 14.6164 17.9962 14.3387 17.934C14.0484 17.8718 13.7581 17.8967 13.493 17.9962L13.4551 18.0086C13.2026 18.1081 12.988 18.2822 12.8366 18.5061C12.6725 18.7549 12.5841 19.0285 12.5967 19.3022C12.5967 19.5758 12.6851 19.8495 12.8618 20.0858L12.887 20.1231C12.9628 20.2101 13.0512 20.2972 13.19 20.3843C13.4173 20.5211 13.7707 20.6704 14.3134 20.8445C15.0077 21.0684 15.4874 21.2799 15.8661 21.5038L15.9292 21.541C16.3332 21.7898 16.5983 22.0511 16.8002 22.362C17.2042 22.9342 17.4188 23.6058 17.4188 24.2775C17.4314 24.9491 17.2294 25.6208 16.8381 26.1929C16.4341 26.7775 15.8787 27.2129 15.2475 27.4617L15.0077 27.5487V28.5065C15.0077 29.0538 14.5533 29.5016 13.9979 29.5016C13.4425 29.5016 12.988 29.0538 12.988 28.5065V27.5612C12.3948 27.3871 11.8646 27.0512 11.4606 26.6034C10.9936 26.1059 10.6906 25.484 10.5896 24.7874C10.5139 24.2401 10.8926 23.7426 11.4481 23.668C12.0035 23.5934 12.5083 23.9665 12.5841 24.5138C12.622 24.7999 12.7482 25.0611 12.9376 25.2601C13.1269 25.4591 13.3793 25.6084 13.6697 25.683C13.9474 25.7452 14.2251 25.7203 14.4776 25.6333L14.5155 25.6208C14.7805 25.5213 15.0077 25.3347 15.1718 25.0984C15.3359 24.862 15.4243 24.576 15.4116 24.3024C15.4116 24.0287 15.3233 23.7551 15.1466 23.5188C15.0709 23.4193 14.9825 23.3321 14.8562 23.2451L14.8058 23.2203C14.5786 23.0834 14.2251 22.9342 13.6823 22.76C13.0006 22.5362 12.5084 22.3371 12.1423 22.1132C11.7257 21.8645 11.4606 21.6157 11.246 21.3172L11.1956 21.255C10.7916 20.6828 10.5771 20.0112 10.5771 19.3395C10.5644 18.6679 10.7664 17.9961 11.1577 17.424C11.549 16.8643 12.0792 16.4414 12.6851 16.1926L12.988 16.0806V15.1354C12.988 14.5881 13.4425 14.1403 13.9979 14.1403C14.5533 14.1403 15.0077 14.5881 15.0077 15.1354V16.0806C15.5757 16.2548 16.0807 16.5658 16.4847 16.9762L16.5478 17.0384C17.0148 17.4986 17.3304 18.1205 17.4188 18.8171Z" fill="#C1CBC4"/>
<path d="M1.74089 19.8246L9.04964 10.8939C8.46897 10.3839 7.98931 9.74956 7.64849 9.0157C7.08045 7.77187 7.00466 6.41616 7.35811 5.18477C7.71155 3.95338 8.50682 2.83394 9.65552 2.0752C10.8042 1.31647 12.1549 1.01789 13.4424 1.15471C14.7426 1.30397 15.9923 1.87613 16.9391 2.8712C17.8858 3.86626 18.4033 5.12255 18.4791 6.4037C18.5422 7.43607 18.3023 8.48086 17.7722 9.41373L26.2802 19.8121C26.7599 20.3967 26.9996 21.0933 26.9996 21.7774C26.9996 22.4739 26.7599 23.1705 26.2802 23.7426L16.4847 35.7082C16.1817 36.0814 15.803 36.3799 15.3738 36.5789C14.9446 36.778 14.4902 36.8774 13.9979 36.8774C13.5056 36.8774 13.0512 36.778 12.622 36.5789C12.1928 36.3799 11.8267 36.0938 11.5112 35.7082L1.71562 23.7426C1.23594 23.158 0.996094 22.4615 0.996094 21.7774C1.02134 21.1057 1.26121 20.4092 1.74089 19.8246ZM10.3119 9.35156L11.5363 7.85895C11.8393 7.4858 12.218 7.18727 12.6472 6.98826C13.0764 6.78925 13.5435 6.68975 14.0231 6.68975C14.5154 6.68975 14.9699 6.78925 15.3991 6.98826C15.7525 7.16239 16.0807 7.38628 16.3584 7.6848C16.472 7.29921 16.5099 6.91362 16.4847 6.5156C16.4342 5.69467 16.1059 4.8738 15.4874 4.23945C14.8815 3.6051 14.0736 3.21949 13.2405 3.13243C12.4074 3.04536 11.5364 3.2319 10.7916 3.71699C10.0469 4.20208 9.54196 4.92356 9.31475 5.71961C9.08753 6.51566 9.12536 7.39876 9.50405 8.19481C9.68077 8.65502 9.97112 9.0406 10.3119 9.35156ZM13.758 10.2098C14.2882 10.073 14.8437 10.3839 14.9825 10.9188C15.1214 11.4536 14.8058 11.9884 14.263 12.1253C13.0764 12.4362 11.8519 12.3492 10.7664 11.9387L3.29351 21.0684C3.11678 21.2798 3.02839 21.5411 3.02839 21.8023C3.02839 22.051 3.11678 22.3123 3.29351 22.5237L13.089 34.4893C13.2027 34.6386 13.3415 34.7505 13.493 34.8126C13.6318 34.8748 13.8085 34.9122 14.0105 34.9122C14.1999 34.9122 14.3766 34.8748 14.5155 34.8126C14.6669 34.738 14.7932 34.6386 14.9194 34.4893L24.7149 22.5237C24.8916 22.3123 24.98 22.051 24.98 21.8023C24.98 21.5411 24.8916 21.2923 24.7149 21.0684L15.7778 10.1476L15.7272 10.0854L15.7147 10.0605L14.9194 9.09033C14.8058 8.94107 14.6669 8.82919 14.5155 8.767C14.3766 8.69237 14.1999 8.66747 14.0105 8.66747C13.8212 8.66747 13.6445 8.7048 13.493 8.767C13.3415 8.84163 13.2153 8.94107 13.089 9.09033L12.1297 10.2595C12.6725 10.3715 13.2152 10.3466 13.758 10.2098ZM17.4188 18.8171C17.4945 19.3643 17.1032 19.8619 16.5604 19.9365C16.0176 20.0112 15.5 19.638 15.4243 19.0907C15.3864 18.8047 15.2602 18.5434 15.0709 18.3444L15.033 18.3071C14.8562 18.1206 14.6164 17.9962 14.3387 17.934C14.0484 17.8718 13.7581 17.8967 13.493 17.9962L13.4551 18.0086C13.2026 18.1081 12.988 18.2822 12.8366 18.5061C12.6725 18.7549 12.5841 19.0285 12.5967 19.3022C12.5967 19.5758 12.6851 19.8495 12.8618 20.0858L12.887 20.1231C12.9628 20.2101 13.0512 20.2972 13.19 20.3843C13.4173 20.5211 13.7707 20.6704 14.3134 20.8445C15.0077 21.0684 15.4874 21.2799 15.8661 21.5038L15.9292 21.541C16.3332 21.7898 16.5983 22.0511 16.8002 22.362C17.2042 22.9342 17.4188 23.6058 17.4188 24.2775C17.4314 24.9491 17.2294 25.6208 16.8381 26.1929C16.4341 26.7775 15.8787 27.2129 15.2475 27.4617L15.0077 27.5487V28.5065C15.0077 29.0538 14.5533 29.5016 13.9979 29.5016C13.4425 29.5016 12.988 29.0538 12.988 28.5065V27.5612C12.3948 27.3871 11.8646 27.0512 11.4606 26.6034C10.9936 26.1059 10.6906 25.484 10.5896 24.7874C10.5139 24.2401 10.8926 23.7426 11.4481 23.668C12.0035 23.5934 12.5083 23.9665 12.5841 24.5138C12.622 24.7999 12.7482 25.0611 12.9376 25.2601C13.1269 25.4591 13.3793 25.6084 13.6697 25.683C13.9474 25.7452 14.2251 25.7203 14.4776 25.6333L14.5155 25.6208C14.7805 25.5213 15.0077 25.3347 15.1718 25.0984C15.3359 24.862 15.4243 24.576 15.4116 24.3024C15.4116 24.0287 15.3233 23.7551 15.1466 23.5188C15.0709 23.4193 14.9825 23.3321 14.8562 23.2451L14.8058 23.2203C14.5786 23.0834 14.2251 22.9342 13.6823 22.76C13.0006 22.5362 12.5084 22.3371 12.1423 22.1132C11.7257 21.8645 11.4606 21.6157 11.246 21.3172L11.1956 21.255C10.7916 20.6828 10.5771 20.0112 10.5771 19.3395C10.5644 18.6679 10.7664 17.9961 11.1577 17.424C11.549 16.8643 12.0792 16.4414 12.6851 16.1926L12.988 16.0806V15.1354C12.988 14.5881 13.4425 14.1403 13.9979 14.1403C14.5533 14.1403 15.0077 14.5881 15.0077 15.1354V16.0806C15.5757 16.2548 16.0807 16.5658 16.4847 16.9762L16.5478 17.0384C17.0148 17.4986 17.3304 18.1205 17.4188 18.8171Z" stroke="#C1CBC4" stroke-width="0.4" mask="url(#path-1-outside-1_13_35926)"/>
</svg>
