<svg width="44" height="35" viewBox="0 0 44 35" fill="none" xmlns="http://www.w3.org/2000/svg">
<path d="M33.2796 16.2559L33.2796 16.256C33.4398 16.2682 33.5869 16.3042 33.7395 16.3504C34.2005 16.43 34.6582 16.4861 35.1141 16.4861C35.1987 16.4861 35.288 16.4888 35.3792 16.4915L35.3921 16.4919C35.4883 16.4948 35.5872 16.4976 35.6884 16.4976C35.7351 16.4976 35.7812 16.5007 35.8236 16.5035L35.8251 16.5036C35.869 16.5065 35.9091 16.5092 35.9485 16.5092H35.9526L35.9526 16.5092C37.904 16.5895 39.4212 17.2808 40.1929 18.4287C40.2988 18.4216 40.4087 18.4216 40.5072 18.4216H40.5103H40.5131L40.5131 18.4217C40.9487 18.4335 41.3837 18.5627 41.764 18.7975L41.9221 18.8395C42.4817 18.9763 42.9189 19.4453 43.0566 20.031L43.0567 20.0316C43.2472 20.8655 42.7827 21.7308 41.9901 21.9668C41.8139 22.6156 41.3873 23.7218 39.7665 24.5892L39.7663 24.5893C39.1704 24.9061 38.5198 25.0939 37.8477 25.1531C37.7959 25.163 37.7387 25.1708 37.6869 25.1779C37.677 25.1792 37.6674 25.1805 37.6581 25.1818C37.6118 25.1883 37.5737 25.194 37.5452 25.2001C37.5377 25.2107 37.5307 25.2201 37.5244 25.2284L37.5237 25.2293C37.5127 25.2439 37.5043 25.2552 37.496 25.2684L37.4904 25.2773L37.49 25.277C36.4506 26.602 35.6555 27.2638 35.0696 27.5923C34.4788 27.9235 34.1044 27.9135 33.9189 27.9074L33.9174 27.9073C33.6667 27.8952 33.4139 27.8346 33.1827 27.7119C33.1824 27.7117 33.1821 27.7116 33.1818 27.7114L33.2287 27.6231C32.7736 27.3927 32.3944 27.0356 32.1343 26.5863L33.2796 16.2559ZM33.2796 16.2559L33.276 16.2558C32.9593 16.2433 32.6558 16.3432 32.4007 16.5282L32.4005 16.5284C31.9947 16.8242 31.7535 17.3145 31.7526 17.8387C31.6873 18.8716 32.1236 19.8611 32.9257 20.4601C33.0005 20.7064 33.1106 20.9372 33.2504 21.1466C33.0312 21.1515 32.8068 21.1495 32.5825 21.1406L32.5825 21.1405H32.5785H32.4811H32.4614C31.867 21.1166 31.3246 21.4637 31.0488 22.0122C30.5938 22.851 30.5574 23.8762 30.9611 24.7525C30.9476 25.564 31.3764 26.3073 32.0629 26.6622L33.2796 16.2559ZM41.1509 20.4168L41.147 20.4159L41.1247 20.4103L41.1071 20.3955C40.919 20.2376 40.6917 20.1533 40.4647 20.1424C40.3894 20.1424 40.332 20.1426 40.2653 20.1528C40.0433 20.1865 39.9315 20.3199 39.8366 20.4714C39.8225 20.4938 39.808 20.5182 39.7931 20.5432C39.7609 20.5971 39.7271 20.6538 39.6933 20.6988C39.6411 20.7684 39.5703 20.8374 39.4652 20.8553L39.4569 20.8567H39.4485H39.4483H39.4482H39.4481H39.448H39.4478H39.4477H39.4476H39.4475H39.4473H39.4472H39.4471H39.447H39.4468H39.4467H39.4466H39.4465H39.4463H39.4462H39.4461H39.446H39.4458H39.4457H39.4456H39.4455H39.4454H39.4452H39.4451H39.445H39.4449H39.4448H39.4446H39.4445H39.4444H39.4443H39.4442H39.444H39.4439H39.4438H39.4437H39.4436H39.4435H39.4433H39.4432H39.4431H39.443H39.4429H39.4428H39.4426H39.4425H39.4424H39.4423H39.4422H39.4421H39.442H39.4418H39.4417H39.4416H39.4415H39.4414H39.4413H39.4412H39.441H39.4409H39.4408H39.4407H39.4406H39.4405H39.4404H39.4403H39.4402H39.44H39.4399H39.4398H39.4397H39.4396H39.4395H39.4394H39.4393H39.4392H39.4391H39.4389H39.4388H39.4387H39.4386H39.4385H39.4384H39.4383H39.4382H39.4381H39.438H39.4379H39.4378H39.4377H39.4376H39.4374H39.4373H39.4372H39.4371H39.437H39.4369H39.4368H39.4367H39.4366H39.4365H39.4364H39.4363H39.4362H39.4361H39.436H39.4359H39.4358H39.4357H39.4356H39.4355H39.4354H39.4353H39.4352H39.4351H39.435H39.4349H39.4348H39.4347H39.4346H39.4345H39.4344H39.4343H39.4342H39.4341H39.434H39.4339H39.4338H39.4337H39.4336H39.4335H39.4334H39.4333H39.4332H39.4331H39.433H39.4329H39.4328H39.4327H39.4326H39.4325H39.4324H39.4323H39.4322H39.4321H39.432H39.4319H39.4318H39.4317H39.4316H39.4316H39.4315H39.4314H39.4313H39.4312H39.4311H39.431H39.4309H39.4308H39.4307H39.4306H39.4305H39.4304H39.4303H39.4302H39.4302H39.4301H39.43H39.4299H39.4298H39.4297H39.4296H39.4295H39.4294H39.4293H39.4292H39.4292H39.4291H39.429H39.4289H39.4288H39.4287H39.4286H39.4285H39.4284H39.4284H39.4283H39.4282H39.4281H39.428H39.4279H39.4278H39.4277H39.4276H39.4276H39.4275H39.4274H39.4273H39.4272H39.4271H39.427H39.427H39.4269H39.4268H39.4267H39.4266H39.4265H39.4264H39.4264H39.4263H39.4262H39.4261H39.426H39.4259H39.4258H39.4258H39.4257H39.4256H39.4255H39.4254H39.4253H39.4253H39.4252H39.4251H39.425H39.4249H39.4248H39.4248H39.4247H39.4246H39.4245H39.4244H39.4243H39.4243H39.4242H39.4241H39.424H39.4239H39.4239H39.4238H39.4237H39.4236H39.4235H39.4235H39.4234H39.4233H39.4232H39.4231H39.4231H39.423H39.4229H39.4228H39.4227H39.4227H39.4226H39.4225H39.4224H39.4223H39.4223H39.4222H39.4221H39.422H39.4219H39.4219H39.4218H39.4217H39.4216H39.4216H39.4215H39.4214H39.4213H39.4213H39.4212H39.4211H39.421H39.4209H39.4209H39.4208H39.4207H39.4206H39.4206H39.4205H39.4204H39.4203H39.4203H39.4202H39.4201H39.42H39.42H39.4199H39.4198H39.4197H39.4197H39.4196H39.4195H39.4194H39.4194H39.4193H39.4192H39.4191H39.4191H39.419H39.4189H39.4188H39.4188H39.4187H39.4186H39.4185H39.4185H39.4184H39.4183H39.4183H39.4182H39.4181H39.418H39.418H39.4179H39.4178H39.4177H39.4177H39.4176H39.4175H39.4175H39.4174H39.4173H39.4172H39.4172H39.4171H39.417H39.417H39.4169H39.4168H39.4167H39.4167H39.4166H39.4165H39.4165H39.4164H39.4163H39.4163H39.4162H39.4161H39.416H39.416H39.4159H39.4158H39.4158H39.4157H39.4156H39.4156H39.4155H39.4154H39.4153H39.4153H39.4152H39.4151H39.4151H39.415H39.4149H39.4149H39.4148H39.4147H39.4147H39.4146H39.4145H39.4144H39.4144H39.4143H39.4142H39.4142H39.4141H39.414H39.414H39.4139H39.4138H39.4138H39.4137H39.4136H39.4136H39.4135H39.4134H39.4134H39.4133H39.4132H39.4132H39.4131H39.413H39.413H39.4129H39.4128H39.4128H39.4127H39.4126H39.4126H39.4125H39.4124H39.4124H39.4123H39.4122H39.4122H39.4121H39.412H39.412H39.4119H39.4118H39.4118H39.4117H39.4116H39.4116H39.4115H39.4114H39.4114H39.4113H39.4112H39.4112H39.4111H39.411H39.411H39.4109H39.4108H39.4108H39.4107H39.4106H39.4106H39.4105H39.4105H39.4104H39.4103H39.4103H39.4102H39.4101H39.4101H39.41H39.4099H39.4099H39.4098H39.4097H39.4097H39.4096H39.4095H39.4095H39.4094H39.4094H39.4093H39.4092H39.4092H39.4091H39.409H39.409H39.4089H39.4088H39.4088H39.4087H39.4086H39.4086H39.4085H39.4085H39.4084H39.4083H39.4083H39.4082H39.4081H39.4081H39.408H39.4079H39.4079H39.4078H39.4077H39.4077H39.4076H39.4076H39.4075H39.4074H39.4074H39.4073H39.4072H39.4072H39.4071H39.407H39.407H39.4069H39.4069H39.4068H39.4067H39.4067H39.4066H39.4065H39.4065H39.4064H39.4063H39.4063H39.4062H39.4062H39.4061H39.406H39.406H39.4059H39.4058H39.4058H39.4057H39.4056H39.4056H39.4055H39.4055H39.4054H39.4053H39.4053H39.4052H39.4051C39.303 20.8567 39.235 20.7975 39.1955 20.7294C39.1585 20.6656 39.1419 20.5878 39.1338 20.5209C39.1255 20.4522 39.1253 20.3847 39.1269 20.3354C39.1277 20.3105 39.129 20.2897 39.1301 20.2749L39.1316 20.258C39.109 19.6022 38.7335 19.1136 38.1433 18.777C37.5489 18.438 36.7436 18.2586 35.8926 18.2299H35.8925H35.8921H35.8916H35.8912H35.8907H35.8903H35.8898H35.8894H35.889H35.8885H35.8881H35.8876H35.8872H35.8867H35.8863H35.8858H35.8854H35.885H35.8845H35.8841H35.8836H35.8832H35.8827H35.8823H35.8818H35.8814H35.881H35.8805H35.8801H35.8796H35.8792H35.8787H35.8783H35.8778H35.8774H35.877H35.8765H35.8761H35.8756H35.8752H35.8747H35.8743H35.8738H35.8734H35.873H35.8725H35.8721H35.8716H35.8712H35.8707H35.8703H35.8698H35.8694H35.869H35.8685H35.8681H35.8676H35.8672H35.8667H35.8663H35.8658H35.8654H35.865H35.8645H35.8641H35.8636H35.8632H35.8627H35.8623H35.8618H35.8614H35.861H35.8605H35.8601H35.8596H35.8592H35.8587H35.8583H35.8578H35.8574H35.857H35.8565H35.8561H35.8556H35.8552H35.8547H35.8543H35.8538H35.8534H35.853H35.8525H35.8521H35.8516H35.8512H35.8507H35.8503H35.8498H35.8494H35.849H35.8485H35.8481H35.8476H35.8472H35.8467H35.8463H35.8458H35.8454H35.845H35.8445H35.8441H35.8436H35.8432H35.8427H35.8423H35.8419H35.8414H35.841H35.8405H35.8401H35.8396H35.8392H35.8387H35.8383H35.8379H35.8374H35.837H35.8365H35.8361H35.8356H35.8352H35.8347H35.8343H35.8339H35.8334H35.833H35.8325H35.8321H35.8316H35.8312H35.8307H35.8303H35.8299H35.8294H35.829H35.8285H35.8281H35.8276H35.8272H35.8267H35.8263H35.8259H35.8254H35.825H35.8245H35.8241H35.8236H35.8232H35.8227H35.8223H35.8219H35.8214H35.821H35.8205H35.8201H35.8196H35.8192H35.8187H35.8183H35.8179H35.8174H35.817H35.8165H35.8161H35.8156H35.8152H35.8147H35.8143H35.8139H35.8134H35.813H35.8125H35.8121H35.8116H35.8112H35.8107H35.8103H35.8099H35.8094H35.809H35.8085H35.8081H35.8076H35.8072H35.8067H35.8063H35.8059H35.8054H35.805H35.8045H35.8041H35.8036H35.8032H35.8027H35.8023H35.8019H35.8014H35.801H35.8005H35.8001H35.7996H35.7992H35.7988H35.7983H35.7979H35.7974H35.797H35.7965H35.7961H35.7956H35.7952H35.7948H35.7943H35.7939H35.7934H35.793H35.7925H35.7921H35.7916H35.7912H35.7908H35.7903H35.7899H35.7894H35.789H35.7885H35.7881H35.7876H35.7872H35.7868H35.7863H35.7859H35.7854H35.785H35.7845H35.7841H35.7836H35.7832H35.7828H35.7823H35.7819H35.7814H35.781H35.7805H35.7801H35.7796H35.7792H35.7788H35.7783H35.7779H35.7774H35.777H35.7765H35.7761H35.7756H35.7752H35.7748H35.7743H35.7739H35.7734H35.773H35.7725H35.7721H35.7716H35.7712H35.7708H35.7703H35.7699H35.7694H35.769H35.7685H35.7681H35.7676H35.7672H35.7668H35.7663H35.7659H35.7654H35.765H35.7645H35.7641H35.7636H35.7632H35.7628H35.7623H35.7619H35.7614H35.761H35.7605H35.7601H35.7597H35.7592H35.7588H35.7583H35.7579H35.7574H35.757H35.7565H35.7561H35.7557H35.7552H35.7548H35.7543H35.7539H35.7534H35.753H35.7525H35.7521H35.7517H35.7512H35.7508H35.7503H35.7499H35.7494H35.749H35.7485H35.7481H35.7477H35.7472H35.7468H35.7463H35.7459H35.7454H35.745H35.7445H35.7441H35.7437H35.7432H35.7428H35.7423H35.7419H35.7414H35.741H35.7405H35.7401H35.7397H35.7392H35.7388H35.7383H35.7379H35.7374H35.737H35.7365H35.7361H35.7357H35.7352H35.7348H35.7343H35.7339H35.7334H35.733H35.7325H35.7321H35.7317H35.7312H35.7308H35.7303H35.7299H35.7294H35.729H35.7285H35.7281H35.7277H35.7272H35.7268H35.7263H35.7259H35.7254H35.725H35.7245H35.7241H35.7237H35.7232H35.7228H35.7223H35.7219H35.7214H35.721H35.7206H35.7201H35.7197H35.7192H35.7188H35.7183H35.7179H35.7174H35.717H35.7166H35.7161H35.7157H35.7152H35.7148H35.7143H35.7139H35.7134H35.713H35.7126H35.7121H35.7117H35.7112H35.7108H35.7103H35.7099H35.7094H35.709H35.7086H35.7081H35.7077H35.7072H35.7068H35.7063H35.7059H35.7054H35.705H35.7046H35.7041H35.7037H35.7032H35.7028H35.7023H35.7019H35.7014H35.701H35.7006H35.7001H35.6997H35.6992H35.6988H35.6983H35.6979H35.6974H35.697H35.6966H35.6961H35.6957H35.6952H35.6948H35.6943H35.6939H35.6934H35.693H35.6926H35.6921H35.6917H35.6912H35.6908H35.6903H35.6899H35.6894H35.689H35.6886H35.6881H35.6877H35.6872H35.6868H35.6863H35.6859H35.6854H35.685H35.6846H35.6841H35.6837H35.6832H35.6828H35.6823H35.6819H35.6814H35.681H35.6806H35.6801H35.6797H35.6792H35.6788H35.6783H35.6779H35.6774H35.677H35.6766H35.6761H35.6757H35.6752H35.6748H35.6743H35.6739H35.6734H35.673H35.6726H35.6721H35.6717H35.6712H35.6708H35.6703H35.6699H35.6694H35.669H35.6686H35.6681H35.6677H35.6672H35.6668L41.1509 20.4168ZM41.1509 20.4168L41.1495 20.4171L41.1285 20.4219L41.1112 20.4348C40.8351 20.6428 40.6288 20.9238 40.5032 21.2635L40.5028 21.2634L40.5004 21.2725C40.4947 21.2939 40.4891 21.3157 40.4833 21.3379C40.4272 21.5538 40.3598 21.8133 40.1807 22.0957C39.9841 22.4059 39.6486 22.749 39.0331 23.0763L39.0324 23.0766C38.5108 23.3587 38.0682 23.4128 37.6645 23.4621C37.5971 23.4703 37.5308 23.4784 37.4654 23.4874C37.2379 23.5188 37.0179 23.5619 36.8103 23.6666C36.6015 23.7719 36.4115 23.9362 36.2357 24.2005L36.2336 24.2032L36.2201 24.2203C36.2083 24.2353 36.1908 24.2573 36.1682 24.2854C36.123 24.3416 36.0575 24.4219 35.9767 24.5182C35.8149 24.711 35.5919 24.9674 35.3468 25.2223C35.1012 25.4777 34.8356 25.7293 34.5885 25.9141C34.4649 26.0065 34.3483 26.0805 34.2429 26.13C34.1363 26.1801 34.0488 26.2016 33.9812 26.1984L33.9812 26.1982H33.9764C33.9515 26.1982 33.9241 26.1918 33.8933 26.1754L33.8934 26.1752L33.8875 26.1725C33.5645 26.0268 33.3365 25.7025 33.3067 25.3227L33.2995 25.2305H33.207H33.207H33.207H33.207H33.207H33.207H33.207H33.207H33.207H33.2069H33.2069H33.2069H33.2069H33.2069H33.2069H33.2069H33.2069H33.2069H33.2069H33.2069H33.2068H33.2068H33.2068H33.2068H33.2068H33.2068H33.2068H33.2068H33.2068H33.2067H33.2067H33.2067H33.2067H33.2067H33.2067H33.2067H33.2066H33.2066H33.2066H33.2066H33.2066H33.2066H33.2066H33.2065H33.2065H33.2065H33.2065H33.2065H33.2065H33.2064H33.2064H33.2064H33.2064H33.2064H33.2063H33.2063H33.2063H33.2063H33.2063H33.2062H33.2062H33.2062H33.2062H33.2062H33.2061H33.2061H33.2061H33.2061H33.206H33.206H33.206H33.206H33.2059H33.2059H33.2059H33.2059H33.2058H33.2058H33.2058H33.2058H33.2057H33.2057H33.2057H33.2057H33.2056H33.2056H33.2056H33.2055H33.2055H33.2055H33.2055H33.2054H33.2054H33.2054H33.2053H33.2053H33.2053H33.2052H33.2052H33.2052H33.2051H33.2051H33.2051H33.205H33.205H33.205H33.2049H33.2049H33.2049H33.2048H33.2048H33.2048H33.2047H33.2047H33.2047H33.2046H33.2046H33.2045H33.2045H33.2045H33.2044H33.2044H33.2043H33.2043H33.2043H33.2042H33.2042H33.2041H33.2041H33.2041H33.204H33.204H33.2039H33.2039H33.2038H33.2038H33.2038H33.2037H33.2037H33.2036H33.2036H33.2035H33.2035H33.2034H33.2034H33.2033H33.2033H33.2033H33.2032H33.2032H33.2031H33.2031H33.203H33.203H33.2029H33.2029H33.2028H33.2028H33.2027H33.2027H33.2026H33.2026H33.2025H33.2024H33.2024H33.2023H33.2023H33.2022H33.2022H33.2021H33.2021H33.202H33.202H33.2019H33.2018H33.2018H33.2017H33.2017H33.2016H33.2016H33.2015H33.2014H33.2014H33.2013H33.2013H33.2012H33.2011H33.2011H33.201H33.201H33.2009H33.2008H33.2008H33.2007H33.2006H33.2006H33.2005H33.2004H33.2004H33.2003H33.2002H33.2002H33.2001H33.2H33.2H33.1999H33.1998H33.1998H33.1997H33.1996H33.1996H33.1995H33.1994H33.1994H33.1993H33.1992H33.1991H33.1991H33.199H33.1989H33.1989H33.1988H33.1987H33.1986H33.1986H33.1985H33.1984H33.1983H33.1983H33.1982H33.1981H33.198H33.198H33.1979H33.1978H33.1977H33.1976H33.1976H33.1975H33.1974H33.1973H33.1972H33.1972H33.1971H33.197H33.1969H33.1968H33.1968H33.1967H33.1966H33.1965H33.1964H33.1963H33.1962H33.1962H33.1961H33.196H33.1959H33.1958H33.1957H33.1956H33.1956H33.1955H33.1954H33.1953H33.1952H33.1951H33.195H33.1949H33.1948H33.1947H33.1947H33.1946H33.1945H33.1944H33.1943H33.1942H33.1941H33.194H33.1939H33.1938H33.1937H33.1936H33.1935H33.1934H33.1933H33.1932H33.1931H33.193H33.1929H33.1928H33.1927H33.1926H33.1925H33.1924H33.1923H33.1922H33.1921H33.192H33.1919H33.1918H33.1917H33.1916H33.1915H33.1914H33.1913H33.1912H33.1911H33.191H33.1909H33.1908H33.1906H33.1905H33.1904H33.1903H33.1902H33.1901H33.19H33.1899H33.1898H33.1897H33.1895H33.1894H33.1893H33.1892H33.1891H33.189H33.1889H33.1887H33.1886H33.1885H33.1884H33.1883H33.1882H33.188H33.1879H33.1878H33.1877H33.1876H33.1875H33.1873H33.1872H33.1871H33.187H33.1869H33.1867H33.1866H33.1865H33.1864H33.1862H33.1861H33.186H33.1859H33.1857H33.1856H33.1855H33.1854H33.1852H33.1851H33.185H33.1848H33.1847H33.1846H33.1845H33.1843H33.1842H33.1841H33.1839H33.1838H33.1837H33.1835H33.1834H33.1833H33.1831H33.183H33.1829H33.1827H33.1826H33.1825H33.1823H33.1822H33.182H33.1819H33.1818H33.1816H33.1815H33.1814H33.1812H33.1811H33.1809H33.1808H33.1806H33.1805H33.1804H33.1802H33.1801H33.1799H33.1798H33.1796H33.1795H33.1793H33.1792H33.1791H33.1789H33.1788H33.1786H33.1785H33.1783H33.1782H33.178H33.1779H33.1777H33.1776H33.1774H33.1773H33.1771H33.1769H33.1768H33.1766H33.1765H33.1763H33.1762H33.176H33.1759H33.1757H33.1755H33.1754H33.1752H33.1751H33.1749H33.1747H33.1746H33.1744H33.1743H33.1741H33.1739H33.1738H33.1736H33.1735H33.1733H33.1731H33.173H33.1728H33.1726H33.1725H33.1723H33.1721H33.172H33.1718H33.1716H33.1715H33.1713H33.1711H33.1709H33.1708H33.1706H33.1704H33.1703H33.1701H33.1699H33.1697H33.1696H33.1694H33.1692H33.169H33.1689H33.1687H33.1685H33.1683H33.1681H33.168H33.1678H33.1676H33.1674H33.1672H33.1671H33.1669H33.1667C33.0689 25.2245 32.8673 25.2011 32.7301 25.0923C32.6645 25.0402 32.6133 24.9685 32.5947 24.8641C32.5756 24.7573 32.5891 24.6075 32.6715 24.3995L32.7005 24.3262L32.6365 24.2812L32.6364 24.2811L32.6363 24.281L32.6362 24.281L32.6361 24.2809L32.6359 24.2808L32.632 24.2778C32.6283 24.2749 32.6223 24.2701 32.6145 24.2635C32.5991 24.2502 32.5766 24.2294 32.5508 24.201C32.4991 24.1441 32.4346 24.0573 32.3849 23.9394C32.2908 23.7159 32.2446 23.3665 32.4687 22.8728H32.469H32.4693H32.4697H32.47H32.4703H32.4707H32.471H32.4714H32.4717H32.472H32.4724H32.4727H32.4731H32.4734H32.4738H32.4741H32.4744H32.4748H32.4751H32.4755H32.4758H32.4762H32.4765H32.4769H32.4772H32.4776H32.478H32.4783H32.4787H32.479H32.4794H32.4797H32.4801H32.4805H32.4808H32.4812H32.4815H32.4819H32.4823H32.4826H32.483H32.4834H32.4837H32.4841H32.4845H32.4848H32.4852H32.4856H32.486H32.4863H32.4867H32.4871H32.4874H32.4878H32.4882H32.4886H32.489H32.4893H32.4897H32.4901H32.4905H32.4909H32.4912H32.4916H32.492H32.4924H32.4928H32.4932H32.4936H32.4939H32.4943H32.4947H32.4951H32.4955H32.4959H32.4963H32.4967H32.4971H32.4975H32.4979H32.4983H32.4987H32.4991H32.4995H32.4999H32.5003H32.5007H32.5011H32.5015H32.5019H32.5023H32.5027H32.5031H32.5035H32.5039H32.5043H32.5047H32.5051H32.5055H32.506H32.5064H32.5068H32.5072H32.5076H32.508H32.5084H32.5089H32.5093H32.5097H32.5101H32.5105H32.511H32.5114H32.5118H32.5122H32.5126H32.5131H32.5135H32.5139H32.5144H32.5148H32.5152H32.5156H32.5161H32.5165H32.5169H32.5174H32.5178H32.5182H32.5187H32.5191H32.5195H32.52H32.5204H32.5208H32.5213H32.5217H32.5222H32.5224L41.1509 20.4168Z" fill="#C1CBC4" stroke="#C1CBC4" stroke-width="0.2"/>
<path d="M5.86996 14.6636L5.90408 14.739L5.98457 14.7195C6.47533 14.6009 6.98814 14.5254 7.50054 14.5039L7.66211 14.4971L7.58385 14.3556C7.33089 13.8982 7.17759 13.3995 7.14466 12.8914C7.09065 11.8526 7.6318 10.7989 8.78225 9.7618C8.9513 9.61083 9.03989 9.39912 9.05249 9.17986L9.05265 9.17987V9.17413C9.05265 9.17499 9.0529 9.16406 9.0541 9.13988C9.05524 9.1169 9.05715 9.08363 9.06022 9.04119C9.06635 8.95629 9.07708 8.8348 9.09546 8.68548C9.13225 8.38668 9.19955 7.97729 9.3215 7.52707C9.56625 6.62348 10.027 5.5706 10.8876 4.90793L10.8878 4.90779C11.7047 4.27572 12.8125 4.07886 14.2048 4.35897L14.2049 4.35899C14.5736 4.43276 14.9433 4.26143 15.1231 3.93033L15.1232 3.9303L15.1268 3.92429L15.1357 3.90923C15.143 3.89687 15.1534 3.87917 15.1672 3.85668C15.1947 3.81168 15.2355 3.74725 15.2896 3.66884C15.398 3.5119 15.5598 3.29926 15.7755 3.0746C16.2074 2.62474 16.8515 2.13083 17.7125 1.93458L17.7128 1.93451C18.9937 1.63803 20.488 2.07919 22.1593 3.26168L22.1603 3.26231C22.4277 3.44704 22.7842 3.47197 23.0778 3.31146C23.0781 3.31132 23.0784 3.31117 23.0787 3.31102C23.1343 3.28195 23.6051 3.03614 24.2624 2.86889C24.9555 2.69257 25.8424 2.60729 26.6606 2.94494C27.7255 3.38641 28.5136 4.47529 28.9954 6.24106C29.0604 6.49178 29.2531 6.70091 29.4946 6.79925L29.4946 6.79918C29.4961 6.79983 29.4979 6.8006 29.5 6.80148C29.595 6.84146 30.2608 7.12168 30.9927 7.64246C31.7758 8.19973 32.6171 9.02069 32.9128 10.096L32.9129 10.0962C33.2616 11.3504 32.8096 12.7801 31.5204 14.3738L31.5195 14.375C31.2372 14.7349 31.3006 15.2464 31.6618 15.5208L31.6632 15.5218C32.0317 15.7923 32.5551 15.7329 32.8385 15.3842L32.8388 15.3838C34.4421 13.3932 35.0251 11.4607 34.528 9.66067L34.528 9.66057C34.1878 8.43382 33.3992 7.48442 32.5859 6.79023C31.7955 6.11561 30.9763 5.6774 30.5067 5.45574C29.8784 3.41955 28.8061 2.06097 27.301 1.44973C25.4809 0.706242 23.6018 1.3034 22.7463 1.66924C20.8405 0.41574 19.0328 -0.0340631 17.3405 0.352999L17.3405 0.352967L17.338 0.3536C15.9693 0.703684 14.7672 1.52825 13.9736 2.66904C12.3422 2.46373 10.9573 2.78645 9.85087 3.64694C8.85969 4.41608 8.26947 5.4889 7.91719 6.47932C7.57408 7.44397 7.45428 8.33712 7.41134 8.81121C6.06099 10.106 5.40898 11.5204 5.48852 13.0091C5.48897 13.5598 5.62844 14.1296 5.86996 14.6636Z" fill="#C1CBC4" stroke="#C1CBC4" stroke-width="0.2"/>
<path d="M14.6369 20.9796L14.6825 21.0749L14.7752 21.0241C15.2582 20.7592 15.7115 20.4254 16.1252 20.0227L16.1252 20.0228L16.1274 20.0205C16.4236 19.713 16.4556 19.1821 16.1932 18.8372C16.0609 18.6634 15.878 18.5626 15.6851 18.5475C15.4921 18.5324 15.2969 18.6035 15.1419 18.7584C14.8189 19.0689 14.4675 19.3242 14.0871 19.5352L14.0572 19.5518L14.0437 19.5833C14.0334 19.6073 14.0234 19.6312 14.0134 19.6549C13.9744 19.7477 13.937 19.8368 13.8936 19.9128L13.8522 19.9853L13.9162 20.039C14.215 20.2899 14.4585 20.6067 14.6369 20.9796Z" fill="#C1CBC4" stroke="#C1CBC4" stroke-width="0.2"/>
<path d="M2.89816 19.6138L2.9107 19.6171L2.93043 19.6222L2.9466 19.6346C3.21858 19.8433 3.40588 20.1319 3.51063 20.4515L3.51425 20.4626L3.51359 20.4627C3.51759 20.4823 3.52156 20.5023 3.5256 20.5226C3.56689 20.7303 3.61589 20.9768 3.7779 21.2537C3.95526 21.5568 4.27269 21.9028 4.87928 22.2587C5.39561 22.5616 5.8451 22.6441 6.25316 22.7189C6.31945 22.7311 6.38464 22.7431 6.44885 22.7557C6.67735 22.8008 6.89678 22.8559 7.09979 22.9667C7.3041 23.0782 7.48686 23.2434 7.64939 23.5014L7.65151 23.5043L7.66399 23.5212C7.67501 23.536 7.69132 23.5579 7.71239 23.5858C7.75453 23.6416 7.81563 23.7215 7.8913 23.8175C8.04273 24.0096 8.25202 24.2655 8.48393 24.5218C8.71627 24.7786 8.9692 25.0333 9.20796 25.2244C9.32733 25.32 9.4411 25.3979 9.54526 25.4522C9.64969 25.5067 9.73809 25.534 9.80909 25.5364C9.83768 25.5362 9.86848 25.5294 9.91175 25.5188C10.2523 25.3993 10.4984 25.1154 10.5477 24.7671L10.5599 24.6811H10.6467H10.6467H10.6468H10.6468H10.6468H10.6468H10.6468H10.6468H10.6468H10.6468H10.6468H10.6468H10.6469H10.6469H10.6469H10.6469H10.6469H10.6469H10.6469H10.6469H10.6469H10.6469H10.6469H10.647H10.647H10.647H10.647H10.647H10.647H10.647H10.647H10.6471H10.6471H10.6471H10.6471H10.6471H10.6471H10.6471H10.6472H10.6472H10.6472H10.6472H10.6472H10.6472H10.6473H10.6473H10.6473H10.6473H10.6473H10.6473H10.6474H10.6474H10.6474H10.6474H10.6474H10.6475H10.6475H10.6475H10.6475H10.6475H10.6476H10.6476H10.6476H10.6476H10.6477H10.6477H10.6477H10.6477H10.6477H10.6478H10.6478H10.6478H10.6478H10.6479H10.6479H10.6479H10.6479H10.648H10.648H10.648H10.6481H10.6481H10.6481H10.6481H10.6482H10.6482H10.6482H10.6483H10.6483H10.6483H10.6483H10.6484H10.6484H10.6484H10.6485H10.6485H10.6485H10.6486H10.6486H10.6486H10.6487H10.6487H10.6487H10.6488H10.6488H10.6488H10.6489H10.6489H10.6489H10.649H10.649H10.6491H10.6491H10.6491H10.6492H10.6492H10.6492H10.6493H10.6493H10.6494H10.6494H10.6494H10.6495H10.6495H10.6496H10.6496H10.6496H10.6497H10.6497H10.6498H10.6498H10.6499H10.6499H10.6499H10.65H10.65H10.6501H10.6501H10.6502H10.6502H10.6503H10.6503H10.6504H10.6504H10.6505H10.6505H10.6506H10.6506H10.6506H10.6507H10.6507H10.6508H10.6508H10.6509H10.651H10.651H10.6511H10.6511H10.6512H10.6512H10.6513H10.6513H10.6514H10.6514H10.6515H10.6515H10.6516H10.6516H10.6517H10.6518H10.6518H10.6519H10.6519H10.652H10.652H10.6521H10.6522H10.6522H10.6523H10.6523H10.6524H10.6525H10.6525H10.6526H10.6526H10.6527H10.6528H10.6528H10.6529H10.653H10.653H10.6531H10.6531H10.6532H10.6533H10.6533H10.6534H10.6535H10.6535H10.6536H10.6537H10.6537H10.6538H10.6539H10.6539H10.654H10.6541H10.6542H10.6542H10.6543H10.6544H10.6544H10.6545H10.6546H10.6546H10.6547H10.6548H10.6549H10.6549H10.655H10.6551H10.6552H10.6552H10.6553H10.6554H10.6555H10.6555H10.6556H10.6557H10.6558H10.6559H10.6559H10.656H10.6561H10.6562H10.6563H10.6563H10.6564H10.6565H10.6566H10.6567H10.6567H10.6568H10.6569H10.657H10.6571H10.6572H10.6572H10.6573H10.6574H10.6575H10.6576H10.6577H10.6578H10.6578H10.6579H10.658H10.6581H10.6582H10.6583H10.6584H10.6585H10.6586H10.6586H10.6587H10.6588H10.6589H10.659H10.6591H10.6592H10.6593H10.6594H10.6595H10.6596H10.6597H10.6598H10.6599H10.66H10.6601H10.6602H10.6603H10.6603H10.6604H10.6605H10.6606H10.6607H10.6608H10.6609H10.661H10.6611H10.6613H10.6614H10.6615H10.6616H10.6617H10.6618H10.6619H10.662H10.6621H10.6622H10.6623H10.6624H10.6625H10.6626H10.6627H10.6628H10.6629H10.663H10.6631H10.6633H10.6634H10.6635H10.6636H10.6637H10.6638H10.6639H10.664H10.6641H10.6643H10.6644H10.6645H10.6646H10.6647H10.6648H10.6649H10.6651H10.6652H10.6653H10.6654H10.6655H10.6656H10.6658H10.6659H10.666H10.6661H10.6662H10.6664H10.6665H10.6666H10.6667H10.6669H10.667H10.6671H10.6672H10.6673H10.6675H10.6676H10.6677H10.6678H10.668H10.6681H10.6682H10.6684H10.6685H10.6686H10.6687H10.6689H10.669H10.6691H10.6693H10.6694H10.6695H10.6697H10.6698H10.6699H10.6701H10.6702H10.6703H10.6705H10.6706H10.6707H10.6709H10.671H10.6711H10.6713H10.6714H10.6716H10.6717H10.6718H10.672H10.6721H10.6722H10.6724H10.6725H10.6727H10.6728H10.673H10.6731H10.6732H10.6734H10.6735H10.6737H10.6738H10.674H10.6741H10.6743H10.6744H10.6746H10.6747H10.6749H10.675H10.6752H10.6753H10.6755H10.6756H10.6758H10.6759H10.6761H10.6762H10.6764H10.6765H10.6767H10.6768H10.677H10.6771H10.6773H10.6774H10.6776H10.6778H10.6779H10.6781H10.6782H10.6784H10.6786H10.6787H10.6789H10.679H10.6792H10.6794H10.6795H10.6797H10.6799H10.68H10.6802H10.6803H10.6805H10.6807H10.6808H10.681H10.6812H10.6813H10.6815H10.6817H10.6819H10.682H10.6822H10.6824H10.6825H10.6827H10.6829H10.683H10.6832H10.6834H10.6836H10.6837H10.6839H10.6841H10.6843H10.6844H10.6846H10.6848H10.685H10.6852H10.6853H10.6855H10.6857H10.6859H10.6861H10.6862H10.6864H10.6866H10.6868H10.687H10.6872H10.6873H10.6875H10.6877H10.6879H10.6881H10.6883H10.6885H10.6886H10.6888H10.689H10.6892H10.6894H10.6896H10.6898H10.69H10.6902H10.6904H10.6905H10.6907H10.6909H10.6964L10.6964 24.6812C10.7912 24.6864 11.0045 24.6792 11.1551 24.5842C11.2264 24.5392 11.2818 24.4757 11.3069 24.3822C11.3326 24.2863 11.3293 24.1475 11.259 23.9482L11.2309 23.8686L11.3043 23.8277L11.3044 23.8277L11.3045 23.8276L11.3046 23.8276L11.3047 23.8275L11.3049 23.8274L11.309 23.8249C11.3129 23.8225 11.3192 23.8185 11.3273 23.8129C11.3437 23.8016 11.3675 23.7838 11.3951 23.7592C11.4505 23.7099 11.5202 23.6339 11.577 23.528C11.6838 23.3289 11.7528 23.0088 11.5626 22.5316H11.5622H11.5619H11.5615H11.5612H11.5609H11.5605H11.5602H11.5598H11.5595H11.5591H11.5587H11.5584H11.558H11.5577H11.5573H11.557H11.5566H11.5563H11.5559H11.5555H11.5552H11.5548H11.5544H11.5541H11.5537H11.5534H11.553H11.5526H11.5523H11.5519H11.5515H11.5511H11.5508H11.5504H11.55H11.5497H11.5493H11.5489H11.5485H11.5482H11.5478H11.5474H11.547H11.5466H11.5463H11.5459H11.5455H11.5451H11.5447H11.5443H11.544H11.5436H11.5432H11.5428H11.5424H11.542H11.5416H11.5412H11.5408H11.5405H11.5401H11.5397H11.5393H11.5389H11.5385H11.5381H11.5377H11.5373H11.5369H11.5365H11.5361H11.5357H11.5353H11.5349H11.5345H11.5341H11.5337H11.5333H11.5328H11.5324H11.532H11.5316H11.5312H11.5308H11.5304H11.53H11.5296H11.5291H11.5287H11.5283H11.5279H11.5275H11.5271H11.5266H11.5262H11.5258H11.5254H11.525H11.5245H11.5241H11.5237H11.5233H11.5228H11.5224H11.522H11.5215H11.5211H11.5207H11.5203H11.5198H11.5194H11.519H11.5185H11.5181H11.5177H11.5172H11.5168H11.5163H11.5159H11.5155H11.515H11.5146H11.5141H11.5137H11.5133H11.5128H11.5124H11.5119H11.5115H11.511H11.5106H11.5101H11.5097H11.5092H11.5088H11.5083H11.5079H11.5042L11.5042 22.5315C11.21 22.5206 10.4217 22.4825 9.57698 22.3504C9.15463 22.2843 8.7163 22.1944 8.31763 22.0719C7.92016 21.9498 7.5558 21.7934 7.28587 21.5913L7.09471 21.4482L2.89816 19.6138ZM2.89816 19.6138L2.90351 19.6127L2.91933 19.6021C3.11163 19.473 3.35558 19.4033 3.58795 19.4132L3.58795 19.4133H3.59222C3.65869 19.4133 3.71577 19.4224 3.78605 19.4421L3.78601 19.4422L3.7911 19.4434C4.01671 19.4941 4.12199 19.6285 4.20868 19.7745C4.22109 19.7954 4.23391 19.818 4.24706 19.8413C4.27724 19.8947 4.30921 19.9512 4.34218 19.9967C4.39279 20.0666 4.46059 20.1336 4.56292 20.1577L4.56631 20.1585L2.89816 19.6138ZM9.87737 19.1397C10.526 19.0765 11.035 18.5562 11.0655 17.9205L9.87737 19.1397ZM9.87737 19.1397C9.87622 19.1398 9.87507 19.14 9.87392 19.1401C9.87406 19.1415 9.8742 19.143 9.87434 19.1444C9.98139 20.2877 8.82498 20.2769 8.7037 20.2661H8.69265L9.87737 19.1397ZM10.8665 20.8418C11.0153 20.6585 11.1415 20.4555 11.2341 20.2379C12.085 19.7304 12.6002 18.8316 12.6014 17.8551C12.6357 17.3571 12.4222 16.8827 12.0219 16.5709L12.0219 16.5709L12.0203 16.5697C11.7744 16.3859 11.4798 16.2696 11.1599 16.2576C10.9963 16.2463 10.8321 16.2685 10.6786 16.3244C10.2141 16.3767 9.74897 16.3871 9.27202 16.3659C9.20494 16.3618 9.13775 16.3592 9.06948 16.3567C8.94907 16.3521 8.82531 16.3475 8.69285 16.3339C8.59896 16.3224 8.50595 16.3224 8.41984 16.3224L8.41828 16.3224C6.44414 16.2582 4.85781 16.8078 3.99378 17.8195C3.89398 17.8045 3.7903 17.7954 3.69587 17.787C3.68626 17.7862 3.67674 17.7853 3.66733 17.7845L3.66735 17.7843L3.66097 17.7841C3.22137 17.7731 2.76985 17.8602 2.37181 18.0467L2.21112 18.0664L2.21111 18.0663L2.20715 18.0669C1.36106 18.2052 0.779767 18.9792 0.921134 19.8159C1.00158 20.3868 1.38077 20.8395 1.91751 21.0257C1.98691 21.3247 2.10703 21.7313 2.39454 22.1772C2.7004 22.6515 3.19252 23.1656 4.00522 23.6438L4.00522 23.6438L4.0067 23.6447C4.59049 23.975 5.24191 24.2065 5.91659 24.3059C6.0219 24.3248 6.14994 24.3514 6.22866 24.3713C6.24516 24.3958 6.25724 24.4144 6.2631 24.4259L6.26677 24.4331L6.27154 24.4396C7.23667 25.7561 7.99933 26.4302 8.57195 26.7763C9.14802 27.1246 9.52782 27.1382 9.71561 27.1439C9.9727 27.1553 10.2397 27.1095 10.483 27.0186L10.483 27.0186L10.4842 27.0181C10.9664 26.8312 11.3843 26.5247 11.6928 26.1088C12.4125 25.8211 12.8984 25.1559 12.9423 24.3887C13.411 23.5951 13.4413 22.6281 13.0338 21.8047C12.7968 21.2611 12.266 20.9039 11.6662 20.8808L11.6662 20.8807H11.6624H11.6404H11.5428C11.3161 20.8725 11.0893 20.8579 10.8665 20.8418ZM7.33076 21.4124L7.33072 21.4124L4.60033 20.0644C4.6079 20.0675 4.61704 20.0712 4.62997 20.0712L4.6253 20.1711C4.62599 20.1712 4.62667 20.1712 4.62735 20.1712C4.72487 20.175 4.79599 20.1262 4.84152 20.0634C4.88429 20.0044 4.9069 19.931 4.91977 19.8679C4.93299 19.8031 4.93783 19.7392 4.93949 19.6926C4.94033 19.6691 4.94039 19.6493 4.94022 19.6353L4.93991 19.6204C5.00887 19.0161 5.41898 18.5854 6.04213 18.3098C6.66936 18.0325 7.50013 17.9194 8.36881 17.9515L8.36881 17.9516H8.37251C8.40707 17.9516 8.44221 17.954 8.48145 17.9568L8.48297 17.9569C8.51991 17.9595 8.56064 17.9623 8.60198 17.9624C8.83208 17.9732 9.02957 17.984 9.22738 17.9947C9.80228 18.0357 10.3874 18.0191 10.9644 17.9358C10.9266 18.5119 10.4606 18.9839 9.86448 19.0405L9.7648 19.05L9.77438 19.1496C9.80033 19.4194 9.75109 19.6119 9.66872 19.7507C9.58606 19.89 9.46486 19.984 9.33257 20.0473C9.06378 20.176 8.76379 20.1711 8.71258 20.1665L8.71261 20.1661H8.7037H8.69265H8.60435L8.59342 20.2537C8.53247 20.7419 8.22429 21.0299 7.92082 21.1993C7.76899 21.284 7.62044 21.3376 7.5096 21.3699C7.45433 21.386 7.40882 21.3968 7.37748 21.4034C7.36182 21.4068 7.34973 21.4091 7.34176 21.4105L7.33298 21.412L7.33105 21.4123L7.33082 21.4124L7.33076 21.4124ZM8.37251 17.8516C8.41115 17.8516 8.4498 17.8543 8.48844 17.857C8.52709 17.8597 8.56574 17.8625 8.60438 17.8625L8.37251 17.8516Z" fill="#C1CBC4" stroke="#C1CBC4" stroke-width="0.2"/>
<path d="M18.6167 11.4233C18.4304 11.2051 18.2565 10.965 18.0954 10.7266C18.0404 10.6454 18.0141 10.5651 17.9906 10.4841L17.9899 10.4815L17.9899 10.4815C17.8722 10.0303 18.1598 9.57154 18.6111 9.45712L18.6171 9.45559L18.6172 9.45578C19.413 9.30576 20.2207 9.38634 20.9697 9.68586C23.0641 10.4096 24.2688 12.1629 24.9026 13.4923L24.9041 13.4954L24.9041 13.4954C25.1458 14.0516 25.3535 14.6315 25.5038 15.2349C25.5094 15.2544 25.5143 15.2733 25.5189 15.2913C25.5419 15.2695 25.5602 15.2515 25.5747 15.2372C25.8305 14.947 25.9532 14.5995 26.0057 14.1976C26.0586 13.7927 26.0395 13.3403 26.0165 12.843C25.9588 12.2148 25.9821 11.5873 26.0746 10.9605L26.0754 10.9552L26.0755 10.9553C26.1007 10.8309 26.1516 10.7037 26.2308 10.5993C26.5148 10.2178 27.0451 10.1401 27.4213 10.4201C27.8029 10.6825 28.1626 10.9799 28.4767 11.3125L28.4785 11.3144L28.4785 11.3144C29.1374 12.0504 29.7232 13.1029 29.8149 14.5582C29.9065 16.012 29.5043 17.8582 28.2053 20.1819L28.2044 20.1836C27.3876 21.5817 26.8659 23.125 26.6731 24.7241L26.673 24.7252C26.1782 28.4709 26.9779 30.6845 27.9192 32.0802C28.3911 32.7798 28.901 33.2777 29.3109 33.6638C29.3434 33.6944 29.3754 33.7245 29.4068 33.7539C29.5719 33.9088 29.7197 34.0475 29.8358 34.1734C29.9722 34.3212 30.0791 34.4658 30.1141 34.6141L30.1438 34.7403L30.0143 34.7371L27.7266 34.6806L27.6756 34.6794L27.6467 34.6373C27.639 34.6261 27.6206 34.6063 27.5841 34.5733C27.5553 34.5473 27.52 34.5171 27.4776 34.481C27.4685 34.4732 27.459 34.4651 27.4492 34.4567C27.3398 34.3631 27.1959 34.2382 27.0325 34.0725C26.7054 33.7407 26.3017 33.2474 25.9312 32.5109C25.19 31.0378 24.5857 28.6014 24.9759 24.5559L24.9761 24.5536L24.9761 24.5536C25.195 22.7361 25.7825 20.9639 26.7157 19.3731C28.164 16.7562 28.4848 14.7056 27.7292 13.2105C27.758 14.2378 27.6966 15.3785 26.8321 16.3644L26.8273 16.3699L26.8271 16.3697C26.8263 16.3707 26.823 16.3741 26.8155 16.3821L26.7781 16.4217C26.746 16.4553 26.7003 16.5026 26.6439 16.559C26.5312 16.6717 26.3756 16.8212 26.2015 16.9707C26.0278 17.1198 25.8336 17.2708 25.6439 17.385C25.4575 17.4971 25.2612 17.5827 25.0869 17.5827C24.8422 17.5827 24.6099 17.4813 24.4421 17.2919C24.3721 17.2218 24.3322 17.1401 24.2974 17.0602L24.2959 17.0567L24.296 17.0566C24.1226 16.6122 23.9843 16.1573 23.858 15.6931L23.8573 15.6905L23.8573 15.6905C23.7331 15.1782 23.5636 14.688 23.349 14.2088C22.8767 13.2143 22.0261 11.9469 20.6421 11.3657C21.1174 12.1964 21.4834 13.0753 21.7402 13.9933L21.7405 13.9942C21.792 14.1846 21.7793 14.3771 21.7014 14.5564L21.7005 14.5584L21.7005 14.5584C21.5072 14.9777 21.004 15.1837 20.5742 14.9915C19.2218 14.4033 17.6902 14.2018 16.1067 14.1927C16.3726 14.2795 16.6333 14.372 16.8865 14.468C20.9049 15.9624 23.4434 18.4102 23.6881 21.5125L23.6885 21.5163L23.6884 21.5163C23.9573 28.1979 20.5032 33.2215 19.6091 34.522C19.5475 34.6116 19.498 34.6836 19.4627 34.7371L19.4322 34.7835L19.3767 34.7822L17.1348 34.7258L16.9517 34.7212L17.0546 34.5696C17.1712 34.3978 17.3411 34.1772 17.5477 33.9088C18.9993 32.0232 22.2658 27.78 21.6588 21.53L21.6587 21.5283C21.4688 19.1602 19.6831 17.3111 16.2789 16.0426C15.0724 15.5936 13.8196 15.2567 12.5546 15.0095C12.0305 14.9109 11.6432 14.4799 11.5932 13.9622L11.593 13.9602L11.593 13.9602C11.5431 13.308 12.0181 12.7416 12.6784 12.6801C14.9431 12.4612 17.3069 12.3467 19.5199 12.8797C19.3864 12.6001 19.243 12.3273 19.0774 12.0549M18.6167 11.4233C18.6167 11.4233 18.6166 11.4232 18.6166 11.4231L18.6929 11.3586L18.6169 11.4235C18.6168 11.4235 18.6168 11.4234 18.6167 11.4233ZM18.6167 11.4233C18.784 11.6213 18.9297 11.831 19.0774 12.0549M19.0774 12.0549C19.0771 12.0544 19.0768 12.0539 19.0764 12.0534L19.1619 12.0014L19.0784 12.0565C19.078 12.056 19.0777 12.0555 19.0774 12.0549Z" fill="#C1CBC4" stroke="#C1CBC4" stroke-width="0.2"/>
</svg>
