<svg width="21" height="40" viewBox="0 0 21 40" fill="none" xmlns="http://www.w3.org/2000/svg">
<path id="Vector" d="M4.32272 38.9465C3.67534 38.6823 3.17184 38.1921 2.90902 37.565C2.64495 36.9375 2.65375 36.2486 2.93356 35.6279L6.49862 27.7L6.89787 22.7557C6.61187 22.1846 6.45711 21.5565 6.45711 20.9047V14.8042L5.80806 15.511L5.51054 21.2207C5.50899 22.4974 4.48793 23.4767 3.15422 23.4767C1.71142 23.4767 0.85 22.3094 0.85 21.1869V21.1798L0.850169 21.1798L1.16205 14.6246C1.16246 14.1104 1.3699 13.5908 1.73994 13.1863L1.74011 13.1861L6.09733 8.43995C6.44911 7.99357 6.91652 7.67514 7.43114 7.5105C6.8251 6.80333 6.45711 5.87428 6.45711 4.85927C6.45711 2.65327 8.19632 0.85 10.3452 0.85C12.4935 0.85 14.2333 2.65272 14.2333 4.85927C14.2333 6.0976 13.6836 7.20389 12.8245 7.93977C13.1588 8.16076 13.449 8.43924 13.6772 8.76256C14.0217 9.14991 14.2327 9.65273 14.2327 10.2029V10.4997V14.9629L19.1339 18.159L19.134 18.159C20.1948 18.8513 20.4718 20.2431 19.7421 21.2602C19.3069 21.8677 18.5866 22.2275 17.8197 22.2275C17.3507 22.2275 16.8965 22.0939 16.5077 21.8405L16.5076 21.8405L14.2333 20.3569V22.1009L17.4548 27.4055C17.7122 27.7385 17.8805 28.1295 17.9439 28.5397L19.7994 36.1705L19.8026 36.1836L19.802 36.1837C20.0101 37.5722 19.0418 38.8847 17.6475 39.1125M4.32272 38.9465C4.32269 38.9465 4.32266 38.9465 4.32263 38.9465L4.3794 38.8077L4.32272 38.9465ZM4.32272 38.9465C4.65402 39.082 5.00344 39.15 5.36054 39.15C6.41402 39.15 7.36939 38.5532 7.78865 37.6217L7.78867 37.6216L11.5273 29.3083L11.5275 29.3078C11.6239 29.0917 11.6885 28.8652 11.7199 28.6327M11.7199 28.6327L12.8377 29.9586M11.7199 28.6327C11.7255 28.5908 11.7301 28.5487 11.7336 28.5065L11.7336 28.5061L11.7402 28.4241L7.65186 37.5601L11.3905 29.2468C11.4974 29.0069 11.5627 28.7539 11.5841 28.4942L11.5857 28.4736L11.6044 28.4958L11.6045 28.4958L11.7199 28.6327ZM12.8377 29.9586L14.5842 36.99M12.8377 29.9586L12.8293 29.9247L12.9749 29.8886L12.8602 29.9853L12.8377 29.9586ZM14.5842 36.99C14.7737 38.2273 15.8989 39.15 17.1961 39.15C17.3451 39.15 17.4958 39.1379 17.6475 39.1125M14.5842 36.99C14.5839 36.9876 14.5835 36.9852 14.5832 36.9829L14.7315 36.9606L14.5859 36.9968L14.5842 36.99ZM17.6475 39.1125C17.6477 39.1125 17.6479 39.1124 17.6481 39.1124L17.6233 38.9645L17.6475 39.1125ZM1.85061 13.2876L6.2117 8.53718C6.5599 8.09347 7.02798 7.7832 7.54121 7.6337L1.85061 13.2876ZM1.85061 13.2876C1.50346 13.667 1.31151 14.1526 1.31205 14.6282L1.85061 13.2876ZM10.1918 28.3902L10.1918 28.3901L10.3075 26.9574L8.30072 24.5778L8.0213 28.0364L8.01921 28.0622L8.00858 28.0858L4.35179 36.217L10.1918 28.3902ZM10.1918 28.3902C10.1828 28.5029 10.1543 28.6132 10.1075 28.7175L10.1918 28.3902ZM4.92639 37.5759L4.9265 37.576C5.47957 37.8023 6.14075 37.5377 6.36942 37.0297L10.1074 28.7176L4.92639 37.5759ZM4.92639 37.5759C4.65592 37.4655 4.44969 37.2628 4.34169 37.0066M4.92639 37.5759L4.34169 37.0066M4.34169 37.0066C4.23445 36.7509 4.23811 36.4712 4.35168 36.2172L4.34169 37.0066ZM6.60711 4.85927C6.60711 5.86264 6.98012 6.77806 7.59038 7.46485L12.6912 7.85607C13.5385 7.14811 14.0833 6.06953 14.0833 4.85927C14.0833 2.73103 12.4062 1 10.3452 1C8.28365 1 6.60711 2.73155 6.60711 4.85927ZM13.5595 8.856C13.333 8.5331 13.0411 8.25621 12.7031 8.0397L14.0827 15.0442V10.4997V10.2029C14.0827 9.6891 13.8847 9.21872 13.5595 8.856ZM17.388 37.6451L17.3878 37.6452C16.7723 37.7468 16.1985 37.3406 16.1028 36.7163L16.1034 36.7162L16.1001 36.7029L14.2678 29.3168L14.2594 29.2829L14.2369 29.2562L11.8567 26.4333L11.742 26.53L11.8567 26.4333L11.2864 25.7571L11.2863 25.757L10.7166 25.0808L10.7165 25.0807L8.91769 22.9472L8.91786 22.9471L8.91213 22.941L8.86826 22.8945L8.8684 22.8944L8.86297 22.8892C8.70265 22.7354 8.56556 22.5652 8.44717 22.3835L8.44714 22.3834C8.15925 21.9419 8.00314 21.434 8.00314 20.9037V20.5232V19.0117V11.2581V10.873L7.74266 11.1566L4.3276 14.8753L4.29109 14.9151L4.28829 14.969L3.96526 21.1781L3.96506 21.1781V21.1859C3.96506 21.4301 3.87975 21.6286 3.74129 21.7658C3.60273 21.9031 3.4018 21.9882 3.15422 21.9882C2.66806 21.9882 2.39764 21.5881 2.39549 21.2159L2.70736 14.6609L2.70753 14.6609V14.6538C2.70753 14.4769 2.77508 14.3045 2.89916 14.1702L2.89947 14.1699L7.25773 9.4223C7.2873 9.39147 7.31804 9.35425 7.35202 9.31143L7.35266 9.31061C7.5742 9.0274 7.89921 8.86749 8.24307 8.86749H10.3457H10.3803H10.9687C11.1275 8.86749 11.2812 8.88957 11.4287 8.92882L11.4289 8.92888C11.8535 9.04125 12.2107 9.30371 12.4341 9.65108L12.4343 9.65135C12.5946 9.89946 12.6878 10.1887 12.6878 10.4987V15.6693V17.8279V18.5475V19.2672V22.4617V22.5037L12.7096 22.5396L16.1438 28.1941L16.1435 28.1943L16.1496 28.203L16.1951 28.2672L16.1949 28.2674L16.2007 28.2747C16.313 28.414 16.3886 28.5813 16.425 28.8099L16.4245 28.81L16.4274 28.8218L18.2763 36.4228C18.3485 37.0109 17.9516 37.5531 17.388 37.6451ZM10.3452 2.33642C11.627 2.33642 12.6872 3.45769 12.6872 4.85822C12.6872 6.25876 11.627 7.38002 10.3452 7.38002C9.06334 7.38002 8.00314 6.25876 8.00314 4.85822C8.00314 3.45769 9.06334 2.33642 10.3452 2.33642ZM18.4711 20.4143C18.2383 20.7373 17.7231 20.8336 17.3756 20.6081C17.3756 20.6081 17.3755 20.608 17.3754 20.608L14.2338 18.5588V16.7584L18.2673 19.3886C18.6232 19.6214 18.7104 20.0808 18.4711 20.4143Z" fill="white" stroke="white" stroke-width="0.3"/>
</svg>
